<svg width="377" height="353" viewBox="0 0 377 353" fill="none" xmlns="http://www.w3.org/2000/svg">
<path d="M161.77 258.844H38.642C35.3278 258.844 32.6284 256.155 32.6284 252.83V22.2383C32.6284 18.924 35.3174 16.2247 38.642 16.2247H161.77C165.084 16.2247 167.784 18.9136 167.784 22.2383V252.84C167.773 256.155 165.084 258.844 161.77 258.844Z" fill="white"/>
<path d="M161.884 259.198H38.527C35.171 259.198 32.4404 256.468 32.4404 253.112V21.9572C32.4404 18.6012 35.171 15.8706 38.527 15.8706H161.895C165.251 15.8706 167.981 18.6012 167.981 21.9572V253.112C167.971 256.468 165.24 259.198 161.884 259.198ZM38.527 16.8711C35.7234 16.8711 33.441 19.1536 33.441 21.9572V253.112C33.441 255.915 35.7234 258.198 38.527 258.198H161.895C164.698 258.198 166.981 255.915 166.981 253.112V21.9572C166.981 19.1536 164.698 16.8711 161.895 16.8711H38.527Z" fill="#373737"/>
<path d="M147.282 239.969H55.3583C53.3885 239.969 51.7939 238.374 51.7939 236.404V174.298C51.7939 172.329 53.3885 170.734 55.3583 170.734H147.293C149.263 170.734 150.857 172.329 150.857 174.298V236.404C150.847 238.374 149.252 239.969 147.282 239.969Z" fill="#D7D7D7"/>
<path d="M294.913 135.34L254.444 236.498L256.706 332.831H217.758L217.247 225.138C216.986 223.022 217.091 220.886 217.581 218.812L253.047 135.33H294.913V135.34Z" fill="#2E4CB7"/>
<path d="M250.067 332.842V352.248H221.635C220.155 352.248 219.332 350.539 220.259 349.382L225.731 342.545V332.842H250.067Z" fill="#373737"/>
<path d="M348.598 332.842L351.871 352.248H320.156C318.676 352.248 317.853 350.539 318.78 349.382L324.252 342.545L322.699 332.842H348.598Z" fill="#373737"/>
<path d="M263.313 140.593L277.55 232.653L315.675 332.841H354.883L315.675 222.95L305.367 133.527L263.313 140.593Z" fill="#2E4CB7"/>
<path d="M242.667 79.8111L254.819 83.4172C259.759 88.6908 260.624 96.5908 256.914 102.802L229.16 149.317C225.679 155.143 219.53 158.853 212.745 159.197L157.403 157.811L157.101 132.475L206.929 129.014L242.667 79.8111Z" fill="#70A3C4"/>
<path d="M157.152 135.903L144.968 137.258L135.463 150.119C135.463 150.119 132.753 154.632 138.725 153.683C138.725 153.683 137.391 159.864 142.269 157.55C141.685 159.291 141.706 162.626 145.541 160.875L150.2 154.882L157.381 154.694L157.152 135.903Z" fill="#FFDAB8"/>
<path d="M142.269 158.04C142.165 158.04 142.061 158.009 141.977 157.946C141.759 157.779 141.717 157.467 141.873 157.248L147.407 149.827C147.574 149.608 147.887 149.567 148.106 149.723C148.325 149.89 148.366 150.202 148.21 150.421L142.676 157.842C142.571 157.967 142.415 158.04 142.269 158.04Z" fill="#373737"/>
<path d="M138.404 154.777C138.299 154.777 138.185 154.746 138.091 154.673C137.872 154.507 137.841 154.194 138.007 153.975L144.636 145.616C144.803 145.397 145.115 145.366 145.334 145.533C145.553 145.7 145.584 146.012 145.418 146.231L138.789 154.59C138.695 154.715 138.549 154.777 138.404 154.777Z" fill="#373737"/>
<path d="M203.146 203.668L209.056 202.824C210.682 202.595 210.671 200.239 209.045 200.021L203.157 199.228C202.521 199.145 202.031 198.645 201.937 198.019L201.125 192.131C200.895 190.505 198.54 190.505 198.321 192.131L197.498 198.051C197.414 198.676 196.924 199.166 196.289 199.26L190.379 200.104C188.753 200.333 188.764 202.689 190.39 202.907L196.278 203.7C196.914 203.783 197.404 204.283 197.498 204.909L198.311 210.797C198.54 212.423 200.895 212.423 201.114 210.797L201.937 204.877C202.031 204.252 202.521 203.762 203.146 203.668Z" fill="#2E4CB7"/>
<path d="M14.8789 224.096L20.7883 223.252C22.4141 223.023 22.4037 220.667 20.7779 220.448L14.8893 219.656C14.2535 219.573 13.7637 219.073 13.6699 218.447L12.857 212.559C12.6277 210.933 10.2723 210.933 10.0534 212.559L9.23004 218.479C9.14666 219.104 8.65681 219.594 8.02106 219.688L2.11166 220.532C0.485796 220.761 0.496218 223.116 2.12208 223.335L8.01064 224.127C8.64639 224.211 9.13624 224.711 9.23004 225.336L10.043 231.225C10.2723 232.851 12.6277 232.851 12.8465 231.225L13.6699 225.305C13.7637 224.68 14.2535 224.19 14.8789 224.096Z" fill="#EE542F"/>
<path d="M187.741 192.017L190.743 191.589C191.566 191.475 191.566 190.276 190.732 190.162L187.741 189.755C187.418 189.713 187.168 189.463 187.126 189.14L186.709 186.149C186.595 185.326 185.396 185.326 185.281 186.149L184.865 189.151C184.823 189.474 184.573 189.724 184.25 189.765L181.248 190.193C180.425 190.307 180.425 191.506 181.258 191.621L184.25 192.027C184.573 192.069 184.823 192.319 184.865 192.642L185.281 195.633C185.396 196.457 186.595 196.457 186.709 195.633L187.126 192.632C187.168 192.319 187.418 192.069 187.741 192.017Z" fill="#EE542F"/>
<path d="M187.523 235.071L190.15 234.696C190.869 234.591 190.869 233.549 190.15 233.445L187.534 233.091C187.253 233.049 187.034 232.83 186.992 232.549L186.627 229.933C186.523 229.203 185.481 229.203 185.377 229.933L185.012 232.559C184.97 232.84 184.751 233.059 184.48 233.101L181.854 233.476C181.135 233.58 181.135 234.623 181.854 234.727L184.47 235.081C184.751 235.123 184.97 235.342 185.012 235.623L185.377 238.239C185.481 238.969 186.523 238.969 186.627 238.239L186.992 235.613C187.023 235.331 187.242 235.112 187.523 235.071Z" fill="#70A3C4"/>
<path d="M192.025 33.7447L186.116 32.9005C184.49 32.6712 184.5 30.3158 186.126 30.097L192.015 29.3049C192.65 29.2215 193.14 28.7212 193.234 28.0959L194.047 22.2073C194.276 20.5815 196.632 20.5815 196.85 22.2073L197.674 28.1272C197.757 28.7525 198.247 29.2423 198.883 29.3361L204.792 30.1803C206.418 30.4096 206.408 32.7651 204.782 32.9839L198.893 33.776C198.257 33.8594 197.768 34.3596 197.674 34.985L196.861 40.8735C196.632 42.4994 194.276 42.4994 194.057 40.8735L193.234 34.9537C193.14 34.3284 192.65 33.8385 192.025 33.7447Z" fill="#2E4CB7"/>
<path d="M207.43 22.1034L204.428 21.6761C203.605 21.5615 203.605 20.3629 204.439 20.2483L207.43 19.8418C207.753 19.8001 208.003 19.55 208.045 19.2269L208.462 16.2357C208.576 15.4124 209.775 15.4124 209.889 16.2357L210.306 19.2373C210.348 19.5604 210.598 19.8106 210.921 19.8522L213.923 20.2796C214.746 20.3942 214.746 21.5928 213.912 21.7074L210.921 22.1139C210.598 22.1556 210.348 22.4057 210.306 22.7288L209.889 25.72C209.775 26.5433 208.576 26.5433 208.462 25.72L208.045 22.7184C208.003 22.3953 207.753 22.1451 207.43 22.1034Z" fill="#70A3C4"/>
<path d="M20.2672 205.127L17.2656 204.7C16.4423 204.585 16.4423 203.387 17.2761 203.272L20.2672 202.866C20.5903 202.824 20.8405 202.574 20.8821 202.251L21.299 199.26C21.4137 198.436 22.6122 198.436 22.7269 199.26L23.1438 202.261C23.1855 202.584 23.4356 202.834 23.7587 202.876L26.7603 203.303C27.5836 203.418 27.5836 204.617 26.7499 204.731L23.7587 205.138C23.4356 205.179 23.1855 205.43 23.1438 205.753L22.7269 208.744C22.6122 209.567 21.4137 209.567 21.299 208.744L20.8821 205.742C20.83 205.43 20.5799 205.179 20.2672 205.127Z" fill="#70A3C4"/>
<path d="M183.375 6.05275L180.748 5.67755C180.029 5.57333 180.029 4.53111 180.748 4.42688L183.364 4.07253C183.646 4.03084 183.865 3.81197 183.906 3.53057L184.271 0.914598C184.375 0.185043 185.417 0.185043 185.522 0.914598L185.886 3.541C185.928 3.82239 186.147 4.04126 186.418 4.08295L189.044 4.45815C189.764 4.56237 189.764 5.6046 189.044 5.70882L186.428 6.06317C186.147 6.10486 185.928 6.32373 185.886 6.60513L185.522 9.2211C185.417 9.95066 184.375 9.95066 184.271 9.2211L183.906 6.59471C183.865 6.31331 183.646 6.09444 183.375 6.05275Z" fill="#EE542F"/>
<path d="M167.482 33.1297H32.9309C32.66 33.1297 32.4307 32.9108 32.4307 32.6294C32.4307 32.348 32.6495 32.1292 32.9309 32.1292H167.471C167.742 32.1292 167.972 32.348 167.972 32.6294C167.972 32.9108 167.753 33.1297 167.482 33.1297Z" fill="#373737"/>
<path d="M154.704 123.563H45.7083C45.4373 123.563 45.208 123.344 45.208 123.063C45.208 122.792 45.4269 122.563 45.7083 122.563H154.704C154.975 122.563 155.204 122.781 155.204 123.063C155.204 123.344 154.975 123.563 154.704 123.563Z" fill="#373737"/>
<path d="M134.442 138.535H45.6157C45.3949 138.535 45.208 138.316 45.208 138.035C45.208 137.764 45.3864 137.534 45.6157 137.534H134.442C134.663 137.534 134.85 137.753 134.85 138.035C134.85 138.316 134.663 138.535 134.442 138.535Z" fill="#373737"/>
<path d="M135.162 155.689H45.619C45.3964 155.689 45.208 155.509 45.208 155.278C45.208 155.055 45.3878 154.867 45.619 154.867H135.162C135.385 154.867 135.573 155.047 135.573 155.278C135.573 155.509 135.385 155.689 135.162 155.689Z" fill="#373737"/>
<path d="M154.704 128.41H45.7083C45.4373 128.41 45.208 128.191 45.208 127.909C45.208 127.639 45.4269 127.409 45.7083 127.409H154.704C154.975 127.409 155.204 127.628 155.204 127.909C155.204 128.191 154.975 128.41 154.704 128.41Z" fill="#373737"/>
<path d="M134.442 143.382H45.6157C45.3949 143.382 45.208 143.163 45.208 142.881C45.208 142.61 45.3864 142.381 45.6157 142.381H134.442C134.663 142.381 134.85 142.6 134.85 142.881C134.85 143.163 134.663 143.382 134.442 143.382Z" fill="#373737"/>
<path d="M134.442 160.532H45.6157C45.3949 160.532 45.208 160.354 45.208 160.125C45.208 159.904 45.3864 159.717 45.6157 159.717H134.442C134.663 159.717 134.85 159.895 134.85 160.125C134.85 160.354 134.663 160.532 134.442 160.532Z" fill="#373737"/>
<path d="M43.5097 29.0028C41.2272 29.0028 39.3721 27.1476 39.3721 24.8651C39.3721 22.5827 41.2272 20.7275 43.5097 20.7275C45.7922 20.7275 47.6473 22.5827 47.6473 24.8651C47.6473 27.1476 45.7922 29.0028 43.5097 29.0028ZM43.5097 21.7385C41.7796 21.7385 40.3726 23.1455 40.3726 24.8756C40.3726 26.6056 41.7796 28.0126 43.5097 28.0126C45.2398 28.0126 46.6468 26.6056 46.6468 24.8756C46.6468 23.1455 45.2398 21.7385 43.5097 21.7385Z" fill="#373737"/>
<path d="M56.2763 29.0026C53.9938 29.0026 52.1387 27.1475 52.1387 24.865C52.1387 22.5825 53.9938 20.7274 56.2763 20.7274C58.5588 20.7274 60.4139 22.5825 60.4139 24.865C60.4035 27.1475 58.5483 29.0026 56.2763 29.0026ZM56.2763 21.7383C54.5462 21.7383 53.1392 23.1453 53.1392 24.8754C53.1392 26.6055 54.5462 28.0125 56.2763 28.0125C58.0064 28.0125 59.4134 26.6055 59.4134 24.8754C59.4134 23.1453 58.0064 21.7383 56.2763 21.7383Z" fill="#373737"/>
<path d="M69.0322 29.0028C66.7497 29.0028 64.8945 27.1476 64.8945 24.8651C64.8945 22.5827 66.7497 20.7275 69.0322 20.7275C71.3146 20.7275 73.1698 22.5827 73.1698 24.8651C73.1698 27.1476 71.3146 29.0028 69.0322 29.0028ZM69.0322 21.7385C67.3021 21.7385 65.8951 23.1455 65.8951 24.8756C65.8951 26.6056 67.3021 28.0126 69.0322 28.0126C70.7622 28.0126 72.1692 26.6056 72.1692 24.8756C72.1692 23.1455 70.7622 21.7385 69.0322 21.7385Z" fill="#373737"/>
<path d="M74.7858 109.337C76.7946 109.337 78.4232 107.708 78.4232 105.699C78.4232 103.691 76.7946 102.062 74.7858 102.062C72.7769 102.062 71.1484 103.691 71.1484 105.699C71.1484 107.708 72.7769 109.337 74.7858 109.337Z" fill="white"/>
<path d="M87.5016 109.337C89.5105 109.337 91.139 107.708 91.139 105.699C91.139 103.69 89.5105 102.062 87.5016 102.062C85.4928 102.062 83.8643 103.69 83.8643 105.699C83.8643 107.708 85.4928 109.337 87.5016 109.337Z" fill="white"/>
<path d="M100.207 109.336C102.216 109.336 103.844 107.708 103.844 105.699C103.844 103.69 102.216 102.062 100.207 102.062C98.1978 102.062 96.5693 103.69 96.5693 105.699C96.5693 107.708 98.1978 109.336 100.207 109.336Z" fill="white"/>
<path d="M112.91 109.337C114.919 109.337 116.547 107.708 116.547 105.699C116.547 103.69 114.919 102.062 112.91 102.062C110.901 102.062 109.272 103.69 109.272 105.699C109.272 107.708 110.901 109.337 112.91 109.337Z" fill="white"/>
<path d="M125.625 109.336C127.634 109.336 129.262 107.708 129.262 105.699C129.262 103.69 127.634 102.062 125.625 102.062C123.616 102.062 121.987 103.69 121.987 105.699C121.987 107.708 123.616 109.336 125.625 109.336Z" fill="white"/>
<path d="M276.955 69.3053L277.862 69.149C287.523 67.5231 296.612 73.2345 298.331 82.0204L308.347 133.016L247.002 143.324L240.029 90.5041C238.674 82.4477 244.73 74.7144 253.547 73.2345L276.955 69.3053Z" fill="#70A3C4"/>
<path d="M268.169 52.0463L271.233 70.2748C272.161 75.809 268.43 81.0409 262.906 81.9685C257.372 82.8961 252.14 79.1649 251.212 73.6411L249.097 61.0198L268.169 52.0463Z" fill="#FFDAB8"/>
<path d="M271.035 43.7919L268.951 31.4103C268.44 28.3775 265.574 26.3347 262.541 26.8454L247.377 29.3988L248.503 36.1212L271.035 43.7919Z" fill="#373737"/>
<path d="M242.542 48.4816C246.192 48.4816 249.15 45.5233 249.15 41.874C249.15 38.2246 246.192 35.2663 242.542 35.2663C238.893 35.2663 235.935 38.2246 235.935 41.874C235.935 45.5233 238.893 48.4816 242.542 48.4816Z" fill="#70A3C4"/>
<path d="M258.019 65.8765C265.669 64.5946 270.828 57.3511 269.546 49.7012L267.232 35.9231L239.53 40.5818L241.844 54.36C243.125 61.9995 250.369 67.1689 258.019 65.8765Z" fill="#FFDAB8"/>
<path d="M266.54 49.0937C268.703 48.7303 269.91 45.1869 269.237 41.1792C268.564 37.1715 266.264 34.2172 264.102 34.5806C261.939 34.944 260.731 38.4874 261.405 42.4951C262.078 46.5028 264.377 49.4571 266.54 49.0937Z" fill="#373737"/>
<path d="M260.457 43.2602C264.584 43.2602 267.93 39.9146 267.93 35.7875C267.93 31.6604 264.584 28.3148 260.457 28.3148C256.33 28.3148 252.984 31.6604 252.984 35.7875C252.984 39.9146 256.33 43.2602 260.457 43.2602Z" fill="#373737"/>
<path d="M268.69 51.9744C271.375 51.5233 273.186 48.9855 272.736 46.3061C272.286 43.6268 269.744 41.8205 267.059 42.2716C264.374 42.7227 262.563 45.2605 263.013 47.9398C263.463 50.6192 266.005 52.4255 268.69 51.9744Z" fill="#FFDAB8"/>
<path d="M254.699 50.242C255.352 50.1323 255.793 49.5188 255.684 48.8717C255.576 48.2245 254.958 47.7889 254.306 47.8985C253.653 48.0082 253.212 48.6217 253.32 49.2689C253.429 49.916 254.046 50.3517 254.699 50.242Z" fill="#373737"/>
<path d="M245.046 51.8579C245.699 51.7482 246.14 51.1347 246.032 50.4876C245.923 49.8404 245.306 49.4048 244.653 49.5144C244 49.6241 243.559 50.2377 243.668 50.8848C243.776 51.5319 244.394 51.9676 245.046 51.8579Z" fill="#373737"/>
<path d="M266.274 49.4087C266.149 49.4087 266.023 49.367 265.93 49.2732C265.732 49.0856 265.721 48.773 265.909 48.575L268.848 45.49C269.036 45.292 269.348 45.2815 269.546 45.4691C269.744 45.6567 269.755 45.9694 269.567 46.1674L266.628 49.2524C266.534 49.3566 266.409 49.4087 266.274 49.4087Z" fill="#373737"/>
<path d="M251.962 59.227C251.629 59.227 251.274 59.1957 250.899 59.1227C250.628 59.0706 250.451 58.8101 250.503 58.5391C250.555 58.2681 250.816 58.0909 251.087 58.143C252.16 58.3411 252.994 58.1952 253.567 57.7157C254.485 56.9341 254.485 55.4541 254.485 55.4333C254.474 55.1623 254.693 54.933 254.974 54.9226H254.985C255.256 54.9226 255.475 55.1414 255.485 55.4124C255.485 55.4958 255.516 57.3718 254.214 58.4661C253.619 58.9768 252.869 59.227 251.962 59.227Z" fill="#373737"/>
<path d="M249.711 64.74C249.711 64.74 255.548 67.283 261.353 64.8859C261.353 64.8859 256.955 68.5754 250.128 67.2101L249.711 64.74Z" fill="#373737"/>
<path d="M375.603 352.738C306.212 352.685 235.841 352.685 166.46 352.738C166.189 352.738 165.96 352.519 165.96 352.237C165.96 351.966 166.179 351.737 166.46 351.737C235.841 351.685 306.212 351.685 375.603 351.737C375.874 351.737 376.103 351.956 376.103 352.237C376.093 352.519 375.874 352.738 375.603 352.738Z" fill="#373737"/>
<path d="M247.377 29.3985L235.683 31.3683C233.755 31.6914 232.233 33.1817 231.869 35.1098C231.108 39.1328 230.931 45.8135 237.007 48.8776L244.323 47.6478C244.323 47.6478 242.729 44.8025 243.833 42.5617C243.833 42.5617 244.344 46.8661 246.293 47.3143L248.534 46.9391C248.534 46.9391 247.012 42.051 249.055 40.7795L257.841 39.2996L256.371 30.5449L247.377 29.3985Z" fill="#373737"/>
<path d="M146.594 137.133L137.162 137.8C135.86 137.894 134.849 138.978 134.849 140.291C134.849 141.667 135.964 142.782 137.34 142.782H146.594V137.133Z" fill="#FFDAB8"/>
<path d="M93.8901 232.945H60.8725C59.0903 232.945 57.6416 231.496 57.6416 229.714V181.511C57.6416 179.729 59.0903 178.28 60.8725 178.28H93.8901C95.6723 178.28 97.121 179.729 97.121 181.511V229.714C97.1314 231.485 95.6723 232.945 93.8901 232.945ZM60.8725 179.26C59.6322 179.26 58.6317 180.26 58.6317 181.5V229.703C58.6317 230.943 59.6322 231.944 60.8725 231.944H93.8901C95.1303 231.944 96.1309 230.943 96.1309 229.703V181.5C96.1309 180.26 95.1303 179.26 93.8901 179.26H60.8725Z" fill="#373737"/>
<path d="M140.456 204.013H105.594C104.593 204.013 103.78 203.2 103.78 202.199V180.583C103.78 179.583 104.593 178.77 105.594 178.77H140.456C141.457 178.77 142.27 179.583 142.27 180.583V202.199C142.27 203.2 141.457 204.013 140.456 204.013Z" fill="#70A3C4"/>
<path d="M140.456 232.444H105.594C104.593 232.444 103.78 231.631 103.78 230.63V213.142C103.78 212.141 104.593 211.328 105.594 211.328H140.456C141.457 211.328 142.27 212.141 142.27 213.142V230.63C142.27 231.631 141.457 232.444 140.456 232.444Z" fill="white"/>
<path d="M150.816 152.943C150.743 152.943 150.659 152.922 150.586 152.891C146.501 150.786 144.156 144.803 143.624 143.282H140.727C140.456 143.282 140.227 143.063 140.227 142.782C140.227 142.511 140.445 142.281 140.727 142.281H143.979C144.197 142.281 144.385 142.417 144.448 142.625C144.468 142.698 146.813 149.827 151.045 152.005C151.285 152.13 151.389 152.433 151.264 152.672C151.17 152.849 150.993 152.943 150.816 152.943Z" fill="#373737"/>
<path d="M244.418 124.251C244.157 124.251 243.938 124.053 243.917 123.793L242.041 97.633C242.021 97.362 242.229 97.1223 242.5 97.1014C242.771 97.0806 243.011 97.289 243.032 97.56L244.908 123.72C244.928 123.991 244.72 124.23 244.449 124.251C244.439 124.251 244.428 124.251 244.418 124.251Z" fill="#373737"/>
<path d="M271.379 194.664C271.161 194.664 270.963 194.518 270.9 194.299L258.727 148.764C258.654 148.504 258.81 148.222 259.081 148.16C259.342 148.087 259.623 148.243 259.686 148.514L271.859 194.049C271.932 194.309 271.776 194.591 271.505 194.653C271.463 194.653 271.421 194.664 271.379 194.664Z" fill="#373737"/>
<path d="M303.594 133.819L247.377 148.629L249.837 142.855L303.594 133.819Z" fill="#373737"/>
<path d="M269.578 77.5385L278.541 69.5967C285.118 66.5951 292.882 68.3252 297.572 73.8177L332.747 115.006C337.156 120.165 338.688 127.19 336.843 133.714L317.812 185.7L293.174 179.958L306.4 129.556L269.578 77.5385Z" fill="#70A3C4"/>
<path d="M296.571 180.792L294.351 190.912L303.491 204.033C303.491 204.033 306.899 208.046 307.91 202.085C307.91 202.085 313.34 205.326 312.704 199.969C314.163 201.084 317.332 202.137 316.904 197.936L312.715 191.61L314.757 184.992L296.571 180.792Z" fill="#FFDAB8"/>
<path d="M312.714 200.458C312.557 200.458 312.401 200.385 312.307 200.239L307.69 193.548C307.534 193.319 307.586 193.017 307.815 192.86C308.045 192.704 308.347 192.756 308.503 192.985L313.12 199.676C313.277 199.906 313.224 200.208 312.995 200.364C312.901 200.437 312.808 200.458 312.714 200.458Z" fill="#373737"/>
<path d="M307.91 202.584C307.754 202.584 307.608 202.511 307.504 202.376L302.699 195.758C302.543 195.539 302.585 195.226 302.814 195.059C303.033 194.903 303.345 194.945 303.512 195.174L308.317 201.792C308.473 202.011 308.431 202.324 308.202 202.491C308.119 202.553 308.015 202.584 307.91 202.584Z" fill="#373737"/>
<path d="M305.368 134.027C305.222 134.027 305.086 133.965 304.982 133.85L278.843 102.656C278.666 102.448 278.697 102.135 278.906 101.958C279.114 101.781 279.427 101.812 279.604 102.02L305.534 132.974L312.58 131.171C312.84 131.098 313.122 131.265 313.184 131.526C313.257 131.797 313.09 132.068 312.83 132.13L305.482 134.006C305.451 134.017 305.409 134.027 305.368 134.027Z" fill="#373737"/>
<path d="M89.5438 193.423H64.6243C64.3533 193.423 64.124 193.204 64.124 192.923V185.534C64.124 185.263 64.3429 185.033 64.6243 185.033H89.5438C89.8148 185.033 90.0441 185.252 90.0441 185.534V192.923C90.0337 193.194 89.8148 193.423 89.5438 193.423ZM65.1246 192.423H89.0436V186.034H65.1246V192.423Z" fill="#373737"/>
<path d="M89.5438 205.648H64.6243C64.3533 205.648 64.124 205.429 64.124 205.148V197.759C64.124 197.488 64.3429 197.258 64.6243 197.258H89.5438C89.8148 197.258 90.0441 197.477 90.0441 197.759V205.148C90.0337 205.429 89.8148 205.648 89.5438 205.648ZM65.1246 204.648H89.0436V198.259H65.1246V204.648Z" fill="#373737"/>
<path d="M88.7203 211.819H66.052C65.781 211.819 65.5518 211.6 65.5518 211.319C65.5518 211.037 65.7706 210.818 66.052 210.818H88.7203C88.9913 210.818 89.2206 211.037 89.2206 211.319C89.2206 211.6 88.9913 211.819 88.7203 211.819Z" fill="#373737"/>
<path d="M88.7203 216.676H66.052C65.781 216.676 65.5518 216.457 65.5518 216.176C65.5518 215.894 65.7706 215.675 66.052 215.675H88.7203C88.9913 215.675 89.2206 215.894 89.2206 216.176C89.2206 216.457 88.9913 216.676 88.7203 216.676Z" fill="#373737"/>
<path d="M88.7203 220.845H66.052C65.781 220.845 65.5518 220.626 65.5518 220.344C65.5518 220.073 65.7706 219.844 66.052 219.844H88.7203C88.9913 219.844 89.2206 220.063 89.2206 220.344C89.2102 220.626 88.9913 220.845 88.7203 220.845Z" fill="#373737"/>
<path d="M88.7203 225.702H66.052C65.781 225.702 65.5518 225.483 65.5518 225.201C65.5518 224.93 65.7706 224.701 66.052 224.701H88.7203C88.9913 224.701 89.2206 224.92 89.2206 225.201C89.2102 225.472 88.9913 225.702 88.7203 225.702Z" fill="#373737"/>
<path d="M137.976 219.958H108.064C107.793 219.958 107.563 219.74 107.563 219.458C107.563 219.177 107.782 218.958 108.064 218.958H137.976C138.246 218.958 138.476 219.177 138.476 219.458C138.476 219.74 138.246 219.958 137.976 219.958Z" fill="#373737"/>
<path d="M137.976 224.805H108.064C107.793 224.805 107.563 224.586 107.563 224.304C107.563 224.033 107.782 223.804 108.064 223.804H137.976C138.246 223.804 138.476 224.023 138.476 224.304C138.476 224.586 138.246 224.805 137.976 224.805Z" fill="#373737"/>
<path d="M137.976 189.452H108.064C107.793 189.452 107.563 189.233 107.563 188.952C107.563 188.671 107.782 188.452 108.064 188.452H137.976C138.246 188.452 138.476 188.671 138.476 188.952C138.476 189.233 138.246 189.452 137.976 189.452Z" fill="white"/>
<path d="M137.976 194.309H108.064C107.793 194.309 107.563 194.09 107.563 193.809C107.563 193.538 107.782 193.309 108.064 193.309H137.976C138.246 193.309 138.476 193.528 138.476 193.809C138.476 194.09 138.246 194.309 137.976 194.309Z" fill="white"/>
<path d="M209.503 134.027C209.325 134.027 209.159 133.933 209.075 133.777L206.501 129.274C206.365 129.035 206.449 128.732 206.689 128.597C206.928 128.461 207.23 128.545 207.366 128.784L209.94 133.287C210.076 133.527 209.992 133.829 209.753 133.964C209.68 134.006 209.586 134.027 209.503 134.027Z" fill="#373737"/>
<path d="M104.701 91.3317L94.057 93.9711C93.4166 93.3318 92.8843 92.5911 92.4812 91.7784C92.0773 90.9622 91.8705 90.0613 91.8775 89.1491C91.8775 88.134 92.1673 87.2853 92.7468 86.6296C93.3264 85.9738 94.3387 85.4621 95.7877 85.0947L103.282 83.1232C108.062 81.8807 111.738 80.0359 114.308 77.5887C116.879 75.1415 118.164 71.9452 118.164 67.9996C118.164 64.494 116.915 61.4804 114.417 58.9588C111.919 56.4372 108.028 55.177 102.745 55.1784C99.779 55.1902 96.832 55.6522 94.0026 56.5488C91.0685 57.4624 88.7327 58.6495 86.9953 60.1099C86.2307 59.5599 85.5998 58.8421 85.1499 58.0106C84.7131 57.2013 84.4887 56.2927 84.4978 55.3713C84.4978 53.253 86.2359 51.3905 89.7121 49.7839C93.1882 48.1773 97.6411 47.3733 103.071 47.3719C107.851 47.3719 112.051 48.2517 115.671 50.0113C119.29 51.7709 122.114 54.1815 124.143 57.2432C126.17 60.3103 127.184 63.8531 127.184 67.8717C127.184 74.01 125.32 78.9781 121.591 82.7761C117.863 86.5741 112.233 89.4259 104.701 91.3317ZM92.8616 110.946C92.8616 109.187 93.423 107.707 94.546 106.508C95.6689 105.309 97.1347 104.706 98.9432 104.699C100.821 104.699 102.324 105.302 103.451 106.508C104.571 107.705 105.177 109.301 105.135 110.946C105.135 112.698 104.574 114.159 103.451 115.33C102.328 116.5 100.825 117.085 98.9432 117.082C97.1347 117.082 95.6689 116.498 94.546 115.33C93.423 114.162 92.8616 112.7 92.8616 110.946Z" fill="#EE542F"/>
</svg>
