<svg width="381" height="353" viewBox="0 0 381 353" fill="none" xmlns="http://www.w3.org/2000/svg">
<path d="M11.3779 349.638H380.833" stroke="#373737" stroke-width="1.3318" stroke-miterlimit="10"/>
<path d="M353.581 147.231C364.583 147.231 373.502 138.312 373.502 127.309C373.502 116.307 364.583 107.388 353.581 107.388C342.578 107.388 333.659 116.307 333.659 127.309C333.659 138.312 342.578 147.231 353.581 147.231Z" fill="#EE542F"/>
<path d="M343.145 116.96C337.367 122.739 337.367 132.053 343.145 137.744C348.923 143.523 358.237 143.523 363.929 137.744C369.707 131.966 369.707 122.652 363.929 116.96C358.237 111.182 348.923 111.182 343.145 116.96Z" fill="white"/>
<path d="M358.238 129.379C358.238 128.258 357.807 127.396 357.03 126.878C356.599 126.619 356.254 126.447 355.909 126.274C355.564 126.188 355.047 125.93 354.357 125.757C353.581 125.498 353.063 125.326 352.805 125.153C352.46 124.981 352.287 124.722 352.287 124.463C352.287 123.946 352.805 123.601 353.84 123.601C354.53 123.601 355.219 123.773 355.823 124.032C356.427 124.291 357.117 124.118 357.462 123.515C357.807 122.911 357.548 122.049 356.944 121.79C356.254 121.445 355.564 121.273 354.874 121.1V119.634C354.874 118.944 354.271 118.34 353.581 118.34C352.891 118.34 352.287 118.944 352.287 119.634V121.186C351.597 121.359 351.08 121.617 350.562 121.962C349.7 122.652 349.269 123.515 349.269 124.636C349.269 125.757 349.7 126.533 350.562 127.137C350.994 127.396 351.425 127.654 351.77 127.741C352.115 127.913 352.632 128.086 353.236 128.258C353.926 128.43 354.357 128.689 354.702 128.948C355.047 129.207 355.219 129.465 355.219 129.724C355.219 129.983 355.133 130.242 354.874 130.414C354.616 130.587 354.271 130.673 353.84 130.673C352.805 130.673 351.856 130.414 350.907 129.897C350.304 129.552 349.614 129.724 349.269 130.242C348.838 130.845 349.01 131.708 349.614 132.053C350.045 132.311 350.562 132.484 351.08 132.656C351.511 132.829 351.942 132.915 352.374 133.001C352.374 133.087 352.287 133.174 352.287 133.26V134.985C352.287 135.675 352.891 136.278 353.581 136.278C354.271 136.278 354.874 135.675 354.874 134.985V133.26C354.874 133.174 354.874 133.174 354.874 133.087C355.737 132.915 356.427 132.656 357.03 132.139C357.807 131.449 358.238 130.5 358.238 129.379Z" fill="#EE542F"/>
<path d="M110.727 261.5H121.076C128.665 261.5 134.788 255.377 134.788 247.788V184.487C134.788 176.898 140.912 170.775 148.501 170.775H103.138C95.549 170.775 89.4259 176.898 89.4259 184.487V247.788C89.4259 255.377 83.3028 261.5 75.7136 261.5H71.4878H110.727Z" fill="#D7D7D7"/>
<path opacity="0.55" d="M123.318 186.643H99.2572C98.3086 186.643 97.6187 185.867 97.6187 185.005C97.6187 184.056 98.3948 183.366 99.2572 183.366H123.318C124.267 183.366 124.957 184.142 124.957 185.005C125.043 185.953 124.267 186.643 123.318 186.643Z" fill="white"/>
<path opacity="0.55" d="M123.318 199.665H99.2572C98.3086 199.665 97.6187 198.889 97.6187 198.026C97.6187 197.078 98.3948 196.388 99.2572 196.388H123.318C124.267 196.388 124.957 197.164 124.957 198.026C125.043 198.975 124.267 199.665 123.318 199.665Z" fill="white"/>
<path opacity="0.55" d="M123.318 212.688H99.2572C98.3086 212.688 97.6187 211.912 97.6187 211.049C97.6187 210.101 98.3948 209.411 99.2572 209.411H123.318C124.267 209.411 124.957 210.187 124.957 211.049C125.043 211.998 124.267 212.688 123.318 212.688Z" fill="white"/>
<path opacity="0.55" d="M123.318 225.71H99.2572C98.3086 225.71 97.6187 224.934 97.6187 224.071C97.6187 223.123 98.3948 222.433 99.2572 222.433H123.318C124.267 222.433 124.957 223.209 124.957 224.071C125.043 225.02 124.267 225.71 123.318 225.71Z" fill="white"/>
<path opacity="0.55" d="M123.318 238.733H99.2572C98.3086 238.733 97.6187 237.957 97.6187 237.094C97.6187 236.145 98.3948 235.456 99.2572 235.456H123.318C124.267 235.456 124.957 236.232 124.957 237.094C125.043 238.043 124.267 238.733 123.318 238.733Z" fill="white"/>
<path d="M78.3869 261.414H74.1611C66.5719 261.414 60.4488 255.291 60.4488 247.702V222.864C60.4488 215.275 48.2889 209.152 40.6997 209.152H86.0623C93.6515 209.152 99.7746 215.275 99.7746 222.864V247.616C99.7746 255.205 105.898 261.328 113.487 261.328H123.75H78.3869V261.414Z" fill="#F0F0F0"/>
<path d="M53.2046 299.964H57.4304C65.0196 299.964 71.1427 293.841 71.1427 286.251V222.864C71.1427 215.275 77.2658 209.152 84.8549 209.152H39.5786C31.9894 209.152 25.8663 215.275 25.8663 222.864V286.165C25.8663 293.754 19.7432 299.877 12.154 299.877H7.92822H53.2046V299.964Z" fill="#D7D7D7"/>
<path d="M45.5291 286.252C45.5291 293.841 51.6522 299.964 59.2414 299.964H63.4672H18.1046H13.8788C6.2896 299.964 0.166504 293.841 0.166504 286.252H45.5291Z" fill="#F0F0F0"/>
<path opacity="0.55" d="M60.1905 226.574H36.1293C35.1806 226.574 34.4907 225.797 34.4907 224.935C34.4907 223.986 35.2669 223.296 36.1293 223.296H60.1905C61.1391 223.296 61.829 224.073 61.829 224.935C61.829 225.797 61.1391 226.574 60.1905 226.574Z" fill="white"/>
<path opacity="0.55" d="M60.1905 239.595H36.1293C35.1806 239.595 34.4907 238.819 34.4907 237.957C34.4907 237.008 35.2669 236.318 36.1293 236.318H60.1905C61.1391 236.318 61.829 237.095 61.829 237.957C61.829 238.819 61.1391 239.595 60.1905 239.595Z" fill="white"/>
<path opacity="0.55" d="M60.1905 252.618H36.1293C35.1806 252.618 34.4907 251.842 34.4907 250.98C34.4907 250.031 35.2669 249.341 36.1293 249.341H60.1905C61.1391 249.341 61.829 250.117 61.829 250.98C61.829 251.842 61.1391 252.618 60.1905 252.618Z" fill="white"/>
<path opacity="0.55" d="M60.1905 265.64H36.1293C35.1806 265.64 34.4907 264.864 34.4907 264.002C34.4907 263.053 35.2669 262.363 36.1293 262.363H60.1905C61.1391 262.363 61.829 263.139 61.829 264.002C61.829 264.864 61.1391 265.64 60.1905 265.64Z" fill="white"/>
<path opacity="0.55" d="M60.1905 278.663H36.1293C35.1806 278.663 34.4907 277.887 34.4907 277.025C34.4907 276.076 35.2669 275.386 36.1293 275.386H60.1905C61.1391 275.386 61.829 276.162 61.829 277.025C61.829 277.887 61.1391 278.663 60.1905 278.663Z" fill="white"/>
<path d="M334.263 82.7237H254.836C251.041 82.7237 247.85 79.6191 247.85 75.7382V28.8233C247.85 25.0287 250.955 21.8378 254.836 21.8378H334.263C338.058 21.8378 341.249 24.9424 341.249 28.8233V75.7382C341.163 79.6191 338.058 82.7237 334.263 82.7237Z" fill="#D7D7D7"/>
<path d="M332.108 72.2027H291.661C291.23 72.2027 290.885 71.8577 290.885 71.4265V70.3916C290.885 69.9604 291.23 69.6155 291.661 69.6155H332.108C332.539 69.6155 332.884 69.9604 332.884 70.3916V71.4265C332.97 71.7715 332.625 72.2027 332.108 72.2027Z" fill="white"/>
<path d="M271.307 72.2027H258.199C257.767 72.2027 257.422 71.8577 257.422 71.4265V70.3916C257.422 69.9604 257.767 69.6155 258.199 69.6155H271.307C271.738 69.6155 272.083 69.9604 272.083 70.3916V71.4265C272.083 71.7715 271.738 72.2027 271.307 72.2027Z" fill="white"/>
<path d="M259.029 51.7459V58.6007H258.199V52.6162H258.159L256.485 53.7274V52.8839L258.199 51.7459H259.029ZM261.001 58.6007V57.9982L263.263 55.5214C263.529 55.2313 263.747 54.9792 263.919 54.765C264.091 54.5485 264.218 54.3455 264.301 54.1558C264.386 53.9639 264.428 53.7631 264.428 53.5534C264.428 53.3124 264.37 53.1037 264.254 52.9275C264.14 52.7512 263.984 52.6151 263.785 52.5191C263.587 52.4232 263.364 52.3752 263.116 52.3752C262.853 52.3752 262.623 52.4299 262.426 52.5392C262.232 52.6463 262.082 52.7969 261.975 52.991C261.87 53.1852 261.817 53.4128 261.817 53.6738H261.027C261.027 53.2722 261.12 52.9196 261.305 52.6162C261.49 52.3127 261.742 52.0762 262.062 51.9066C262.383 51.737 262.743 51.6522 263.143 51.6522C263.544 51.6522 263.9 51.737 264.21 51.9066C264.521 52.0762 264.764 52.3049 264.94 52.5927C265.116 52.8806 265.204 53.2008 265.204 53.5534C265.204 53.8055 265.159 54.0521 265.067 54.2931C264.978 54.5318 264.822 54.7985 264.599 55.093C264.378 55.3853 264.071 55.7423 263.678 56.1641L262.139 57.8108V57.8644H265.325V58.6007H261.001ZM269.023 58.6944C268.582 58.6944 268.188 58.6186 267.842 58.4668C267.498 58.3151 267.225 58.1042 267.022 57.8342C266.821 57.562 266.712 57.2463 266.694 56.887H267.537C267.555 57.1079 267.631 57.2987 267.765 57.4594C267.899 57.6178 268.074 57.7405 268.29 57.8275C268.507 57.9146 268.747 57.9581 269.01 57.9581C269.305 57.9581 269.566 57.9068 269.793 57.8041C270.021 57.7015 270.199 57.5587 270.329 57.3757C270.458 57.1927 270.523 56.9807 270.523 56.7397C270.523 56.4876 270.46 56.2656 270.335 56.0737C270.211 55.8796 270.028 55.7278 269.787 55.6185C269.546 55.5091 269.251 55.4545 268.903 55.4545H268.354V54.7181H268.903C269.175 54.7181 269.414 54.669 269.619 54.5709C269.827 54.4727 269.988 54.3343 270.105 54.1558C270.223 53.9773 270.282 53.7676 270.282 53.5266C270.282 53.2945 270.231 53.0926 270.128 52.9208C270.025 52.7489 269.88 52.6151 269.693 52.5191C269.508 52.4232 269.289 52.3752 269.037 52.3752C268.8 52.3752 268.577 52.4187 268.367 52.5057C268.16 52.5905 267.99 52.7144 267.859 52.8772C267.727 53.0379 267.656 53.232 267.644 53.4596H266.841C266.855 53.1004 266.963 52.7858 267.166 52.5158C267.369 52.2435 267.634 52.0316 267.962 51.8798C268.293 51.7281 268.655 51.6522 269.05 51.6522C269.474 51.6522 269.838 51.7381 270.141 51.9099C270.445 52.0795 270.678 52.3038 270.841 52.5827C271.004 52.8616 271.085 53.1629 271.085 53.4864C271.085 53.8724 270.984 54.2016 270.781 54.4738C270.58 54.746 270.306 54.9346 269.961 55.0394V55.093C270.393 55.1644 270.732 55.3485 270.975 55.6453C271.218 55.9398 271.34 56.3046 271.34 56.7397C271.34 57.1124 271.238 57.4471 271.035 57.7439C270.834 58.0384 270.56 58.2705 270.212 58.44C269.864 58.6096 269.467 58.6944 269.023 58.6944ZM272.548 57.1949V56.5121L275.56 51.7459H276.056V52.8036H275.721L273.445 56.405V56.4586H277.502V57.1949H272.548ZM275.774 58.6007V56.9874V56.6695V51.7459H276.564V58.6007H275.774ZM286.2 58.6944C285.807 58.6944 285.453 58.6163 285.139 58.4601C284.824 58.3039 284.572 58.0897 284.382 57.8175C284.193 57.5453 284.089 57.2351 284.071 56.887H284.874C284.905 57.1972 285.046 57.4538 285.296 57.6568C285.548 57.8577 285.849 57.9581 286.2 57.9581C286.481 57.9581 286.731 57.8922 286.949 57.7606C287.17 57.6289 287.343 57.4482 287.468 57.2184C287.595 56.9863 287.659 56.7241 287.659 56.4318C287.659 56.1328 287.593 55.8662 287.461 55.6319C287.332 55.3953 287.154 55.209 286.926 55.0729C286.698 54.9368 286.438 54.8676 286.146 54.8654C285.936 54.8632 285.721 54.8955 285.5 54.9625C285.279 55.0272 285.097 55.1108 284.955 55.2135L284.178 55.1198L284.593 51.7459H288.154V52.4823H285.289L285.048 54.5039H285.088C285.229 54.3923 285.405 54.2997 285.617 54.2261C285.829 54.1525 286.05 54.1157 286.28 54.1157C286.699 54.1157 287.073 54.2161 287.401 54.4169C287.731 54.6155 287.99 54.8877 288.178 55.2336C288.367 55.5794 288.462 55.9744 288.462 56.4184C288.462 56.8558 288.364 57.2463 288.168 57.5899C287.974 57.9313 287.706 58.2013 287.364 58.3999C287.023 58.5962 286.635 58.6944 286.2 58.6944ZM292.068 58.6944C291.787 58.69 291.506 58.6364 291.224 58.5338C290.943 58.4311 290.687 58.2582 290.455 58.015C290.223 57.7695 290.036 57.4382 289.896 57.0209C289.755 56.6014 289.685 56.0748 289.685 55.4411C289.685 54.8342 289.742 54.2964 289.855 53.8278C289.969 53.357 290.134 52.9609 290.351 52.6396C290.567 52.3161 290.828 52.0706 291.134 51.9033C291.442 51.7359 291.789 51.6522 292.175 51.6522C292.559 51.6522 292.9 51.7292 293.199 51.8832C293.5 52.0349 293.746 52.2469 293.936 52.5191C294.125 52.7913 294.248 53.1048 294.304 53.4596H293.487C293.411 53.1517 293.264 52.8962 293.045 52.6932C292.827 52.4901 292.536 52.3886 292.175 52.3886C291.644 52.3886 291.226 52.6195 290.92 53.0814C290.616 53.5433 290.464 54.1915 290.461 55.0261H290.515C290.64 54.8364 290.788 54.6746 290.96 54.5407C291.134 54.4046 291.326 54.2997 291.536 54.2261C291.745 54.1525 291.967 54.1157 292.202 54.1157C292.594 54.1157 292.954 54.2138 293.28 54.4102C293.605 54.6043 293.866 54.8732 294.063 55.2168C294.259 55.5582 294.357 55.9498 294.357 56.3917C294.357 56.8156 294.262 57.2039 294.073 57.5564C293.883 57.9068 293.616 58.1857 293.273 58.3932C292.931 58.5985 292.53 58.6989 292.068 58.6944ZM292.068 57.9581C292.349 57.9581 292.601 57.8878 292.824 57.7472C293.05 57.6066 293.227 57.4181 293.356 57.1816C293.488 56.945 293.554 56.6817 293.554 56.3917C293.554 56.1083 293.49 55.8505 293.363 55.6185C293.238 55.3842 293.065 55.1979 292.844 55.0595C292.626 54.9212 292.376 54.852 292.095 54.852C291.883 54.852 291.685 54.8944 291.502 54.9792C291.319 55.0618 291.159 55.1756 291.02 55.3206C290.884 55.4656 290.777 55.6319 290.699 55.8193C290.621 56.0045 290.582 56.1998 290.582 56.405C290.582 56.6773 290.645 56.9316 290.773 57.1682C290.902 57.4047 291.078 57.5955 291.301 57.7405C291.527 57.8856 291.782 57.9581 292.068 57.9581ZM295.888 58.6007L298.954 52.5358V52.4823H295.419V51.7459H299.81V52.5225L296.758 58.6007H295.888ZM303.116 58.6944C302.656 58.6944 302.25 58.613 301.897 58.4501C301.547 58.285 301.274 58.0585 301.077 57.7706C300.881 57.4806 300.784 57.1503 300.786 56.7799C300.784 56.4898 300.841 56.2221 300.957 55.9766C301.073 55.7289 301.231 55.5225 301.432 55.3574C301.635 55.1901 301.862 55.0841 302.112 55.0394V54.9993C301.784 54.9145 301.522 54.7304 301.328 54.447C301.134 54.1614 301.038 53.8367 301.04 53.473C301.038 53.1249 301.126 52.8137 301.305 52.5392C301.483 52.2647 301.729 52.0483 302.041 51.8899C302.356 51.7314 302.714 51.6522 303.116 51.6522C303.513 51.6522 303.868 51.7314 304.18 51.8899C304.492 52.0483 304.738 52.2647 304.916 52.5392C305.097 52.8137 305.189 53.1249 305.191 53.473C305.189 53.8367 305.089 54.1614 304.893 54.447C304.699 54.7304 304.441 54.9145 304.12 54.9993V55.0394C304.367 55.0841 304.591 55.1901 304.789 55.3574C304.988 55.5225 305.146 55.7289 305.264 55.9766C305.383 56.2221 305.443 56.4898 305.445 56.7799C305.443 57.1503 305.343 57.4806 305.144 57.7706C304.948 58.0585 304.674 58.285 304.324 58.4501C303.976 58.613 303.573 58.6944 303.116 58.6944ZM303.116 57.9581C303.426 57.9581 303.694 57.9079 303.919 57.8075C304.144 57.707 304.318 57.5654 304.441 57.3824C304.564 57.1994 304.626 56.9852 304.629 56.7397C304.626 56.4809 304.559 56.2522 304.428 56.0536C304.296 55.855 304.116 55.6988 303.889 55.585C303.663 55.4712 303.406 55.4143 303.116 55.4143C302.823 55.4143 302.562 55.4712 302.332 55.585C302.105 55.6988 301.925 55.855 301.794 56.0536C301.664 56.2522 301.601 56.4809 301.603 56.7397C301.601 56.9852 301.66 57.1994 301.78 57.3824C301.903 57.5654 302.078 57.707 302.306 57.8075C302.533 57.9079 302.803 57.9581 303.116 57.9581ZM303.116 54.7047C303.361 54.7047 303.579 54.6556 303.768 54.5575C303.96 54.4593 304.111 54.3221 304.22 54.1458C304.33 53.9695 304.385 53.7631 304.388 53.5266C304.385 53.2945 304.331 53.0926 304.224 52.9208C304.116 52.7467 303.968 52.6128 303.778 52.5191C303.589 52.4232 303.368 52.3752 303.116 52.3752C302.859 52.3752 302.635 52.4232 302.443 52.5191C302.251 52.6128 302.103 52.7467 301.998 52.9208C301.893 53.0926 301.842 53.2945 301.844 53.5266C301.842 53.7631 301.894 53.9695 302.001 54.1458C302.11 54.3221 302.261 54.4593 302.453 54.5575C302.645 54.6556 302.866 54.7047 303.116 54.7047ZM314.212 51.6522C314.493 51.6545 314.774 51.708 315.055 51.8129C315.337 51.9178 315.593 52.0918 315.825 52.335C316.057 52.576 316.244 52.9051 316.384 53.3224C316.525 53.7397 316.595 54.2629 316.595 54.8922C316.595 55.5013 316.537 56.0424 316.421 56.5155C316.307 56.9863 316.142 57.3835 315.926 57.707C315.711 58.0306 315.45 58.276 315.142 58.4434C314.837 58.6107 314.491 58.6944 314.105 58.6944C313.721 58.6944 313.379 58.6186 313.077 58.4668C312.778 58.3129 312.533 58.0998 312.341 57.8275C312.151 57.5531 312.03 57.2351 311.976 56.8736H312.793C312.866 57.1883 313.013 57.4482 313.231 57.6535C313.452 57.8565 313.743 57.9581 314.105 57.9581C314.634 57.9581 315.051 57.7271 315.357 57.2652C315.665 56.8033 315.819 56.1507 315.819 55.3072H315.765C315.64 55.4946 315.492 55.6564 315.32 55.7925C315.148 55.9286 314.957 56.0335 314.748 56.1072C314.538 56.1808 314.315 56.2176 314.078 56.2176C313.685 56.2176 313.325 56.1205 312.997 55.9264C312.671 55.7301 312.41 55.4612 312.214 55.1198C312.02 54.7761 311.923 54.3834 311.923 53.9416C311.923 53.5221 312.016 53.1383 312.204 52.7902C312.393 52.4399 312.659 52.161 313 51.9535C313.344 51.7459 313.748 51.6455 314.212 51.6522ZM314.212 52.3886C313.931 52.3886 313.678 52.4589 313.452 52.5994C313.229 52.7378 313.052 52.9252 312.92 53.1617C312.791 53.396 312.726 53.656 312.726 53.9416C312.726 54.2272 312.788 54.4872 312.913 54.7215C313.041 54.9535 313.213 55.1387 313.432 55.2771C313.653 55.4132 313.904 55.4813 314.185 55.4813C314.397 55.4813 314.595 55.44 314.778 55.3574C314.961 55.2726 315.12 55.1577 315.256 55.0127C315.395 54.8654 315.503 54.6992 315.581 54.514C315.659 54.3265 315.698 54.1313 315.698 53.9282C315.698 53.6605 315.633 53.4094 315.504 53.1751C315.377 52.9408 315.2 52.7512 314.975 52.6061C314.752 52.4611 314.498 52.3886 314.212 52.3886ZM320.321 51.7459V58.6007H319.491V52.6162H319.451L317.777 53.7274V52.8839L319.491 51.7459H320.321ZM324.528 58.6944C324.024 58.6944 323.595 58.5572 323.24 58.2827C322.885 58.006 322.614 57.6055 322.426 57.0811C322.239 56.5545 322.145 55.9186 322.145 55.1733C322.145 54.4325 322.239 53.7999 322.426 53.2755C322.616 52.7489 322.888 52.3473 323.243 52.0706C323.6 51.7917 324.029 51.6522 324.528 51.6522C325.028 51.6522 325.456 51.7917 325.81 52.0706C326.167 52.3473 326.44 52.7489 326.627 53.2755C326.817 53.7999 326.912 54.4325 326.912 55.1733C326.912 55.9186 326.818 56.5545 326.63 57.0811C326.443 57.6055 326.172 58.006 325.817 58.2827C325.462 58.5572 325.033 58.6944 324.528 58.6944ZM324.528 57.9581C325.028 57.9581 325.417 57.7171 325.693 57.2351C325.97 56.7531 326.108 56.0659 326.108 55.1733C326.108 54.5798 326.045 54.0744 325.917 53.6571C325.792 53.2398 325.612 52.9219 325.375 52.7032C325.141 52.4845 324.859 52.3752 324.528 52.3752C324.033 52.3752 323.646 52.6195 323.367 53.1082C323.088 53.5946 322.949 54.283 322.949 55.1733C322.949 55.7669 323.011 56.2712 323.136 56.6862C323.261 57.1012 323.441 57.417 323.675 57.6334C323.911 57.8499 324.196 57.9581 324.528 57.9581ZM330.593 51.7459V58.6007H329.763V52.6162H329.723L328.05 53.7274V52.8839L329.763 51.7459H330.593ZM259.029 62.7459V69.6007H258.199V63.6162H258.159L256.485 64.7274V63.8839L258.199 62.7459H259.029ZM261.001 69.6007V68.9982L263.263 66.5214C263.529 66.2313 263.747 65.9792 263.919 65.765C264.091 65.5485 264.218 65.3455 264.301 65.1558C264.386 64.9639 264.428 64.7631 264.428 64.5534C264.428 64.3124 264.37 64.1037 264.254 63.9275C264.14 63.7512 263.984 63.6151 263.785 63.5191C263.587 63.4232 263.364 63.3752 263.116 63.3752C262.853 63.3752 262.623 63.4299 262.426 63.5392C262.232 63.6463 262.082 63.7969 261.975 63.991C261.87 64.1852 261.817 64.4128 261.817 64.6738H261.027C261.027 64.2722 261.12 63.9196 261.305 63.6162C261.49 63.3127 261.742 63.0762 262.062 62.9066C262.383 62.737 262.743 62.6522 263.143 62.6522C263.544 62.6522 263.9 62.737 264.21 62.9066C264.521 63.0762 264.764 63.3049 264.94 63.5927C265.116 63.8806 265.204 64.2008 265.204 64.5534C265.204 64.8055 265.159 65.0521 265.067 65.2931C264.978 65.5318 264.822 65.7985 264.599 66.093C264.378 66.3853 264.071 66.7423 263.678 67.1641L262.139 68.8108V68.8644H265.325V69.6007H261.001ZM269.117 62.7459V69.6007H268.287V63.6162H268.247L266.573 64.7274V63.8839L268.287 62.7459H269.117ZM273.405 69.6944C272.963 69.6944 272.569 69.6186 272.223 69.4668C271.88 69.3151 271.606 69.1042 271.403 68.8342C271.202 68.562 271.093 68.2463 271.075 67.887H271.919C271.936 68.1079 272.012 68.2987 272.146 68.4594C272.28 68.6178 272.455 68.7405 272.672 68.8275C272.888 68.9146 273.128 68.9581 273.391 68.9581C273.686 68.9581 273.947 68.9068 274.175 68.8041C274.402 68.7015 274.581 68.5587 274.71 68.3757C274.839 68.1927 274.904 67.9807 274.904 67.7397C274.904 67.4876 274.842 67.2656 274.717 67.0737C274.592 66.8796 274.409 66.7278 274.168 66.6185C273.927 66.5091 273.632 66.4545 273.284 66.4545H272.735V65.7181H273.284C273.556 65.7181 273.795 65.669 274 65.5709C274.208 65.4727 274.37 65.3343 274.486 65.1558C274.604 64.9773 274.663 64.7676 274.663 64.5266C274.663 64.2945 274.612 64.0926 274.509 63.9208C274.407 63.7489 274.262 63.6151 274.074 63.5191C273.889 63.4232 273.67 63.3752 273.418 63.3752C273.182 63.3752 272.958 63.4187 272.749 63.5057C272.541 63.5905 272.372 63.7144 272.24 63.8772C272.108 64.0379 272.037 64.232 272.026 64.4596H271.222C271.236 64.1004 271.344 63.7858 271.547 63.5158C271.75 63.2435 272.016 63.0316 272.344 62.8798C272.674 62.7281 273.037 62.6522 273.431 62.6522C273.855 62.6522 274.219 62.7381 274.523 62.9099C274.826 63.0795 275.059 63.3038 275.222 63.5827C275.385 63.8616 275.466 64.1629 275.466 64.4864C275.466 64.8724 275.365 65.2016 275.162 65.4738C274.961 65.746 274.688 65.9346 274.342 66.0394V66.093C274.775 66.1644 275.113 66.3485 275.356 66.6453C275.599 66.9398 275.721 67.3046 275.721 67.7397C275.721 68.1124 275.619 68.4471 275.416 68.7439C275.215 69.0384 274.941 69.2705 274.593 69.44C274.245 69.6096 273.849 69.6944 273.405 69.6944Z" fill="white"/>
<path d="M307.237 63.7731V66.1583H306.948V64.0759H306.935L306.352 64.4626V64.1691L306.948 63.7731H307.237ZM307.923 66.1583V65.9487L308.711 65.0868C308.803 64.9859 308.879 64.8982 308.939 64.8236C308.999 64.7483 309.043 64.6776 309.072 64.6116C309.101 64.5449 309.116 64.475 309.116 64.402C309.116 64.3182 309.096 64.2456 309.055 64.1842C309.016 64.1229 308.961 64.0755 308.892 64.0421C308.823 64.0087 308.746 63.992 308.659 63.992C308.568 63.992 308.488 64.0111 308.419 64.0491C308.352 64.0864 308.299 64.1388 308.262 64.2063C308.226 64.2739 308.207 64.3531 308.207 64.4439H307.933C307.933 64.3042 307.965 64.1815 308.029 64.0759C308.094 63.9703 308.181 63.888 308.293 63.829C308.404 63.77 308.53 63.7405 308.669 63.7405C308.808 63.7405 308.932 63.77 309.04 63.829C309.148 63.888 309.233 63.9676 309.294 64.0677C309.355 64.1679 309.386 64.2793 309.386 64.402C309.386 64.4897 309.37 64.5755 309.338 64.6594C309.307 64.7425 309.253 64.8353 309.175 64.9378C309.098 65.0395 308.992 65.1637 308.855 65.3104L308.319 65.8835V65.9021H309.428V66.1583H307.923ZM310.715 66.1909C310.561 66.1909 310.424 66.1645 310.304 66.1117C310.184 66.0589 310.089 65.9856 310.019 65.8916C309.949 65.7969 309.911 65.687 309.904 65.562H310.198C310.204 65.6389 310.231 65.7053 310.277 65.7612C310.324 65.8163 310.385 65.859 310.46 65.8893C310.535 65.9196 310.619 65.9347 310.71 65.9347C310.813 65.9347 310.904 65.9169 310.983 65.8811C311.062 65.8454 311.124 65.7957 311.169 65.7321C311.214 65.6684 311.237 65.5946 311.237 65.5108C311.237 65.423 311.215 65.3458 311.172 65.279C311.128 65.2115 311.064 65.1587 310.981 65.1206C310.897 65.0826 310.794 65.0635 310.673 65.0635H310.482V64.8073H310.673C310.768 64.8073 310.851 64.7902 310.922 64.7561C310.995 64.7219 311.051 64.6738 311.091 64.6116C311.132 64.5495 311.153 64.4765 311.153 64.3927C311.153 64.3119 311.135 64.2417 311.099 64.1819C311.064 64.1221 311.013 64.0755 310.948 64.0421C310.884 64.0087 310.807 63.992 310.72 63.992C310.637 63.992 310.56 64.0072 310.487 64.0375C310.415 64.067 310.356 64.1101 310.31 64.1667C310.264 64.2226 310.239 64.2902 310.235 64.3694H309.956C309.96 64.2444 309.998 64.1349 310.069 64.041C310.139 63.9462 310.232 63.8725 310.346 63.8197C310.461 63.7669 310.587 63.7405 310.724 63.7405C310.872 63.7405 310.998 63.7704 311.104 63.8302C311.21 63.8892 311.291 63.9672 311.347 64.0643C311.404 64.1613 311.432 64.2661 311.432 64.3787C311.432 64.513 311.397 64.6276 311.326 64.7223C311.257 64.817 311.161 64.8826 311.041 64.9191V64.9378C311.192 64.9626 311.309 65.0267 311.394 65.1299C311.479 65.2324 311.521 65.3594 311.521 65.5108C311.521 65.6404 311.486 65.7569 311.415 65.8602C311.345 65.9627 311.25 66.0434 311.128 66.1024C311.007 66.1614 310.87 66.1909 310.715 66.1909ZM311.941 65.6692V65.4316L312.99 63.7731H313.162V64.1411H313.046L312.254 65.3943V65.4129H313.665V65.6692H311.941ZM313.064 66.1583V65.597V65.4863V63.7731H313.339V66.1583H313.064ZM316.692 66.1909C316.555 66.1909 316.432 66.1638 316.323 66.1094C316.213 66.0551 316.125 65.9805 316.059 65.8858C315.993 65.7911 315.957 65.6831 315.951 65.562H316.231C316.241 65.6699 316.29 65.7592 316.377 65.8299C316.465 65.8998 316.57 65.9347 316.692 65.9347C316.79 65.9347 316.877 65.9118 316.953 65.866C317.03 65.8202 317.09 65.7573 317.133 65.6773C317.177 65.5966 317.2 65.5053 317.2 65.4036C317.2 65.2996 317.177 65.2068 317.131 65.1253C317.086 65.043 317.024 64.9781 316.945 64.9308C316.865 64.8834 316.775 64.8593 316.673 64.8586C316.6 64.8578 316.525 64.869 316.448 64.8923C316.372 64.9148 316.308 64.944 316.259 64.9797L315.988 64.9471L316.133 63.7731H317.372V64.0293H316.375L316.291 64.7328H316.305C316.354 64.694 316.415 64.6617 316.489 64.6361C316.563 64.6105 316.64 64.5977 316.72 64.5977C316.866 64.5977 316.996 64.6326 317.11 64.7025C317.225 64.7716 317.315 64.8663 317.38 64.9867C317.446 65.107 317.479 65.2445 317.479 65.399C317.479 65.5511 317.445 65.687 317.377 65.8066C317.309 65.9254 317.216 66.0193 317.097 66.0884C316.978 66.1568 316.843 66.1909 316.692 66.1909ZM318.734 66.1909C318.636 66.1894 318.538 66.1707 318.44 66.135C318.342 66.0993 318.253 66.0391 318.172 65.9545C318.092 65.8691 318.027 65.7538 317.978 65.6086C317.929 65.4626 317.905 65.2794 317.905 65.0589C317.905 64.8477 317.924 64.6606 317.964 64.4975C318.003 64.3337 318.061 64.1959 318.136 64.0841C318.212 63.9715 318.302 63.8861 318.409 63.8278C318.516 63.7696 318.637 63.7405 318.771 63.7405C318.905 63.7405 319.023 63.7673 319.127 63.8208C319.232 63.8736 319.318 63.9474 319.384 64.0421C319.45 64.1369 319.492 64.2459 319.512 64.3694H319.228C319.201 64.2622 319.15 64.1733 319.074 64.1027C318.998 64.032 318.897 63.9967 318.771 63.9967C318.586 63.9967 318.441 64.0771 318.334 64.2378C318.229 64.3985 318.175 64.6241 318.175 64.9145H318.193C318.237 64.8485 318.288 64.7922 318.348 64.7456C318.409 64.6982 318.476 64.6617 318.549 64.6361C318.622 64.6105 318.699 64.5977 318.78 64.5977C318.917 64.5977 319.042 64.6318 319.155 64.7002C319.269 64.7677 319.36 64.8613 319.428 64.9808C319.496 65.0996 319.53 65.2359 319.53 65.3896C319.53 65.5372 319.497 65.6723 319.431 65.7949C319.365 65.9169 319.273 66.0139 319.153 66.0861C319.034 66.1575 318.894 66.1925 318.734 66.1909ZM318.734 65.9347C318.832 65.9347 318.919 65.9103 318.997 65.8613C319.075 65.8124 319.137 65.7468 319.182 65.6645C319.228 65.5822 319.251 65.4906 319.251 65.3896C319.251 65.291 319.229 65.2014 319.184 65.1206C319.141 65.0391 319.081 64.9742 319.004 64.9261C318.928 64.878 318.841 64.8539 318.743 64.8539C318.669 64.8539 318.601 64.8687 318.537 64.8982C318.473 64.9269 318.417 64.9665 318.369 65.017C318.322 65.0674 318.285 65.1253 318.257 65.1905C318.23 65.2549 318.217 65.3229 318.217 65.3943C318.217 65.489 318.239 65.5775 318.283 65.6598C318.328 65.7422 318.389 65.8085 318.467 65.859C318.545 65.9095 318.634 65.9347 318.734 65.9347ZM320.063 66.1583L321.13 64.0479V64.0293H319.9V63.7731H321.428V64.0433L320.366 66.1583H320.063ZM322.578 66.1909C322.418 66.1909 322.277 66.1626 322.154 66.1059C322.032 66.0485 321.937 65.9696 321.869 65.8695C321.8 65.7686 321.767 65.6536 321.767 65.5247C321.767 65.4238 321.786 65.3306 321.827 65.2452C321.867 65.159 321.922 65.0872 321.992 65.0298C322.063 64.9715 322.142 64.9346 322.229 64.9191V64.9051C322.114 64.8756 322.024 64.8116 321.956 64.713C321.889 64.6136 321.855 64.5006 321.856 64.3741C321.855 64.2529 321.886 64.1446 321.948 64.0491C322.01 63.9536 322.095 63.8783 322.204 63.8232C322.314 63.768 322.438 63.7405 322.578 63.7405C322.716 63.7405 322.84 63.768 322.948 63.8232C323.057 63.8783 323.142 63.9536 323.205 64.0491C323.267 64.1446 323.299 64.2529 323.3 64.3741C323.299 64.5006 323.265 64.6136 323.196 64.713C323.129 64.8116 323.039 64.8756 322.927 64.9051V64.9191C323.014 64.9346 323.091 64.9715 323.16 65.0298C323.229 65.0872 323.285 65.159 323.326 65.2452C323.367 65.3306 323.388 65.4238 323.389 65.5247C323.388 65.6536 323.353 65.7686 323.284 65.8695C323.215 65.9696 323.12 66.0485 322.998 66.1059C322.877 66.1626 322.737 66.1909 322.578 66.1909ZM322.578 65.9347C322.686 65.9347 322.779 65.9172 322.858 65.8823C322.936 65.8474 322.997 65.7981 323.039 65.7344C323.082 65.6707 323.104 65.5962 323.104 65.5108C323.104 65.4207 323.08 65.3411 323.035 65.272C322.989 65.2029 322.926 65.1486 322.847 65.109C322.769 65.0694 322.679 65.0496 322.578 65.0496C322.476 65.0496 322.385 65.0694 322.305 65.109C322.226 65.1486 322.164 65.2029 322.118 65.272C322.073 65.3411 322.051 65.4207 322.052 65.5108C322.051 65.5962 322.071 65.6707 322.113 65.7344C322.156 65.7981 322.217 65.8474 322.296 65.8823C322.375 65.9172 322.469 65.9347 322.578 65.9347ZM322.578 64.8027C322.663 64.8027 322.739 64.7856 322.805 64.7514C322.872 64.7172 322.924 64.6695 322.962 64.6082C323 64.5468 323.02 64.475 323.021 64.3927C323.02 64.3119 323.001 64.2417 322.964 64.1819C322.926 64.1213 322.875 64.0747 322.809 64.0421C322.743 64.0087 322.666 63.992 322.578 63.992C322.489 63.992 322.411 64.0087 322.344 64.0421C322.277 64.0747 322.226 64.1213 322.189 64.1819C322.153 64.2417 322.135 64.3119 322.135 64.3927C322.135 64.475 322.153 64.5468 322.19 64.6082C322.228 64.6695 322.281 64.7172 322.347 64.7514C322.414 64.7856 322.491 64.8027 322.578 64.8027ZM326.439 63.7405C326.537 63.7413 326.635 63.7599 326.733 63.7964C326.831 63.8329 326.92 63.8934 327.001 63.9781C327.081 64.0619 327.146 64.1765 327.195 64.3216C327.244 64.4668 327.268 64.6489 327.268 64.8679C327.268 65.0798 327.248 65.2681 327.208 65.4327C327.168 65.5966 327.111 65.7348 327.035 65.8474C326.961 65.9599 326.87 66.0454 326.763 66.1036C326.657 66.1618 326.536 66.1909 326.402 66.1909C326.268 66.1909 326.149 66.1645 326.044 66.1117C325.94 66.0582 325.855 65.984 325.788 65.8893C325.722 65.7938 325.68 65.6831 325.661 65.5574H325.945C325.971 65.6668 326.022 65.7573 326.098 65.8287C326.175 65.8994 326.276 65.9347 326.402 65.9347C326.586 65.9347 326.731 65.8543 326.837 65.6936C326.945 65.5329 326.998 65.3058 326.998 65.0123H326.98C326.936 65.0775 326.884 65.1338 326.825 65.1812C326.765 65.2285 326.699 65.265 326.626 65.2906C326.553 65.3163 326.475 65.3291 326.393 65.3291C326.256 65.3291 326.131 65.2953 326.016 65.2278C325.903 65.1594 325.812 65.0659 325.744 64.9471C325.676 64.8275 325.643 64.6908 325.643 64.5371C325.643 64.3911 325.675 64.2576 325.74 64.1365C325.806 64.0146 325.899 63.9175 326.018 63.8453C326.137 63.7731 326.278 63.7381 326.439 63.7405ZM326.439 63.9967C326.341 63.9967 326.253 64.0212 326.175 64.0701C326.097 64.1182 326.035 64.1834 325.99 64.2657C325.945 64.3473 325.922 64.4377 325.922 64.5371C325.922 64.6365 325.944 64.727 325.987 64.8085C326.032 64.8892 326.092 64.9537 326.168 65.0018C326.245 65.0492 326.332 65.0729 326.43 65.0729C326.504 65.0729 326.572 65.0585 326.636 65.0298C326.7 65.0003 326.755 64.9603 326.803 64.9098C326.851 64.8586 326.888 64.8007 326.916 64.7363C326.943 64.671 326.956 64.6031 326.956 64.5325C326.956 64.4393 326.934 64.3519 326.889 64.2704C326.844 64.1889 326.783 64.1229 326.705 64.0724C326.627 64.0219 326.539 63.9967 326.439 63.9967ZM328.565 63.7731V66.1583H328.276V64.0759H328.262L327.68 64.4626V64.1691L328.276 63.7731H328.565ZM330.029 66.1909C329.853 66.1909 329.704 66.1432 329.581 66.0477C329.457 65.9514 329.363 65.812 329.298 65.6296C329.232 65.4463 329.2 65.225 329.2 64.9657C329.2 64.7079 329.232 64.4878 329.298 64.3053C329.364 64.1221 329.458 63.9823 329.582 63.8861C329.706 63.789 329.855 63.7405 330.029 63.7405C330.203 63.7405 330.352 63.789 330.475 63.8861C330.599 63.9823 330.694 64.1221 330.759 64.3053C330.825 64.4878 330.858 64.7079 330.858 64.9657C330.858 65.225 330.826 65.4463 330.76 65.6296C330.695 65.812 330.601 65.9514 330.477 66.0477C330.354 66.1432 330.204 66.1909 330.029 66.1909ZM330.029 65.9347C330.203 65.9347 330.338 65.8509 330.434 65.6831C330.531 65.5154 330.579 65.2763 330.579 64.9657C330.579 64.7592 330.557 64.5833 330.512 64.4381C330.469 64.2929 330.406 64.1823 330.324 64.1062C330.242 64.0301 330.144 63.992 330.029 63.992C329.857 63.992 329.722 64.0771 329.625 64.2471C329.528 64.4164 329.479 64.6559 329.479 64.9657C329.479 65.1722 329.501 65.3477 329.544 65.4921C329.588 65.6366 329.65 65.7464 329.732 65.8217C329.814 65.8971 329.913 65.9347 330.029 65.9347ZM332.139 63.7731V66.1583H331.851V64.0759H331.837L331.254 64.4626V64.1691L331.851 63.7731H332.139ZM307.237 67.7731V70.1583H306.948V68.0759H306.935L306.352 68.4626V68.1691L306.948 67.7731H307.237ZM307.923 70.1583V69.9487L308.711 69.0868C308.803 68.9859 308.879 68.8982 308.939 68.8236C308.999 68.7483 309.043 68.6776 309.072 68.6116C309.101 68.5449 309.116 68.475 309.116 68.402C309.116 68.3182 309.096 68.2456 309.055 68.1842C309.016 68.1229 308.961 68.0755 308.892 68.0421C308.823 68.0087 308.746 67.992 308.659 67.992C308.568 67.992 308.488 68.0111 308.419 68.0491C308.352 68.0864 308.299 68.1388 308.262 68.2063C308.226 68.2739 308.207 68.3531 308.207 68.4439H307.933C307.933 68.3042 307.965 68.1815 308.029 68.0759C308.094 67.9703 308.181 67.888 308.293 67.829C308.404 67.77 308.53 67.7405 308.669 67.7405C308.808 67.7405 308.932 67.77 309.04 67.829C309.148 67.888 309.233 67.9676 309.294 68.0677C309.355 68.1679 309.386 68.2793 309.386 68.402C309.386 68.4897 309.37 68.5755 309.338 68.6594C309.307 68.7425 309.253 68.8353 309.175 68.9378C309.098 69.0395 308.992 69.1637 308.855 69.3104L308.319 69.8835V69.9021H309.428V70.1583H307.923ZM310.748 67.7731V70.1583H310.459V68.0759H310.445L309.862 68.4626V68.1691L310.459 67.7731H310.748ZM312.24 70.1909C312.086 70.1909 311.949 70.1645 311.828 70.1117C311.709 70.0589 311.614 69.9856 311.543 69.8916C311.473 69.7969 311.435 69.687 311.429 69.562H311.722C311.729 69.6389 311.755 69.7053 311.802 69.7612C311.848 69.8163 311.909 69.859 311.985 69.8893C312.06 69.9196 312.143 69.9347 312.235 69.9347C312.337 69.9347 312.428 69.9169 312.507 69.8811C312.587 69.8454 312.649 69.7957 312.694 69.7321C312.739 69.6684 312.761 69.5946 312.761 69.5108C312.761 69.423 312.74 69.3458 312.696 69.279C312.653 69.2115 312.589 69.1587 312.505 69.1206C312.421 69.0826 312.319 69.0635 312.198 69.0635H312.007V68.8073H312.198C312.292 68.8073 312.375 68.7902 312.447 68.7561C312.519 68.7219 312.575 68.6738 312.616 68.6116C312.657 68.5495 312.677 68.4765 312.677 68.3927C312.677 68.3119 312.66 68.2417 312.624 68.1819C312.588 68.1221 312.538 68.0755 312.472 68.0421C312.408 68.0087 312.332 67.992 312.244 67.992C312.162 67.992 312.084 68.0072 312.011 68.0375C311.939 68.067 311.88 68.1101 311.834 68.1667C311.788 68.2226 311.764 68.2902 311.76 68.3694H311.48C311.485 68.2444 311.523 68.1349 311.593 68.041C311.664 67.9462 311.756 67.8725 311.87 67.8197C311.985 67.7669 312.111 67.7405 312.249 67.7405C312.396 67.7405 312.523 67.7704 312.629 67.8302C312.734 67.8892 312.815 67.9672 312.872 68.0643C312.929 68.1613 312.957 68.2661 312.957 68.3787C312.957 68.513 312.922 68.6276 312.851 68.7223C312.781 68.817 312.686 68.8826 312.566 68.9191V68.9378C312.716 68.9626 312.834 69.0267 312.919 69.1299C313.003 69.2324 313.046 69.3594 313.046 69.5108C313.046 69.6404 313.01 69.7569 312.94 69.8602C312.87 69.9627 312.774 70.0434 312.653 70.1024C312.532 70.1614 312.394 70.1909 312.24 70.1909Z" fill="white"/>
<path d="M269.238 41.8456H257.854C256.819 41.8456 255.957 40.9832 255.957 39.9483V35.3775C255.957 34.3426 256.819 33.4802 257.854 33.4802H269.238C270.273 33.4802 271.135 34.3426 271.135 35.3775V39.9483C271.135 40.9832 270.273 41.8456 269.238 41.8456Z" fill="white"/>
<path d="M330.813 40.2935H324.863C323.828 40.2935 322.965 39.4311 322.965 38.3962V36.8438C322.965 35.8089 323.828 34.9465 324.863 34.9465H330.813C331.848 34.9465 332.711 35.8089 332.711 36.8438V38.3962C332.797 39.4311 331.934 40.2935 330.813 40.2935Z" fill="white"/>
<path d="M316.497 213.635L324.69 148.868C324.69 148.868 326.07 132.741 301.836 126.963C277.602 121.099 255.87 123.255 255.87 123.255L181.961 162.149L175.321 209.151L316.497 213.635Z" fill="#858585"/>
<path d="M255.783 123.255L181.874 162.149L175.234 209.15L236.637 211.134L288.037 183.882C296.402 134.466 306.923 128.515 306.923 128.515C305.371 127.998 303.646 127.48 301.835 126.963C277.515 121.185 255.783 123.255 255.783 123.255Z" fill="#D7D7D7"/>
<path d="M300.974 136.967C300.974 136.967 296.317 142.314 289.59 175.344" stroke="#373737" stroke-width="1.502" stroke-miterlimit="10" stroke-linecap="round"/>
<path d="M263.372 349.551H315.375C325.293 349.551 333.313 341.53 333.313 331.613V227.261C333.313 216.826 324.862 208.289 314.341 208.289H269.668V203.028H216.802L263.372 349.551Z" fill="#858585"/>
<path d="M298.558 208.116H315.116C325.12 208.116 333.313 216.222 333.313 226.312V240.801" stroke="#373737" stroke-width="1.502" stroke-miterlimit="10" stroke-linecap="round"/>
<path d="M115.987 349.551H238.276V237.352H105.379L115.987 349.551Z" fill="#858585"/>
<path d="M112.278 349.551H88.476C85.8026 349.551 83.5603 347.395 83.5603 344.635V229.503C83.5603 229.503 82.0942 206.822 109.778 209.927L115.987 241.663V349.637H112.278V349.551Z" fill="#D7D7D7"/>
<path d="M115.986 300.049V239.508" stroke="#373737" stroke-width="1.502" stroke-miterlimit="10" stroke-linecap="round"/>
<path d="M182.22 257.445H235.086" stroke="#373737" stroke-width="1.502" stroke-miterlimit="10" stroke-linecap="round"/>
<path d="M235.086 346.446V251.581L228.359 224.674V211.825L243.624 211.911C243.624 211.911 267.771 203.2 269.668 228.383V345.153C269.668 347.136 268.116 348.775 266.132 348.775L238.363 349.551C236.552 349.637 235.086 348.257 235.086 346.446Z" fill="#D7D7D7"/>
<path d="M235.085 343.255V230.452" stroke="#373737" stroke-width="1.502" stroke-miterlimit="10" stroke-linecap="round"/>
<path d="M269.754 239.594V332.906" stroke="#373737" stroke-width="1.502" stroke-miterlimit="10" stroke-linecap="round"/>
<path d="M317.187 208.115L323.224 160.079" stroke="#373737" stroke-width="1.502" stroke-miterlimit="10" stroke-linecap="round"/>
<path d="M269.667 345.152V336.787" stroke="#373737" stroke-width="1.502" stroke-miterlimit="10" stroke-linecap="round"/>
<path d="M83.5605 318.245V275.556" stroke="#373737" stroke-width="1.502" stroke-miterlimit="10" stroke-linecap="round"/>
<path d="M144.102 314.451L147.465 326.611L130.821 343.515C130.821 343.515 128.406 349.379 132.201 349.724L164.023 340.324L169.543 330.406L172.734 338.168L177.046 336.788C178.684 336.27 179.633 334.545 179.202 332.907L172.82 308.242L144.102 314.451Z" fill="#EE542F"/>
<path d="M144.102 314.451L147.465 326.611L130.821 343.515C130.821 343.515 128.406 349.379 132.201 349.724L164.023 340.324L169.543 330.406L172.734 338.168L177.046 336.788C178.684 336.27 179.633 334.545 179.202 332.907L172.82 308.242L144.102 314.451Z" fill="#373737"/>
<path d="M106.07 308.156L98.5666 320.575C98.5666 320.575 76.0578 318.678 72.4357 319.195C68.8998 319.626 68.986 322.731 68.986 322.731L103.655 345.153L111.761 340.324L108.053 347.482L114.521 351.966C115.728 352.829 117.453 352.57 118.316 351.363L135.823 326.957L106.07 308.156Z" fill="#373737"/>
<path d="M188.084 197.337H124.956C124.956 197.337 105.983 201.218 105.379 215.534L124.352 275.557L109.691 300.308C109.691 300.308 101.326 298.928 101.757 308.242L137.116 329.889C137.116 329.889 144.274 331.096 141.169 322.127L146.258 315.745L176.269 308.76C176.269 308.76 182.651 303.327 172.82 300.222L168.335 284.957L192.138 251.668H235.086V224.503C235.086 224.503 236.207 216.482 243.537 211.998V206.478L188.084 197.337Z" fill="#2E4CB7"/>
<path opacity="0.44" d="M124.956 197.337C124.956 197.337 105.983 201.218 105.379 215.534L124.352 275.557L170.06 213.981C173.596 209.238 179.115 206.478 184.98 206.478H229.739L226.806 203.719L188.084 197.423H124.956V197.337Z" fill="#2E4CB7"/>
<path d="M264.235 128.171L278.034 133.863C278.034 133.863 284.76 141.538 293.212 164.651C301.577 187.85 302.871 198.371 302.871 198.371C302.871 198.371 302.095 216.05 289.331 218.465C289.331 218.465 273.032 214.326 256.818 207.858C256.818 207.858 248.712 207.685 243.624 211.911L188.171 197.336C188.171 197.336 188.516 191.903 194.035 192.679L192.914 170.429L184.721 180.606L165.662 195.439C165.662 195.439 152.726 199.492 145.74 193.714C138.755 187.936 143.239 177.07 144.964 174.137C146.689 171.205 193 128.947 193.604 128.171C194.208 127.395 203.263 124.722 203.263 124.722L217.838 114.028L259.492 121.789L264.235 128.171Z" fill="#70A3C4"/>
<path opacity="0.55" d="M194.035 146.972C192.31 138.261 194.121 130.845 195.156 127.395C194.38 127.654 193.862 127.999 193.69 128.085C193.086 128.861 146.775 171.119 145.05 174.051C143.325 176.983 138.841 187.85 145.826 193.628C152.812 199.406 165.748 195.353 165.748 195.353L184.807 180.519L189.809 174.31L194.035 146.972Z" fill="#70A3C4"/>
<path d="M194.466 129.724C194.466 129.724 192.569 138.693 193.69 146.368" stroke="#373737" stroke-width="1.502" stroke-miterlimit="10" stroke-linecap="round"/>
<path opacity="0.55" d="M302.785 198.457C302.785 198.457 301.578 187.85 293.126 164.737C284.761 141.538 277.948 133.949 277.948 133.949L276.74 133.432C265.529 132.138 260.441 160.598 260.441 160.598L269.668 182.761L262.338 181.123L256.474 206.391L256.732 207.944C272.946 214.326 289.245 218.551 289.245 218.551C302.009 216.137 302.785 198.457 302.785 198.457Z" fill="#70A3C4"/>
<path d="M230.688 135.933C230.688 135.933 249.661 138.692 260.613 126.791L261.907 88.0691L230.688 67.7163H216.113L204.04 98.8492L230.688 135.933Z" fill="#FFDAB8"/>
<path d="M247.936 134.467C249.488 133.949 251.126 133.346 252.679 132.656C253.369 126.015 255.87 123.342 255.87 123.342L252.506 122.652C248.625 125.325 248.022 131.448 247.936 134.467Z" fill="white"/>
<path opacity="0.33" d="M256.129 95.3134C256.129 95.3134 257.681 95.7446 257.854 97.3831C258.026 99.1079 253.973 102.989 252.075 102.471C250.178 101.954 251.903 96.262 256.129 95.3134Z" fill="#FFDAB8"/>
<path opacity="0.33" d="M239.829 112.39C239.829 112.39 237.242 119.03 227.324 119.893V115.408C227.324 115.322 236.293 115.408 239.829 112.39Z" fill="#FFDAB8"/>
<path d="M227.324 114.546C227.324 114.546 234.31 116.012 240.433 111.958" stroke="#373737" stroke-width="0.751" stroke-miterlimit="10" stroke-linecap="round"/>
<path d="M226.116 114.028C226.116 114.028 214.819 109.975 212.232 99.1082C209.645 88.2418 215.164 78.5829 215.164 78.5829C215.164 78.5829 224.047 74.702 227.669 70.3038C227.669 70.3038 236.638 85.6546 253.369 89.4492C253.369 89.4492 260.613 90.2254 260.613 96.3485C260.613 102.385 253.972 107.991 246.642 107.991L243.623 110.406V120.582L264.235 128.171C264.235 128.171 275.877 122.911 278.033 116.874C278.033 116.874 270.703 112.303 268.374 100.057C266.046 87.8106 258.371 50.4684 229.911 62.8871C229.911 62.8871 218.096 58.2301 210.421 70.4763C202.745 82.7224 202.142 92.7264 201.452 104.196C200.848 115.666 192.569 117.909 192.569 117.909C192.569 117.909 193.949 124.118 203.263 124.722L213.18 123.169L226.116 114.028Z" fill="#373737"/>
<path d="M233.274 153.698H209.558C209.04 153.698 208.523 153.267 208.523 152.664V115.063C208.523 114.545 208.954 114.028 209.558 114.028H233.274C233.791 114.028 234.309 114.459 234.309 115.063V152.75C234.309 153.267 233.878 153.698 233.274 153.698Z" fill="#F0F0F0"/>
<path d="M230.687 114.028H210.075C209.213 114.028 208.523 114.718 208.523 115.58V152.232C208.523 153.095 209.213 153.785 210.075 153.785H230.687V114.028Z" fill="white"/>
<path d="M170.319 155.682L195.415 141.453C195.415 141.453 205.246 128.172 207.316 127.223C209.386 126.274 227.583 127.223 227.583 127.223C227.583 127.223 228.445 130.414 225.427 131.276C225.427 131.276 228.186 133.863 225.427 136.537C225.427 136.537 228.014 140.849 223.271 142.487C223.271 142.487 222.839 145.851 221.028 146.282C219.131 146.713 212.146 146.455 212.146 146.455L211.369 147.489C211.369 147.489 214.043 151.888 210.938 156.717C207.834 161.46 189.637 177.587 184.807 180.606C184.721 180.606 169.888 179.312 170.319 155.682Z" fill="#FFDAB8"/>
<path d="M210.42 131.621L225.426 131.276" stroke="#373737" stroke-width="0.751" stroke-miterlimit="10" stroke-linecap="round"/>
<path d="M209.041 136.968L225.427 136.537" stroke="#373737" stroke-width="0.751" stroke-miterlimit="10" stroke-linecap="round"/>
<path d="M211.024 142.66L223.271 142.574" stroke="#373737" stroke-width="0.751" stroke-miterlimit="10" stroke-linecap="round"/>
<path d="M262.424 181.124C262.424 181.124 243.451 175.518 242.761 175.604C242.071 175.69 223.529 175.604 223.529 175.604C223.529 175.604 212.922 183.021 211.542 184.142C210.162 185.263 207.575 189.92 207.575 189.92C207.575 189.92 208.437 191.817 210.076 191.817L208.868 193.283C208.868 193.283 208.437 196.216 212.404 195.526C212.404 195.526 211.887 198.285 215.336 198.63L216.889 197.337C216.889 197.337 216.802 200.269 219.821 200.183L227.065 194.318C227.065 194.318 231.118 203.029 241.554 201.304L256.732 206.306C256.559 206.392 264.235 195.784 262.424 181.124Z" fill="#FFDAB8"/>
<path d="M210.076 191.73C210.076 191.73 217.148 184.228 223.875 181.554" stroke="#373737" stroke-width="0.751" stroke-miterlimit="10" stroke-linecap="round"/>
<path d="M212.404 195.526C212.404 195.526 219.476 188.713 224.219 185.953" stroke="#373737" stroke-width="0.751" stroke-miterlimit="10" stroke-linecap="round"/>
<path d="M216.803 197.336C216.803 197.336 222.667 191.817 226.031 189.92" stroke="#373737" stroke-width="0.751" stroke-miterlimit="10" stroke-linecap="round"/>
<path d="M215.164 119.892C215.164 118.857 214.302 117.909 213.181 117.909C212.146 117.909 211.197 118.771 211.197 119.892C211.197 120.927 212.06 121.876 213.181 121.876C214.302 121.789 215.164 120.927 215.164 119.892Z" fill="#F0F0F0"/>
<path d="M250.609 100.23C250.609 100.23 253.455 95.2277 256.991 95.1415" stroke="#373737" stroke-width="1.1265" stroke-miterlimit="10" stroke-linecap="round"/>
<path d="M255.783 98.3322C255.783 98.3322 254.748 97.2973 252.42 97.7285" stroke="#373737" stroke-width="1.1265" stroke-miterlimit="10" stroke-linecap="round"/>
<path d="M269.237 137.485C269.237 137.485 262.252 146.972 260.527 160.598L269.755 182.762" stroke="#373737" stroke-width="1.502" stroke-miterlimit="10" stroke-linecap="round"/>
<path d="M289.59 188.626L262.424 181.123C262.424 181.123 264.925 195.956 255.87 207.34L282.001 216.654" stroke="#373737" stroke-width="1.502" stroke-miterlimit="10" stroke-linecap="round"/>
<path d="M152.726 167.583L170.319 155.682C170.319 155.682 169.371 179.484 184.808 180.605L165.748 195.439" stroke="#373737" stroke-width="1.502" stroke-miterlimit="10" stroke-linecap="round"/>
<path opacity="0.44" d="M172.906 300.049L168.421 284.784L146.344 315.572L176.356 308.587C176.269 308.587 182.651 303.154 172.906 300.049Z" fill="#2E4CB7"/>
<path d="M128.406 270.124L168.767 215.706" stroke="#373737" stroke-width="1.502" stroke-miterlimit="10" stroke-linecap="round"/>
<path d="M146.258 218.466L152.726 237.353" stroke="#373737" stroke-width="1.502" stroke-miterlimit="10" stroke-linecap="round"/>
<path d="M123.749 311.26L141.169 321.954L201.796 237.352" stroke="#373737" stroke-width="1.502" stroke-miterlimit="10" stroke-linecap="round"/>
<path d="M158.503 303.844L172.906 300.049" stroke="#373737" stroke-width="1.502" stroke-miterlimit="10" stroke-linecap="round"/>
<path d="M192.137 251.582H226.03" stroke="#373737" stroke-width="1.502" stroke-miterlimit="10" stroke-linecap="round"/>
<path d="M234.356 89.1579C234.444 88.4117 235.12 87.8778 235.866 87.9654C236.612 88.0529 237.146 88.7288 237.058 89.4749L236.893 90.885C236.805 91.6311 236.129 92.165 235.383 92.0775C234.637 91.9899 234.103 91.3141 234.191 90.568L234.356 89.1579Z" fill="#373737"/>
<path d="M218.948 88.2357C219.036 87.4896 219.711 86.9557 220.458 87.0433C221.204 87.1308 221.738 87.8066 221.65 88.5528L221.485 89.9629C221.397 90.709 220.721 91.2429 219.975 91.1554C219.229 91.0678 218.695 90.392 218.783 89.6458L218.948 88.2357Z" fill="#373737"/>
<path d="M226.967 103.659C227.728 103.88 228.486 103.902 229.199 103.711C231.384 103.138 232.439 100.876 232.482 100.781C232.641 100.445 232.491 100.065 232.155 99.9063C231.819 99.7475 231.439 99.897 231.28 100.233C231.272 100.261 230.421 102.033 228.866 102.437C227.909 102.679 226.819 102.377 225.661 101.521C225.374 101.3 224.958 101.363 224.733 101.664C224.512 101.952 224.574 102.367 224.876 102.593C225.583 103.104 226.29 103.462 226.967 103.659Z" fill="#373737"/>
<path d="M151.434 139.987H46.9961V2.69171C46.9961 1.22562 48.1172 0.104492 49.5833 0.104492H148.846C150.312 0.104492 151.434 1.22562 151.434 2.69171V139.987Z" fill="#858585"/>
<path d="M52.0843 4.65796H146.345C147.46 4.65796 148.433 5.56601 148.433 6.74518V139.487H49.9971V6.74518C49.9971 5.55523 50.8943 4.65796 52.0843 4.65796Z" fill="white" stroke="#373737"/>
<path d="M86.0634 9.59097H112.453C115.471 9.59097 117.972 7.08999 117.972 4.07156C117.972 2.51923 117.282 1.13938 116.248 0.104492H82.2688C81.2339 1.13938 80.5439 2.51923 80.5439 4.07156C80.5439 7.08999 83.0449 9.59097 86.0634 9.59097Z" fill="#858585"/>
<path opacity="0.27" d="M129.787 32.876H68.6423C64.9339 32.876 61.9155 35.8944 61.9155 39.6028V133.346C61.9155 137.055 64.9339 140.073 68.6423 140.073H129.787C133.495 140.073 136.514 137.055 136.514 133.346V39.5165C136.514 35.8082 133.495 32.876 129.787 32.876Z" fill="#F0F0F0"/>
<path d="M141.515 47.6228H56.8269C55.2746 47.6228 53.981 48.9164 53.981 50.4687V98.1599C53.981 99.7122 55.2746 101.006 56.8269 101.006H141.515C143.068 101.006 144.361 99.7122 144.361 98.1599V50.4687C144.447 48.9164 143.154 47.6228 141.515 47.6228Z" fill="white"/>
<path d="M142.723 114.028H55.7058C54.7571 114.028 53.981 114.804 53.981 115.753V131.449C53.981 132.397 54.7571 133.174 55.7058 133.174H142.723C143.671 133.174 144.447 132.397 144.447 131.449V115.839C144.447 114.804 143.671 114.028 142.723 114.028Z" fill="#EE542F"/>
<path d="M140.135 47.6228H58.293C55.8783 47.6228 53.981 49.5201 53.981 51.9348V61.9388H144.447V51.9348C144.447 49.6063 142.464 47.6228 140.135 47.6228Z" fill="#858585"/>
<path d="M74.2481 101.092H118.49C124.871 95.1416 128.839 86.69 128.839 77.2897C128.839 59.3517 114.264 44.777 96.3257 44.777C78.3877 44.777 63.813 59.3517 63.813 77.2897C63.8992 86.69 67.8663 95.2278 74.2481 101.092Z" fill="#EE542F"/>
<path d="M82.9585 88.1559L85.5457 82.4641C88.3054 84.4476 92.3587 85.8274 96.2396 85.8274C100.724 85.8274 102.535 84.3614 102.535 82.3778C102.535 76.341 83.6484 80.4805 83.6484 68.4068C83.6484 62.8874 88.1329 58.3167 97.2744 58.3167C101.328 58.3167 105.554 59.2653 108.486 61.1626L106.157 66.8545C103.139 65.1297 100.034 64.2673 97.1882 64.2673C92.7037 64.2673 91.0651 65.9058 91.0651 67.9756C91.0651 73.9262 109.952 69.7867 109.952 81.6879C109.952 87.1211 105.467 91.7781 96.2396 91.7781C90.9789 91.9505 85.8044 90.3982 82.9585 88.1559Z" fill="white"/>
<path d="M99.1716 53.9192H93.5659V96.3496H99.1716V53.9192Z" fill="white"/>
<path d="M57.9484 16.5764L57.1723 16.059C56.7411 15.714 56.0511 15.8865 55.7062 16.3177L53.2914 19.2499C52.9465 19.6811 52.9465 20.1986 53.2914 20.6298L55.7062 23.5619C56.0511 23.9931 56.6548 24.0794 57.1723 23.8207L57.9484 23.3032C58.4659 22.9583 58.5521 22.1821 58.2072 21.7509L57.3447 20.716C56.9998 20.2848 56.9998 19.7674 57.3447 19.3361L58.2072 18.3013C58.5521 17.6113 58.4659 16.9214 57.9484 16.5764Z" fill="#373737"/>
<path d="M134.616 19.5946C134.616 18.5597 133.754 17.6111 132.632 17.6111C131.598 17.6111 130.649 18.4735 130.649 19.5946C130.649 20.6295 131.511 21.5782 132.632 21.5782C133.754 21.5782 134.616 20.6295 134.616 19.5946Z" fill="#373737"/>
<path d="M139.359 19.5946C139.359 18.5597 138.497 17.6111 137.376 17.6111C136.254 17.6111 135.392 18.4735 135.392 19.5946C135.392 20.6295 136.254 21.5782 137.376 21.5782C138.497 21.5782 139.359 20.6295 139.359 19.5946Z" fill="#373737"/>
<path d="M143.93 19.5946C143.93 18.5597 143.068 17.6111 141.946 17.6111C140.825 17.6111 139.963 18.4735 139.963 19.5946C139.963 20.6295 140.825 21.5782 141.946 21.5782C143.068 21.5782 143.93 20.6295 143.93 19.5946Z" fill="#373737"/>
<path d="M77.2119 127.938V119.165H81.0094C81.7949 119.165 82.4716 119.294 83.0398 119.553C83.608 119.804 84.0466 120.167 84.3558 120.643C84.6649 121.12 84.8195 121.688 84.8195 122.348C84.8195 123 84.6649 123.564 84.3558 124.04C84.0466 124.516 83.608 124.884 83.0398 125.143C82.4716 125.394 81.7949 125.519 81.0094 125.519H78.3399L79.2423 124.604V127.938H77.2119ZM79.2423 124.83L78.3399 123.864H80.8966C81.5233 123.864 81.9912 123.731 82.3004 123.463C82.6095 123.196 82.7641 122.824 82.7641 122.348C82.7641 121.863 82.6095 121.487 82.3004 121.22C81.9912 120.953 81.5233 120.819 80.8966 120.819H78.3399L79.2423 119.854V124.83Z" fill="white"/>
<path d="M84.6754 127.938L88.5857 119.165H90.591L94.5139 127.938H92.3832L89.1748 120.192H89.9769L86.7559 127.938H84.6754ZM86.6305 126.058L87.1695 124.516H91.6814L92.2328 126.058H86.6305Z" fill="white"/>
<path d="M97.0663 127.938V124.353L97.53 125.581L93.6698 119.165H95.8255L98.7833 124.09H97.5426L100.513 119.165H102.506L98.6455 125.581L99.0967 124.353V127.938H97.0663Z" fill="white"/>
<path d="M106.905 127.938V119.165H108.935V127.938H106.905Z" fill="white"/>
<path d="M112.834 127.938V120.819H110.027V119.165H117.672V120.819H114.865V127.938H112.834Z" fill="white"/>
<path d="M119.009 124.892L118.621 119.165H120.952L120.563 124.892H119.009ZM119.786 128.038C119.435 128.038 119.147 127.925 118.922 127.7C118.696 127.474 118.583 127.207 118.583 126.897C118.583 126.58 118.696 126.317 118.922 126.108C119.147 125.891 119.435 125.782 119.786 125.782C120.146 125.782 120.434 125.891 120.651 126.108C120.877 126.317 120.99 126.58 120.99 126.897C120.99 127.207 120.877 127.474 120.651 127.7C120.434 127.925 120.146 128.038 119.786 128.038Z" fill="white"/>
<path d="M194.484 41.9419L189.057 41.171C187.566 40.9579 187.566 38.7973 189.067 38.5945L194.474 37.8641C195.052 37.783 195.508 37.3367 195.59 36.7483L196.34 31.3418C196.543 29.8405 198.714 29.8405 198.917 31.3418L199.667 36.7686C199.748 37.3468 200.195 37.7931 200.773 37.8743L206.2 38.6452C207.691 38.8582 207.691 41.0188 206.19 41.2217L200.783 41.952C200.205 42.0332 199.748 42.4795 199.667 43.0678L198.917 48.4744C198.714 49.9756 196.543 49.9756 196.34 48.4744L195.59 43.0475C195.508 42.4795 195.062 42.023 194.484 41.9419Z" fill="#2E4CB7"/>
<path d="M208.634 31.2512L205.875 30.8556C205.114 30.744 205.124 29.6485 205.885 29.547L208.634 29.1717C208.928 29.1312 209.161 28.8979 209.202 28.6037L209.587 25.8548C209.689 25.094 210.794 25.094 210.896 25.8548L211.281 28.6138C211.322 28.908 211.555 29.1312 211.839 29.1819L214.598 29.5775C215.359 29.6891 215.349 30.7846 214.588 30.886L211.839 31.2613C211.545 31.3019 211.312 31.5352 211.271 31.8294L210.886 34.5783C210.784 35.3391 209.678 35.3391 209.577 34.5783L209.192 31.8192C209.151 31.5251 208.918 31.2917 208.634 31.2512Z" fill="#70A3C4"/>
<path d="M186.542 16.5226L184.128 16.1777C183.458 16.0864 183.468 15.1228 184.128 15.0315L186.532 14.7069C186.785 14.6765 186.988 14.4736 187.029 14.2099L187.364 11.8058C187.455 11.1363 188.418 11.1363 188.51 11.8058L188.845 14.22C188.875 14.4736 189.078 14.6765 189.331 14.717L191.746 15.0619C192.415 15.1532 192.405 16.1169 191.746 16.2082L189.342 16.5328C189.088 16.5632 188.885 16.7661 188.845 17.0298L188.51 19.4338C188.418 20.1033 187.455 20.1033 187.364 19.4338L187.029 17.0197C186.998 16.7559 186.795 16.553 186.542 16.5226Z" fill="#EE542F"/>
<path d="M363.151 216.413L368.578 215.642C370.069 215.429 370.069 213.268 368.568 213.065L363.162 212.335C362.583 212.254 362.127 211.808 362.046 211.219L361.295 205.813C361.092 204.311 358.921 204.311 358.719 205.813L357.968 211.24C357.887 211.818 357.441 212.264 356.862 212.345L351.435 213.116C349.944 213.329 349.944 215.49 351.446 215.693L356.852 216.423C357.43 216.504 357.887 216.95 357.968 217.539L358.719 222.945C358.921 224.447 361.092 224.447 361.295 222.945L362.046 217.518C362.127 216.95 362.573 216.494 363.151 216.413Z" fill="#2E4CB7"/>
<path d="M349.002 205.722L351.761 205.327C352.521 205.215 352.511 204.119 351.75 204.018L349.002 203.643C348.707 203.602 348.474 203.369 348.434 203.075L348.048 200.326C347.947 199.565 346.841 199.565 346.74 200.326L346.354 203.085C346.313 203.379 346.08 203.602 345.796 203.653L343.037 204.048C342.276 204.16 342.286 205.256 343.047 205.357L345.796 205.732C346.09 205.773 346.324 206.006 346.364 206.3L346.75 209.049C346.851 209.81 347.957 209.81 348.058 209.049L348.444 206.29C348.484 205.996 348.718 205.763 349.002 205.722Z" fill="#70A3C4"/>
<path d="M371.093 190.994L373.508 190.649C374.177 190.557 374.167 189.594 373.508 189.502L371.104 189.178C370.85 189.147 370.647 188.945 370.606 188.681L370.272 186.277C370.18 185.607 369.217 185.607 369.125 186.277L368.791 188.691C368.76 188.945 368.557 189.147 368.304 189.188L365.89 189.533C365.22 189.624 365.23 190.588 365.89 190.679L368.294 191.004C368.547 191.034 368.75 191.237 368.791 191.501L369.125 193.905C369.217 194.574 370.18 194.574 370.272 193.905L370.606 191.491C370.637 191.227 370.84 191.024 371.093 190.994Z" fill="#EE542F"/>
<path d="M35.5962 117.971L41.023 117.2C42.5141 116.987 42.5141 114.827 41.0129 114.624L35.6063 113.893C35.0281 113.812 34.5717 113.366 34.4905 112.778L33.7399 107.371C33.537 105.87 31.3663 105.87 31.1634 107.371L30.4128 112.798C30.3316 113.376 29.8853 113.822 29.3071 113.904L23.8803 114.674C22.3891 114.888 22.3891 117.048 23.8904 117.251L29.297 117.981C29.8752 118.062 30.3316 118.509 30.4128 119.097L31.1634 124.504C31.3663 126.005 33.537 126.005 33.7399 124.504L34.4905 119.077C34.5717 118.509 35.018 118.052 35.5962 117.971Z" fill="#2E4CB7"/>
<path d="M21.4572 107.279L24.2163 106.884C24.9771 106.772 24.9669 105.677 24.2062 105.575L21.4572 105.2C21.1631 105.159 20.9298 104.926 20.8892 104.632L20.5037 101.883C20.4023 101.122 19.2966 101.122 19.1952 101.883L18.8097 104.642C18.7692 104.936 18.5359 105.159 18.2518 105.21L15.4928 105.606C14.732 105.717 14.7421 106.813 15.5029 106.914L18.2518 107.29C18.546 107.33 18.7793 107.564 18.8199 107.858L19.2054 110.607C19.3068 111.367 20.4124 111.367 20.5139 110.607L20.8993 107.848C20.9399 107.543 21.1631 107.32 21.4572 107.279Z" fill="#EE542F"/>
<path d="M43.5375 92.5392L45.9516 92.1943C46.6211 92.103 46.611 91.1394 45.9516 91.0481L43.5476 90.7235C43.294 90.6931 43.0911 90.4902 43.0506 90.2265L42.7158 87.8224C42.6245 87.1529 41.6609 87.1529 41.5696 87.8224L41.2348 90.2366C41.2044 90.4902 41.0015 90.6931 40.748 90.7337L38.3338 91.0785C37.6643 91.1698 37.6744 92.1335 38.3338 92.2248L40.7378 92.5494C40.9914 92.5798 41.1943 92.7827 41.2348 93.0464L41.5696 95.4505C41.6609 96.1199 42.6245 96.1199 42.7158 95.4505L43.0506 93.0363C43.081 92.7827 43.2839 92.5798 43.5375 92.5392Z" fill="#70A3C4"/>
</svg>
