<svg width="417" height="354" viewBox="0 0 417 354" fill="none" xmlns="http://www.w3.org/2000/svg">
<path d="M200.297 0.719238H408.168C412.316 0.719238 415.577 3.70217 415.577 7.2637V85.898C415.577 89.4595 412.316 92.4425 408.168 92.4425H200.297C196.149 92.4425 192.888 89.4595 192.888 85.898V7.2637C192.888 3.70217 196.149 0.719238 200.297 0.719238Z" fill="white" stroke="#373737"/>
<path d="M200.735 8.14487C201.904 8.14487 202.852 7.30085 202.852 6.2597C202.852 5.21854 201.904 4.37451 200.735 4.37451C199.566 4.37451 198.619 5.21854 198.619 6.2597C198.619 7.30085 199.566 8.14487 200.735 8.14487Z" fill="#373737"/>
<path d="M208.989 8.14487C210.158 8.14487 211.105 7.30085 211.105 6.2597C211.105 5.21854 210.158 4.37451 208.989 4.37451C207.82 4.37451 206.872 5.21854 206.872 6.2597C206.872 7.30085 207.82 8.14487 208.989 8.14487Z" fill="#373737"/>
<path d="M217.237 8.14487C218.406 8.14487 219.354 7.30085 219.354 6.2597C219.354 5.21854 218.406 4.37451 217.237 4.37451C216.068 4.37451 215.121 5.21854 215.121 6.2597C215.121 7.30085 216.068 8.14487 217.237 8.14487Z" fill="#373737"/>
<path d="M402.965 16.6811H390.219C389.904 16.6811 389.602 16.5697 389.38 16.3715C389.157 16.1732 389.032 15.9044 389.032 15.624C389.032 15.3436 389.157 15.0748 389.38 14.8765C389.602 14.6783 389.904 14.5669 390.219 14.5669H402.965C403.121 14.5669 403.275 14.5942 403.419 14.6474C403.563 14.7005 403.694 14.7784 403.804 14.8765C403.915 14.9747 404.002 15.0912 404.062 15.2195C404.121 15.3477 404.152 15.4852 404.152 15.624C404.152 15.7628 404.121 15.9003 404.062 16.0285C404.002 16.1568 403.915 16.2733 403.804 16.3715C403.694 16.4697 403.563 16.5475 403.419 16.6006C403.275 16.6538 403.121 16.6811 402.965 16.6811Z" fill="white"/>
<path d="M402.965 20.228H390.219C389.904 20.228 389.602 20.1166 389.38 19.9184C389.157 19.7201 389.032 19.4512 389.032 19.1709C389.032 18.8905 389.157 18.6216 389.38 18.4234C389.602 18.2251 389.904 18.1138 390.219 18.1138H402.965C403.28 18.1138 403.582 18.2251 403.804 18.4234C404.027 18.6216 404.152 18.8905 404.152 19.1709C404.152 19.4512 404.027 19.7201 403.804 19.9184C403.582 20.1166 403.28 20.228 402.965 20.228Z" fill="white"/>
<path d="M402.966 23.7778H396.154C395.839 23.7778 395.538 23.6664 395.315 23.4682C395.092 23.2699 394.967 23.001 394.967 22.7207C394.967 22.4403 395.092 22.1714 395.315 21.9732C395.538 21.7749 395.839 21.6636 396.154 21.6636H402.966C403.281 21.6636 403.582 21.7749 403.805 21.9732C404.028 22.1714 404.153 22.4403 404.153 22.7207C404.153 23.001 404.028 23.2699 403.805 23.4682C403.582 23.6664 403.281 23.7778 402.966 23.7778Z" fill="white"/>
<path d="M65.1771 11.084V45.2022C65.1771 45.8481 64.8893 46.4676 64.3768 46.9245C63.8643 47.3815 63.1691 47.6386 62.4439 47.6394H23.4012C22.676 47.6386 21.9808 47.3815 21.4683 46.9245C20.9558 46.4676 20.668 45.8481 20.668 45.2022V2.65353C20.668 2.00791 20.9559 1.38874 21.4685 0.932225C21.9811 0.475708 22.6763 0.219238 23.4012 0.219238H53.5817L65.1771 11.084Z" fill="#70A3C4"/>
<path d="M53.5815 0.219238V8.63501C53.5815 9.28011 53.8691 9.89884 54.3809 10.3553C54.8928 10.8117 55.5871 11.0685 56.3114 11.0693H65.177L53.5815 0.219238Z" fill="#F0F0F0"/>
<path d="M57.4455 15.6118H28.3959C27.3289 15.6118 26.4639 16.3822 26.4639 17.3326V17.3355C26.4639 18.2858 27.3289 19.0562 28.3959 19.0562H57.4455C58.5125 19.0562 59.3775 18.2858 59.3775 17.3355V17.3326C59.3775 16.3822 58.5125 15.6118 57.4455 15.6118Z" fill="white"/>
<path d="M57.4455 23.0122H28.3959C27.3289 23.0122 26.4639 23.7826 26.4639 24.733V24.7359C26.4639 25.6862 27.3289 26.4566 28.3959 26.4566H57.4455C58.5125 26.4566 59.3775 25.6862 59.3775 24.7359V24.733C59.3775 23.7826 58.5125 23.0122 57.4455 23.0122Z" fill="white"/>
<path d="M41.5508 30.4146H27.8321C27.0764 30.4146 26.4639 30.9601 26.4639 31.6332V32.6404C26.4639 33.3134 27.0764 33.859 27.8321 33.859H41.5508C42.3065 33.859 42.9191 33.3134 42.9191 32.6404V31.6332C42.9191 30.9601 42.3065 30.4146 41.5508 30.4146Z" fill="white"/>
<path d="M119.65 11.084V45.2022C119.65 45.8481 119.362 46.4676 118.85 46.9245C118.337 47.3815 117.642 47.6386 116.917 47.6394H77.8772C77.1521 47.6386 76.4569 47.3815 75.9444 46.9245C75.4319 46.4676 75.144 45.8481 75.144 45.2022V2.65353C75.1449 2.00815 75.4332 1.38944 75.9455 0.933086C76.4579 0.476736 77.1526 0.220015 77.8772 0.219238H108.058L119.65 11.084Z" fill="#70A3C4"/>
<path d="M108.058 0.219238V8.63501C108.058 9.28062 108.346 9.89979 108.858 10.3563C109.371 10.8128 110.066 11.0693 110.791 11.0693H119.65L108.058 0.219238Z" fill="#F0F0F0"/>
<path d="M111.922 15.6118H82.872C81.8049 15.6118 80.9399 16.3822 80.9399 17.3326V17.3355C80.9399 18.2858 81.8049 19.0562 82.872 19.0562H111.922C112.989 19.0562 113.854 18.2858 113.854 17.3355V17.3326C113.854 16.3822 112.989 15.6118 111.922 15.6118Z" fill="white"/>
<path d="M111.922 23.0122H82.872C81.8049 23.0122 80.9399 23.7826 80.9399 24.733V24.7359C80.9399 25.6862 81.8049 26.4566 82.872 26.4566H111.922C112.989 26.4566 113.854 25.6862 113.854 24.7359V24.733C113.854 23.7826 112.989 23.0122 111.922 23.0122Z" fill="white"/>
<path d="M96.0269 30.4146H82.3082C81.5525 30.4146 80.9399 30.9601 80.9399 31.6332V32.6404C80.9399 33.3134 81.5525 33.859 82.3082 33.859H96.0269C96.7826 33.859 97.3951 33.3134 97.3951 32.6404V31.6332C97.3951 30.9601 96.7826 30.4146 96.0269 30.4146Z" fill="white"/>
<path d="M175.54 11.084V45.2022C175.54 45.8481 175.252 46.4676 174.74 46.9245C174.227 47.3815 173.532 47.6386 172.807 47.6394H133.754C133.029 47.6386 132.334 47.3815 131.821 46.9245C131.309 46.4676 131.021 45.8481 131.021 45.2022V2.65353C131.021 2.00791 131.309 1.38874 131.822 0.932225C132.334 0.475708 133.029 0.219238 133.754 0.219238H163.935L175.54 11.084Z" fill="#70A3C4"/>
<path d="M163.948 0.219238V8.63501C163.948 9.28011 164.236 9.89884 164.748 10.3553C165.259 10.8117 165.954 11.0685 166.678 11.0693H175.54L163.948 0.219238Z" fill="#F0F0F0"/>
<path d="M167.812 15.6118H138.762C137.695 15.6118 136.83 16.3822 136.83 17.3326V17.3355C136.83 18.2858 137.695 19.0562 138.762 19.0562H167.812C168.879 19.0562 169.744 18.2858 169.744 17.3355V17.3326C169.744 16.3822 168.879 15.6118 167.812 15.6118Z" fill="white"/>
<path d="M167.812 23.0122H138.762C137.695 23.0122 136.83 23.7826 136.83 24.733V24.7359C136.83 25.6862 137.695 26.4566 138.762 26.4566H167.812C168.879 26.4566 169.744 25.6862 169.744 24.7359V24.733C169.744 23.7826 168.879 23.0122 167.812 23.0122Z" fill="white"/>
<path d="M151.917 30.4146H138.198C137.443 30.4146 136.83 30.9601 136.83 31.6332V32.6404C136.83 33.3134 137.443 33.859 138.198 33.859H151.917C152.673 33.859 153.285 33.3134 153.285 32.6404V31.6332C153.285 30.9601 152.673 30.4146 151.917 30.4146Z" fill="white"/>
<path d="M235.819 187.63L302.058 193.82L315.49 189.68V184.268H235.819V187.63Z" fill="#6E99D6"/>
<path d="M324.405 352.59H314.695L303.426 189.363L313.133 184.585L324.405 352.59Z" fill="#373737"/>
<path d="M231.368 352.589H241.074L285.837 189.169L276.131 184.391L231.368 352.589Z" fill="#373737"/>
<path d="M194.903 352.501H186.176L158.333 299.249L153.972 290.898L77.4949 144.69C77.2666 144.27 77.1344 143.813 77.1059 143.347C77.0775 142.881 77.1534 142.414 77.3292 141.974C77.5051 141.534 77.7773 141.13 78.1302 140.785C78.4831 140.439 78.9095 140.16 79.3847 139.962C79.8599 139.765 80.3745 139.654 80.8984 139.635C81.4223 139.616 81.9451 139.691 82.4365 139.854C82.9279 140.017 83.378 140.265 83.7607 140.584C84.1435 140.903 84.4511 141.287 84.6658 141.713L158.337 282.538L162.699 290.889L194.903 352.501Z" fill="#595959"/>
<path d="M183.674 339.995H126.023L123.798 335.79H181.449L183.674 339.995Z" fill="#373737"/>
<path d="M202.75 247.847V253.632C202.75 255.57 200.442 257.156 197.633 257.156H74.4089C71.5834 257.156 69.292 255.57 69.292 253.632V247.847C69.292 245.901 71.5834 244.324 74.4089 244.324H197.646C200.459 244.324 202.75 245.901 202.75 247.847Z" fill="#373737"/>
<path d="M105.071 193.768C88.21 195.921 70.3371 195.979 51.4521 193.941C49.8432 193.768 47.9606 192.255 47.0968 190.461L26.3324 147.316C25.3137 145.199 26.1148 143.552 28.0436 143.837C46.8055 146.605 64.2092 146.548 80.2544 143.667C81.9029 143.373 84.2866 145.008 85.3054 147.126L106.06 190.27C106.917 192.065 106.492 193.586 105.071 193.768Z" fill="#373737"/>
<path d="M123.867 257.159L106.241 290.898L101.879 299.249L74.0662 352.501H65.3325L97.5176 290.898L101.879 282.547L115.143 257.159H123.867Z" fill="#595959"/>
<path d="M138.446 352.501H129.722L101.879 299.249L97.5173 290.898L21.0374 144.69C20.8091 144.27 20.6769 143.813 20.6484 143.347C20.62 142.881 20.6959 142.414 20.8717 141.974C21.0476 141.534 21.3198 141.13 21.6727 140.785C22.0256 140.439 22.452 140.16 22.9272 139.962C23.4024 139.765 23.9169 139.654 24.4408 139.635C24.9647 139.616 25.4876 139.691 25.979 139.854C26.4704 140.017 26.9205 140.265 27.3032 140.584C27.6859 140.903 27.9936 141.287 28.2083 141.713L101.879 282.538L106.241 290.889L138.446 352.501Z" fill="#595959"/>
<path d="M208.717 319.053L214.114 336.283L215.964 339.995L232.215 338.022L230.88 332.164L228.123 314.219L208.717 319.053Z" fill="#FFDAB8"/>
<path d="M230.049 326.767L212.469 331.036L208.717 319.053L228.123 314.219L230.049 326.767Z" fill="#FFDAB8"/>
<path d="M134.977 317.347L129.88 336.284L129.623 339.995L145.874 338.022L146.645 332.164L151.845 314.93L134.977 317.347Z" fill="#FFDAB8"/>
<path d="M148.063 327.463L131.951 328.585L134.978 317.347L151.845 314.93L148.063 327.463Z" fill="#FFDAB8"/>
<path d="M106.699 196.572L108.677 244.324L185.893 247.281L208.342 322.99C208.446 323.374 208.692 323.716 209.041 323.961C209.389 324.205 209.82 324.338 210.264 324.338H229.211C229.493 324.34 229.772 324.288 230.029 324.187C230.287 324.085 230.517 323.935 230.704 323.748C230.891 323.561 231.032 323.34 231.115 323.1C231.199 322.861 231.224 322.608 231.19 322.359L219.917 238.363C219.536 234.864 218.062 231.531 215.664 228.74C213.265 225.949 210.036 223.812 206.344 222.571L151.442 204.659L149.632 196.592L106.699 196.572Z" fill="#70A3C4"/>
<path d="M78.1348 196.572L74.9038 218.983C74.4465 222.15 74.7524 225.367 75.801 228.421C76.8496 231.474 78.6168 234.294 80.9849 236.692C83.3531 239.089 86.2677 241.01 89.5346 242.325C92.8016 243.641 96.3458 244.321 99.9311 244.321L148.608 247.507L128.809 322.268C128.761 322.52 128.776 322.779 128.851 323.026C128.927 323.272 129.062 323.502 129.247 323.697C129.432 323.893 129.663 324.05 129.923 324.158C130.184 324.266 130.467 324.323 130.755 324.324H152.96C153.396 324.324 153.82 324.195 154.166 323.958C154.512 323.721 154.76 323.389 154.872 323.014L182.039 249.192C183.654 243.785 182.958 238.036 180.084 233.06C177.211 228.083 172.365 224.235 166.487 222.26L114.006 204.638L112.193 196.572H78.1348Z" fill="#70A3C4"/>
<path d="M184.234 247.532C184.437 247.532 184.633 247.467 184.786 247.349C184.939 247.231 185.039 247.067 185.068 246.889C185.901 241.626 184.705 236.267 181.676 231.688C178.647 227.108 173.964 223.579 168.392 221.677L143.295 213.24C143.086 213.17 142.853 213.177 142.649 213.259C142.444 213.341 142.285 213.492 142.206 213.679C142.127 213.866 142.134 214.073 142.227 214.255C142.319 214.437 142.489 214.579 142.699 214.65L167.792 223.086C173.006 224.864 177.389 228.165 180.224 232.449C183.058 236.733 184.177 241.747 183.397 246.671C183.38 246.769 183.386 246.869 183.413 246.965C183.44 247.061 183.487 247.151 183.554 247.23C183.62 247.31 183.703 247.377 183.798 247.427C183.893 247.478 183.999 247.512 184.109 247.526C184.15 247.531 184.192 247.533 184.234 247.532Z" fill="#373737"/>
<g style="mix-blend-mode:overlay" opacity="0.3">
<path d="M124.091 196.572L75.6382 213.876L78.134 196.572H124.091Z" fill="#373737"/>
</g>
<path d="M172.221 144.025L165.923 159.453L164.239 163.564C163.848 163.542 163.46 163.502 163.075 163.443C162.916 163.387 162.765 163.332 162.607 163.267C162.339 163.17 162.076 163.056 161.825 162.944C161.575 162.832 161.245 162.677 160.968 162.536C160.928 162.536 160.899 162.501 160.866 162.486C160.651 162.38 160.447 162.269 160.243 162.148C160.107 162.078 159.979 161.998 159.854 161.922C159.773 161.88 159.696 161.832 159.623 161.781C159.441 161.675 159.267 161.564 159.102 161.449C158.881 161.308 158.667 161.156 158.442 161.006C157.926 160.631 157.435 160.229 156.972 159.802C156.267 159.16 155.625 158.466 155.05 157.729C154.852 157.482 154.667 157.236 154.496 156.974C154.137 156.459 153.815 155.925 153.53 155.374L142.838 134.951L144.209 117.65L145.142 105.795L147.602 106.723C150.686 107.901 153.478 109.611 155.817 111.755C158.155 113.898 159.994 116.433 161.228 119.212L172.221 144.025Z" fill="#2E4CB7"/>
<g style="mix-blend-mode:overlay" opacity="0.2">
<path d="M165.923 159.453L164.239 163.564C163.848 163.543 163.46 163.502 163.075 163.443C162.916 163.388 162.765 163.332 162.607 163.267C162.339 163.17 162.076 163.056 161.825 162.944C161.575 162.833 161.245 162.677 160.968 162.536C160.928 162.536 160.899 162.501 160.866 162.486C160.651 162.38 160.447 162.269 160.243 162.148C160.107 162.078 159.979 161.999 159.854 161.922C159.773 161.88 159.696 161.833 159.623 161.781C159.441 161.676 159.267 161.564 159.102 161.45C158.881 161.309 158.667 161.156 158.442 161.006C157.926 160.631 157.435 160.229 156.972 159.802C156.264 159.163 155.62 158.469 155.05 157.729C154.852 157.482 154.667 157.236 154.496 156.974C154.132 156.458 153.802 155.924 153.507 155.374L142.825 134.951L144.196 117.65L158.373 157.109C158.564 157.638 158.95 158.093 159.469 158.4C159.987 158.707 160.608 158.849 161.228 158.801C162.829 158.682 164.439 158.906 165.923 159.453Z" fill="#373737"/>
</g>
<path d="M149.497 200.483C149.3 201.077 149.043 201.654 148.729 202.207C147.912 203.676 146.729 204.96 145.27 205.961C143.812 206.961 142.116 207.652 140.312 207.98C117.085 212.211 93.8642 207.272 80.2411 203.205C78.0813 202.561 76.1196 201.479 74.5115 200.042C72.9034 198.606 71.6931 196.856 70.9766 194.93C70.7521 194.347 70.5769 193.749 70.4523 193.142C70.123 191.505 70.1465 189.827 70.5216 188.197L71.181 185.369L71.5469 183.79L73.2845 176.246L73.6471 174.663L75.3945 167.12L75.7572 165.54L77.498 157.987L77.8606 156.407L79.608 148.846L79.974 147.266L90.2342 102.874L104.668 100.422L110 99.5085L127.724 99.4146L135.185 102.14L145.158 105.795L146.477 135.688L150.592 153.6L150.569 155.227L150.467 162.97V164.594L150.361 172.34L150.338 173.964L150.236 181.699L150.213 183.323L150.111 191.051L150.084 192.684L150.022 197.494C150.003 198.507 149.827 199.513 149.497 200.483Z" fill="#D9F0FF"/>
<path d="M135.179 102.142C134.361 106.841 136.804 115.121 122.219 114.285C109.974 113.586 104.458 104.527 104.662 100.419L109.993 99.5114L127.721 99.4175L135.179 102.142Z" fill="white"/>
<path d="M105.311 77.8171L109.047 89.8858L112.205 93.7031L146.52 72.2203C146.52 72.2203 152.956 71.1632 149.187 66.4708C146.184 62.7269 144.809 58.5601 144.377 57.0185C141.739 54.7222 134.931 49.7567 125.887 49.9711C114.15 50.2383 113.514 57.0185 113.514 57.0185C113.514 57.0185 111.714 57.1359 108.625 61.5171C105.535 65.8982 105.311 77.8171 105.311 77.8171Z" fill="#373737"/>
<path d="M112.839 85.5835L108.302 101.334V101.405C108.589 106.599 116.93 111.13 122.75 111.609C127.942 111.95 130.333 108.811 131.322 103.945L132.387 93.8906L112.839 85.5835Z" fill="#FFDAB8"/>
<path d="M119.34 97.9669L131.341 103.945L132.39 93.8765L119.34 97.9669Z" fill="#FFDAB8"/>
<path d="M147.559 67.7072C147.559 67.7072 144.858 80.5305 140.984 90.7757C137.935 98.842 127.312 102.46 119.158 98.0169C114.813 95.6501 111.196 91.777 110.883 85.4343C110.883 85.4343 106.02 85.5195 106.689 78.7393C107.359 71.9591 113.672 73.8443 114.529 75.7265L114.493 77.0097C114.481 77.4707 114.615 77.9254 114.881 78.3213C115.146 78.7172 115.532 79.0382 115.993 79.2473C116.121 79.3033 116.262 79.3323 116.405 79.3318C116.548 79.3314 116.688 79.3016 116.816 79.2447C116.944 79.1879 117.055 79.1055 117.141 79.0041C117.227 78.9027 117.286 78.7849 117.312 78.66L120.916 61.0415L147.559 67.7072Z" fill="#FFDAB8"/>
<path d="M112.278 81.7197H112.262C112.166 81.7054 112.08 81.6605 112.019 81.5934C111.959 81.5263 111.928 81.4417 111.932 81.3556C111.932 81.0619 111.896 80.0958 111.464 79.7493C111.39 79.6915 111.301 79.6504 111.205 79.6294C111.109 79.6085 111.009 79.6083 110.913 79.6289C110.861 79.6384 110.807 79.6382 110.754 79.6285C110.702 79.6187 110.652 79.5996 110.608 79.5723C110.564 79.5449 110.527 79.5099 110.499 79.4694C110.471 79.4288 110.452 79.3836 110.444 79.3365C110.436 79.2893 110.439 79.2412 110.452 79.195C110.466 79.1488 110.49 79.1055 110.522 79.0678C110.555 79.0301 110.596 78.9987 110.643 78.9755C110.69 78.9523 110.741 78.9379 110.795 78.933C111.007 78.897 111.225 78.9047 111.433 78.9556C111.641 79.0065 111.833 79.0992 111.995 79.2266C112.137 79.3448 112.256 79.4826 112.348 79.6348C112.473 78.7157 112.42 77.7555 111.787 77.4883C110.468 76.9245 109.479 78.1813 109.423 78.2341C109.364 78.312 109.272 78.3657 109.168 78.3833C109.064 78.4009 108.957 78.3811 108.869 78.3281C108.782 78.2751 108.722 78.1934 108.702 78.1009C108.682 78.0084 108.704 77.9127 108.764 77.8348C109.248 77.2093 110.577 76.1992 112.12 76.8511C114.026 77.6586 112.839 81.0942 112.697 81.4818C112.668 81.5581 112.611 81.6233 112.535 81.6665C112.459 81.7098 112.368 81.7286 112.278 81.7197Z" fill="#FFDAB8"/>
<path d="M146.755 71.2395C146.755 71.2395 141.615 70.57 141.608 66.2153C141.608 66.2153 125.407 80.7271 117.409 70.9899L119.598 59.4204L148.809 65.1141L146.755 71.2395Z" fill="#373737"/>
<path d="M112.1 78.8981L112.377 80.0726C112.421 80.2513 112.424 80.4359 112.388 80.6158C112.351 80.7956 112.274 80.9672 112.162 81.1205C112.05 81.2737 111.905 81.4057 111.735 81.5086C111.566 81.6115 111.375 81.6833 111.174 81.72L110.92 81.767C110.621 81.823 110.311 81.7991 110.027 81.6982C109.744 81.5974 109.5 81.4241 109.327 81.2002C109.205 81.0455 109.12 80.8693 109.08 80.6834L108.803 79.5088C108.719 79.1487 108.799 78.7736 109.025 78.4659C109.252 78.1582 109.606 77.9429 110.01 77.8674L110.26 77.8233C110.664 77.7487 111.085 77.82 111.43 78.0215C111.775 78.223 112.016 78.5383 112.1 78.8981Z" fill="white"/>
<path d="M112.265 79.5991L112.377 80.0748C112.421 80.2535 112.424 80.4381 112.387 80.6179C112.351 80.7978 112.274 80.9694 112.162 81.1226C112.05 81.2759 111.905 81.4079 111.735 81.5108C111.566 81.6137 111.375 81.6855 111.173 81.7222L110.92 81.7691C110.621 81.8252 110.31 81.8012 110.027 81.7004C109.744 81.5995 109.5 81.4263 109.327 81.2024C109.205 81.0477 109.12 80.8715 109.08 80.6856L108.968 80.2099C109.071 80.5879 109.336 80.9153 109.705 81.123C110.074 81.3308 110.52 81.4026 110.948 81.3234C111.375 81.2441 111.752 81.02 111.997 80.6984C112.243 80.3767 112.339 79.9825 112.265 79.5991Z" fill="#70A3C4"/>
<path d="M110.72 79.4229L112.156 79.1564L113.148 83.3936C113.182 83.5636 113.14 83.7388 113.03 83.8811C112.92 84.0234 112.751 84.1213 112.561 84.1534C112.371 84.1887 112.173 84.1552 112.01 84.0605C111.848 83.9658 111.735 83.8174 111.695 83.6482L110.707 79.4253L110.72 79.4229Z" fill="white"/>
<path d="M63.9382 203.47C63.7744 204.06 63.7772 204.677 63.9463 205.267C64.1154 205.856 64.4457 206.399 64.9076 206.846C75.8832 217.1 112.325 211.9 113.795 211.683C113.81 211.684 113.826 211.684 113.841 211.683C107.943 194.255 110.3 151.21 114.118 130.802C115.401 123.966 115.186 118.222 114.329 113.615C112.654 104.462 108.464 99.7642 108.464 99.7642L105.276 100.31L90.2349 102.874L82.7079 131.674L63.9382 203.47Z" fill="#2E4CB7"/>
<path d="M105.275 100.319L105.403 116C105.41 116.199 105.473 116.393 105.587 116.564C105.701 116.735 105.862 116.878 106.055 116.979C106.248 117.08 106.466 117.135 106.689 117.14C106.913 117.145 107.134 117.099 107.332 117.007L114.328 113.612C112.654 104.462 108.463 99.7642 108.463 99.7642L105.275 100.319Z" fill="#F4B65B"/>
<path d="M131.634 100.847C131.634 100.847 131.305 106.426 130.767 114.648C130.22 122.985 129.448 134.029 128.565 144.744C126.883 165.102 134.766 201.375 132.158 210.446C132.128 210.547 132.128 210.653 132.159 210.754C132.19 210.855 132.25 210.947 132.334 211.02C132.418 211.093 132.523 211.145 132.637 211.17C132.751 211.195 132.87 211.192 132.983 211.162C136.329 210.299 145.841 207.965 153.375 207.275C153.661 207.248 153.938 207.17 154.19 207.047C154.442 206.923 154.663 206.757 154.842 206.556C155.021 206.355 155.153 206.125 155.23 205.878C155.308 205.631 155.329 205.373 155.293 205.119C154.439 198.953 151.93 179.687 151.548 164.629C151.09 146.444 145.152 105.804 145.152 105.804L135.67 102.333L131.634 100.847Z" fill="#2E4CB7"/>
<path d="M131.634 100.847C131.634 100.847 131.304 106.426 130.767 114.648L137.156 116.243C137.373 116.299 137.603 116.303 137.822 116.256C138.042 116.209 138.243 116.112 138.408 115.974C138.572 115.836 138.694 115.662 138.76 115.47C138.826 115.278 138.834 115.074 138.785 114.877L135.669 102.333L131.634 100.847Z" fill="#F4B65B"/>
<path d="M150.718 152.434H150.797C150.849 152.429 150.899 152.416 150.945 152.394C150.99 152.371 151.031 152.342 151.064 152.306C151.096 152.27 151.121 152.228 151.136 152.184C151.15 152.139 151.155 152.093 151.15 152.047L147.948 123.396C147.936 123.303 147.884 123.218 147.803 123.159C147.721 123.1 147.618 123.071 147.513 123.079C147.461 123.084 147.411 123.097 147.365 123.119C147.32 123.142 147.279 123.171 147.247 123.207C147.214 123.243 147.189 123.285 147.174 123.329C147.16 123.374 147.155 123.42 147.16 123.466L150.362 152.117C150.371 152.198 150.412 152.274 150.477 152.332C150.541 152.39 150.627 152.426 150.718 152.434Z" fill="#373737"/>
<path d="M146.168 165.604L150.619 168.949L155.686 171.768C155.953 171.915 156.154 172.141 156.254 172.406C156.355 172.672 156.348 172.96 156.236 173.221C156.123 173.482 155.912 173.701 155.638 173.838C155.365 173.976 155.046 174.025 154.737 173.976L148.614 173.03L139.185 170.264L135.733 168.846L146.168 165.604Z" fill="#FFDAB8"/>
<path d="M131.694 162.553L150.341 161.839L159.546 167.419L162.942 173.879C163.035 174.059 163.078 174.256 163.069 174.453C163.059 174.651 162.997 174.844 162.887 175.016C162.777 175.188 162.623 175.335 162.437 175.443C162.251 175.552 162.039 175.619 161.818 175.641C161.56 175.663 161.3 175.621 161.068 175.52C160.835 175.419 160.638 175.263 160.499 175.068L156.872 170.006L150.644 166.508L153.513 170.417L155.095 174.939C155.162 175.13 155.172 175.334 155.125 175.53C155.077 175.726 154.975 175.908 154.826 176.058C154.678 176.209 154.489 176.324 154.277 176.391C154.065 176.458 153.837 176.476 153.615 176.442C153.394 176.406 153.187 176.319 153.014 176.191C152.841 176.063 152.707 175.898 152.626 175.711L150.608 171.118L146.922 167.389L149.609 171.811L150.364 174.51C150.41 174.671 150.41 174.84 150.363 175.002C150.317 175.163 150.226 175.311 150.099 175.433C149.972 175.555 149.812 175.647 149.635 175.7C149.458 175.753 149.269 175.766 149.085 175.737C148.888 175.706 148.703 175.628 148.551 175.512C148.398 175.396 148.283 175.246 148.218 175.077L147.113 172.196L146.836 174.378C146.82 174.505 146.775 174.628 146.703 174.739C146.632 174.851 146.535 174.948 146.42 175.025C146.305 175.102 146.174 175.157 146.034 175.187C145.894 175.217 145.749 175.222 145.607 175.2C145.399 175.168 145.207 175.081 145.056 174.951C144.904 174.82 144.8 174.652 144.756 174.469L144.07 171.609L138.136 172.736L133.56 172.029L130.127 170.616L131.694 162.553Z" fill="#FFDAB8"/>
<path d="M141.192 166.42C141.104 166.406 141.023 166.365 140.962 166.306C140.927 166.271 140.9 166.231 140.883 166.187C140.866 166.143 140.858 166.097 140.862 166.05C140.865 166.004 140.878 165.958 140.901 165.917C140.924 165.875 140.956 165.837 140.995 165.807C144.588 162.95 147.902 162.785 148.04 162.782C148.093 162.78 148.145 162.787 148.194 162.802C148.243 162.818 148.288 162.842 148.327 162.874C148.366 162.905 148.397 162.943 148.419 162.985C148.441 163.028 148.454 163.073 148.456 163.12C148.46 163.214 148.423 163.305 148.352 163.375C148.281 163.444 148.182 163.485 148.077 163.49C148.047 163.49 144.895 163.657 141.525 166.335C141.48 166.37 141.427 166.396 141.37 166.411C141.312 166.426 141.252 166.429 141.192 166.42Z" fill="#FFDAB8"/>
<path d="M144.07 171.615L142.039 168.491L142.217 169.665C142.282 170.063 142.215 170.469 142.026 170.834C141.836 171.199 141.532 171.507 141.149 171.721L139.85 172.446L144.07 171.615Z" fill="#FFDAB8"/>
<path d="M90.3758 103.074C86.2583 103.768 84.4794 105.12 81.302 107.468C78.1247 109.816 75.7152 112.832 74.3104 116.219L62.3909 144.97C61.4288 147.287 61.1781 149.777 61.6628 152.2C62.1475 154.624 63.3513 156.901 65.1587 158.812C67.5575 161.353 70.8978 163.116 74.6262 163.809L134.548 178.479C134.548 178.479 135.072 167.626 140.441 164.477L86.6805 145.201L94.0118 129.939C94.0118 129.939 99.57 115.29 90.3758 103.074Z" fill="#2E4CB7"/>
<path d="M132.198 161.814C132.157 161.81 132.117 161.802 132.079 161.79L81.332 142.856C81.2819 142.84 81.2361 142.814 81.1973 142.782C81.1585 142.749 81.1276 142.709 81.1064 142.666C81.0851 142.622 81.074 142.575 81.0737 142.528C81.0735 142.48 81.084 142.433 81.1047 142.389C81.1254 142.345 81.1559 142.306 81.1943 142.272C81.2327 142.239 81.2782 142.214 81.3281 142.197C81.378 142.18 81.4312 142.172 81.4846 142.174C81.5379 142.175 81.5903 142.187 81.6386 142.207L132.386 161.135C132.482 161.172 132.559 161.241 132.598 161.327C132.638 161.413 132.637 161.51 132.597 161.596C132.566 161.666 132.51 161.725 132.438 161.764C132.366 161.804 132.282 161.821 132.198 161.814Z" fill="#373737"/>
<path d="M84.8532 144.151C84.8145 144.148 84.7766 144.139 84.7412 144.125C84.6929 144.108 84.6489 144.082 84.6119 144.05C84.5749 144.017 84.5455 143.979 84.5255 143.936C84.5056 143.893 84.4954 143.847 84.4956 143.801C84.4958 143.755 84.5065 143.709 84.5268 143.667L91.3351 128.92C91.3747 128.838 91.4461 128.771 91.5362 128.732L94.0254 127.725C94.0728 127.706 94.124 127.695 94.1761 127.693C94.2282 127.691 94.2801 127.699 94.329 127.715C94.3778 127.731 94.4226 127.756 94.4607 127.788C94.4989 127.819 94.5296 127.857 94.5513 127.9C94.5729 127.942 94.585 127.987 94.5869 128.034C94.5888 128.08 94.5803 128.126 94.5621 128.17C94.5439 128.213 94.5162 128.253 94.4807 128.287C94.4452 128.321 94.4025 128.349 94.3551 128.368L92.011 129.316L85.2555 143.934C85.2229 144.003 85.1664 144.062 85.0942 144.101C85.0219 144.14 84.9375 144.158 84.8532 144.151Z" fill="#373737"/>
<path d="M114.426 174.948H114.393L74.3154 164.652C74.0055 164.599 66.8411 163.278 63.5376 157.337C63.4908 157.254 63.4833 157.157 63.5166 157.068C63.55 156.979 63.6216 156.906 63.7156 156.865C63.8096 156.823 63.9183 156.816 64.0179 156.846C64.1174 156.876 64.1996 156.939 64.2464 157.023C67.3785 162.658 74.3912 163.947 74.467 163.962L114.545 174.252C114.641 174.271 114.727 174.322 114.783 174.394C114.84 174.467 114.864 174.555 114.851 174.643C114.838 174.73 114.788 174.81 114.712 174.867C114.635 174.923 114.538 174.952 114.439 174.948H114.426Z" fill="#373737"/>
<path d="M175.277 151.465V156.589C175.277 158.067 174.701 159.5 173.648 160.642C172.595 161.785 171.129 162.567 169.501 162.855L165.479 163.566C165.035 163.644 164.578 163.639 164.137 163.55C163.695 163.462 163.28 163.292 162.917 163.052C158.565 160.177 136.987 154.872 121.494 120.953C121.833 120.412 122.227 119.9 122.671 119.423C124.04 117.933 131.99 110.069 133.861 109.104L168.406 142.177L172.221 144.024L174.651 148.857C175.064 149.677 175.277 150.566 175.277 151.465Z" fill="#2E4CB7"/>
<path d="M117.187 98.7274C116.333 99.6495 115.647 100.489 115.106 101.182C114.6 101.84 114.369 102.635 114.453 103.428C114.537 104.222 114.932 104.964 115.568 105.525L122.29 111.46C123.113 112.187 124.148 112.696 125.277 112.928L126.431 113.163L127.78 114.337L133.859 109.096L118.113 88.8992C118.044 88.8093 117.953 88.7337 117.848 88.6775C117.743 88.6213 117.625 88.5859 117.503 88.5737C117.381 88.5614 117.258 88.5726 117.141 88.6065C117.025 88.6404 116.918 88.6961 116.827 88.77C116.681 88.8896 116.586 89.0505 116.558 89.2255C116.529 89.4005 116.57 89.5788 116.672 89.7302L120.187 95.7616C119.857 96.0553 120.289 95.6677 120.187 95.7616C119.115 96.7277 118.192 97.641 117.401 98.4837C117.325 98.5718 117.269 98.6481 117.187 98.7274Z" fill="#FFDAB8"/>
<path d="M115.542 102.815C115.601 102.83 115.664 102.83 115.723 102.814C115.781 102.798 115.833 102.766 115.872 102.724C118.615 99.6727 123.125 97.5878 123.168 97.5673C123.234 97.5309 123.283 97.4737 123.304 97.4069C123.325 97.3402 123.317 97.2688 123.282 97.207C123.247 97.1452 123.186 97.0975 123.113 97.0734C123.04 97.0493 122.96 97.0505 122.888 97.0769C122.697 97.162 118.216 99.2322 115.387 102.38C115.341 102.439 115.32 102.511 115.329 102.582C115.338 102.654 115.377 102.72 115.437 102.768C115.469 102.788 115.505 102.804 115.542 102.815Z" fill="#FFDAB8"/>
<path d="M131.775 106.388L132.676 100.494L134.924 97.0822C134.995 96.9741 135.031 96.8504 135.028 96.7251C135.025 96.5998 134.983 96.4777 134.906 96.3725C134.829 96.2674 134.721 96.1833 134.594 96.1297C134.467 96.0761 134.325 96.0552 134.186 96.0692L134.024 96.0868C133.359 96.1505 132.718 96.3451 132.148 96.6564C131.578 96.9677 131.093 97.3879 130.727 97.8868L129.86 99.0614L128.835 99.584C128.368 99.8223 127.818 99.8959 127.294 99.7904C126.77 99.6849 126.309 99.408 126.002 99.0144L125.511 98.3713C125.511 98.3713 128.785 105.483 131.775 106.388Z" fill="#FFDAB8"/>
<path d="M126.432 113.421H126.366L125.215 113.189C124.031 112.948 122.946 112.417 122.083 111.656L115.361 105.722C114.675 105.117 114.249 104.318 114.157 103.462C114.066 102.607 114.314 101.75 114.86 101.041C115.486 100.231 116.178 99.3967 116.957 98.5687C117.026 98.4923 117.098 98.413 117.177 98.3308C118.002 97.4499 118.895 96.569 119.815 95.735L116.399 89.8622C116.292 89.6975 116.237 89.5093 116.243 89.3187C116.248 89.1281 116.313 88.9426 116.43 88.7829C116.547 88.6233 116.712 88.4957 116.905 88.4146C117.099 88.3335 117.314 88.3019 117.527 88.3235C117.691 88.339 117.85 88.3861 117.992 88.4617C118.133 88.5372 118.255 88.6394 118.348 88.761L127.655 100.695C127.7 100.753 127.717 100.824 127.703 100.894C127.689 100.963 127.644 101.024 127.579 101.065C127.515 101.104 127.435 101.119 127.358 101.107C127.28 101.094 127.212 101.055 127.167 100.997L117.863 89.0605C117.817 89.0021 117.757 88.9531 117.687 88.9167C117.618 88.8803 117.541 88.8573 117.461 88.8491C117.359 88.8425 117.256 88.8611 117.165 88.9028C117.074 88.9445 116.997 89.0077 116.943 89.0856C116.89 89.1634 116.861 89.2529 116.86 89.3443C116.86 89.4356 116.887 89.5254 116.94 89.6038L120.405 95.5559L120.425 95.5706C120.475 95.6236 120.503 95.6906 120.503 95.76C120.503 95.8293 120.475 95.8964 120.425 95.9494C119.436 96.8303 118.519 97.7347 117.655 98.6538L117.444 98.8799C116.686 99.7021 115.994 100.521 115.377 101.32C114.901 101.925 114.68 102.66 114.753 103.396C114.826 104.132 115.188 104.822 115.776 105.343L122.502 111.277C123.286 111.969 124.272 112.451 125.347 112.669L126.498 112.904C126.57 112.918 126.634 112.955 126.677 113.008C126.72 113.061 126.739 113.127 126.731 113.192C126.723 113.257 126.687 113.317 126.632 113.361C126.577 113.404 126.506 113.428 126.432 113.427V113.421Z" fill="#373737"/>
<path d="M131.97 105.343H131.931C131.854 105.333 131.785 105.296 131.737 105.242C131.69 105.187 131.668 105.118 131.677 105.049L132.376 100.46C132.382 100.424 132.395 100.391 132.415 100.36L134.664 96.9476C134.711 96.8833 134.736 96.8084 134.736 96.7318C134.736 96.6552 134.711 96.5802 134.664 96.5159C134.619 96.4506 134.553 96.3985 134.475 96.3662C134.397 96.3338 134.31 96.3226 134.225 96.3339L134.064 96.3486C133.445 96.4094 132.849 96.5919 132.318 96.8828C131.788 97.1738 131.337 97.566 130.998 98.0311L130.131 99.2057C130.104 99.2403 130.069 99.2693 130.028 99.2909L129.003 99.8135C128.473 100.087 127.846 100.172 127.249 100.052C126.651 99.9322 126.126 99.6164 125.779 99.1675L125.268 98.5156C125.223 98.458 125.206 98.387 125.22 98.3181C125.234 98.2493 125.279 98.1884 125.343 98.1486C125.375 98.1284 125.411 98.1141 125.449 98.1064C125.487 98.0988 125.526 98.0979 125.565 98.104C125.603 98.11 125.64 98.1227 125.672 98.1415C125.705 98.1602 125.733 98.1846 125.755 98.2132L126.266 98.8651C126.53 99.2053 126.928 99.4447 127.38 99.5356C127.833 99.6264 128.308 99.5621 128.71 99.3554L129.672 98.8651L130.5 97.7346C130.887 97.2042 131.401 96.7568 132.005 96.4247C132.609 96.0926 133.289 95.8841 133.995 95.8141L134.159 95.7965C134.354 95.7768 134.551 95.8059 134.728 95.8803C134.906 95.9548 135.056 96.0717 135.163 96.2181C135.27 96.3644 135.329 96.5344 135.333 96.7089C135.338 96.8833 135.287 97.0555 135.188 97.206L132.966 100.574L132.277 105.111C132.267 105.176 132.23 105.237 132.174 105.279C132.117 105.322 132.045 105.345 131.97 105.343Z" fill="#373737"/>
<path d="M168.409 142.53C168.354 142.53 168.301 142.52 168.251 142.501C168.201 142.482 168.156 142.454 168.119 142.418L137.226 112.845C137.189 112.812 137.16 112.772 137.14 112.728C137.121 112.684 137.111 112.637 137.112 112.59C137.114 112.543 137.125 112.496 137.147 112.453C137.169 112.41 137.2 112.372 137.239 112.339C137.278 112.307 137.324 112.283 137.374 112.267C137.423 112.251 137.476 112.244 137.529 112.246C137.582 112.249 137.634 112.261 137.682 112.281C137.729 112.302 137.772 112.331 137.806 112.367L168.702 141.939C168.738 141.973 168.766 142.013 168.784 142.056C168.802 142.099 168.81 142.145 168.809 142.191C168.807 142.237 168.795 142.283 168.773 142.325C168.751 142.367 168.721 142.404 168.683 142.436C168.646 142.466 168.603 142.491 168.556 142.507C168.509 142.523 168.459 142.531 168.409 142.53Z" fill="#373737"/>
<path d="M159.8 161.097C159.709 161.097 159.621 161.069 159.55 161.018C144.272 149.762 121.369 121.951 121.217 121.628C121.194 121.585 121.182 121.538 121.179 121.49C121.177 121.443 121.186 121.395 121.205 121.351C121.224 121.307 121.253 121.266 121.29 121.232C121.328 121.198 121.372 121.171 121.421 121.152C121.471 121.134 121.524 121.124 121.577 121.125C121.63 121.125 121.683 121.135 121.732 121.154C121.781 121.172 121.825 121.2 121.862 121.235C121.899 121.269 121.927 121.31 121.946 121.355C122.098 121.678 144.925 149.316 160.054 160.474C160.094 160.504 160.128 160.54 160.152 160.581C160.176 160.622 160.191 160.667 160.196 160.713C160.201 160.759 160.196 160.805 160.18 160.85C160.165 160.894 160.14 160.935 160.107 160.971C160.07 161.011 160.023 161.043 159.97 161.065C159.917 161.087 159.859 161.098 159.8 161.097Z" fill="#373737"/>
<path d="M171.043 171.789H116.927C116.49 171.789 116.135 172.104 116.135 172.493V175.665C116.135 176.054 116.49 176.369 116.927 176.369H171.043C171.48 176.369 171.834 176.054 171.834 175.665V172.493C171.834 172.104 171.48 171.789 171.043 171.789Z" fill="#70A3C4"/>
<path d="M229.234 176.367H165.12C164.882 176.366 164.647 176.303 164.44 176.183C164.232 176.063 164.058 175.89 163.936 175.681C163.813 175.473 163.746 175.235 163.74 174.992C163.734 174.749 163.79 174.508 163.902 174.293L184.064 135.844C184.182 135.619 184.358 135.431 184.573 135.299C184.788 135.168 185.034 135.099 185.285 135.098H249.398C249.637 135.098 249.872 135.16 250.08 135.28C250.288 135.4 250.462 135.573 250.585 135.782C250.708 135.991 250.775 136.229 250.781 136.472C250.786 136.716 250.73 136.957 250.617 137.171L230.455 175.621C230.337 175.846 230.161 176.035 229.946 176.166C229.731 176.298 229.485 176.367 229.234 176.367Z" fill="#D7D7D7"/>
<path d="M207.052 160.451C209.674 160.451 211.799 158.558 211.799 156.223C211.799 153.887 209.674 151.994 207.052 151.994C204.43 151.994 202.304 153.887 202.304 156.223C202.304 158.558 204.43 160.451 207.052 160.451Z" fill="white"/>
<path d="M131.7 173.512H128.542C127.286 173.511 126.081 173.066 125.193 172.275C124.305 171.484 123.805 170.411 123.804 169.292V162.832C123.805 161.713 124.305 160.64 125.193 159.849C126.081 159.058 127.286 158.613 128.542 158.612H131.7C131.862 158.605 132.024 158.627 132.176 158.676C132.328 158.726 132.467 158.803 132.585 158.903C132.702 159.002 132.796 159.122 132.86 159.254C132.924 159.387 132.957 159.53 132.957 159.674C132.957 159.818 132.924 159.961 132.86 160.093C132.796 160.226 132.702 160.346 132.585 160.445C132.467 160.544 132.328 160.621 132.176 160.671C132.024 160.721 131.862 160.743 131.7 160.735H128.542C127.918 160.736 127.32 160.957 126.878 161.35C126.437 161.743 126.189 162.276 126.188 162.832V169.292C126.188 169.848 126.436 170.381 126.877 170.775C127.319 171.168 127.918 171.389 128.542 171.389H131.7C131.862 171.381 132.024 171.403 132.176 171.453C132.328 171.503 132.467 171.58 132.585 171.679C132.702 171.778 132.796 171.898 132.86 172.031C132.924 172.163 132.957 172.306 132.957 172.45C132.957 172.594 132.924 172.737 132.86 172.87C132.796 173.002 132.702 173.122 132.585 173.221C132.467 173.321 132.328 173.398 132.176 173.448C132.024 173.497 131.862 173.519 131.7 173.512Z" fill="#D7D7D7"/>
<path d="M154.008 156.795V173.92C154.008 174.099 153.985 174.281 153.53 175.3C153.433 175.427 153.323 175.544 153.2 175.65C153.068 175.758 152.936 175.852 152.794 175.943C152.34 176.241 151.792 176.402 151.228 176.404H133.586C132.888 176.404 132.216 176.17 131.702 175.749C131.188 175.328 130.87 174.751 130.81 174.132C130.804 174.046 130.804 173.961 130.81 173.876V156.795C130.81 156.655 130.84 156.517 130.9 156.388C130.96 156.259 131.048 156.141 131.159 156.042C131.27 155.944 131.401 155.865 131.546 155.812C131.691 155.759 131.847 155.732 132.004 155.732H152.827C153.142 155.734 153.443 155.847 153.664 156.047C153.885 156.246 154.008 156.515 154.008 156.795Z" fill="#D7D7D7"/>
<path d="M154.008 173.92C154.008 174.099 153.985 174.282 153.53 175.3C153.433 175.427 153.323 175.544 153.2 175.65C153.068 175.759 152.936 175.852 152.794 175.944C152.341 176.21 151.811 176.354 151.268 176.358H133.586C132.895 176.357 132.229 176.129 131.717 175.717C131.204 175.305 130.881 174.738 130.81 174.126C130.804 174.041 130.804 173.955 130.81 173.87V160.745H132.254V170.728C132.254 171.573 132.63 172.383 133.301 172.981C133.971 173.579 134.88 173.916 135.828 173.917L154.008 173.92Z" fill="#70A3C4"/>
<path d="M318.47 176.366H50.1296C49.1773 176.366 48.4053 177.053 48.4053 177.901V182.732C48.4053 183.58 49.1773 184.268 50.1296 184.268H318.47C319.423 184.268 320.195 183.58 320.195 182.732V177.901C320.195 177.053 319.423 176.366 318.47 176.366Z" fill="#595959"/>
<path d="M135.017 176.366H49.7176C48.7234 176.366 47.9175 177.084 47.9175 177.969V182.664C47.9175 183.55 48.7234 184.268 49.7176 184.268H135.017C136.011 184.268 136.817 183.55 136.817 182.664V177.969C136.817 177.084 136.011 176.366 135.017 176.366Z" fill="#2E4CB7"/>
<path d="M140.955 352.589H131.246L120.326 193.292L130.032 188.517L140.955 352.589Z" fill="#373737"/>
<path d="M47.9175 352.589H57.6238L101.912 190.904L92.2057 186.126L47.9175 352.589Z" fill="#373737"/>
<path d="M52.3691 187.63L118.609 193.82L132.04 189.68V184.268H52.3691V187.63Z" fill="#595959"/>
<path d="M315.49 184.268H132.04V189.68H315.49V184.268Z" fill="#373737"/>
<path d="M278.171 138.082L275.656 176.372H286.321L278.171 138.082Z" fill="#70A3C4"/>
<path d="M309.397 176.375H280.621L278.161 138.082H305.444C305.847 138.081 306.236 138.218 306.53 138.465C306.824 138.712 307 139.05 307.023 139.409L309.397 176.375Z" fill="#D7D7D7"/>
<path d="M317.36 24.1251C318.555 24.8164 320.084 24.408 320.775 23.2129C321.467 22.0177 321.058 20.4884 319.863 19.797L317.36 24.1251ZM333.521 35.9313C333.038 34.6379 331.598 33.9812 330.305 34.4645C329.011 34.9478 328.354 36.3881 328.838 37.6814L333.521 35.9313ZM291.415 39.1679C290.337 38.3053 288.764 38.4801 287.901 39.5583C287.039 40.6364 287.214 42.2097 288.292 43.0722L291.415 39.1679ZM299.995 49.233L298.433 51.1852L299.995 49.233ZM307.863 48.5894L306.005 46.917L306.005 46.917L307.863 48.5894ZM331.973 25.5377C332.896 24.5115 332.813 22.9307 331.787 22.0071C330.761 21.0834 329.18 21.1666 328.256 22.1929L331.973 25.5377ZM330.49 46.8716C330.49 61.3734 318.734 73.1294 304.232 73.1294V78.1294C321.496 78.1294 335.49 64.1348 335.49 46.8716H330.49ZM304.232 73.1294C289.731 73.1294 277.975 61.3734 277.975 46.8716H272.975C272.975 64.1348 286.969 78.1294 304.232 78.1294V73.1294ZM277.975 46.8716C277.975 32.3698 289.731 20.6138 304.232 20.6138V15.6138C286.969 15.6138 272.975 29.6084 272.975 46.8716H277.975ZM304.232 20.6138C309.019 20.6138 313.5 21.8924 317.36 24.1251L319.863 19.797C315.263 17.136 309.922 15.6138 304.232 15.6138V20.6138ZM328.838 37.6814C329.905 40.5385 330.49 43.6339 330.49 46.8716H335.49C335.49 43.0273 334.795 39.3396 333.521 35.9313L328.838 37.6814ZM288.292 43.0722L298.433 51.1852L301.556 47.2808L291.415 39.1679L288.292 43.0722ZM309.721 50.2618L331.973 25.5377L328.256 22.1929L306.005 46.917L309.721 50.2618ZM298.433 51.1852C301.846 53.9158 306.797 53.5109 309.721 50.2618L306.005 46.917C304.852 48.1973 302.902 48.3569 301.556 47.2808L298.433 51.1852Z" fill="#EE542F"/>
<path d="M41.396 108.434L47.4892 107.663C49.1634 107.45 49.1634 105.289 47.4778 105.086L41.4074 104.356C40.7582 104.275 40.2457 103.828 40.1546 103.24L39.3118 97.8335C39.084 96.3322 36.6467 96.3322 36.419 97.8335L35.5762 103.26C35.4851 103.839 34.9839 104.285 34.3347 104.366L28.2415 105.137C26.5673 105.35 26.5673 107.51 28.2529 107.713L34.3234 108.444C34.9725 108.525 35.4851 108.971 35.5762 109.56L36.419 114.966C36.6467 116.467 39.084 116.467 39.3118 114.966L40.1546 109.539C40.2457 108.971 40.7468 108.515 41.396 108.434Z" fill="#2E4CB7"/>
<path d="M25.5212 97.7419L28.6191 97.3463C29.4733 97.2347 29.4619 96.1392 28.6077 96.0378L25.5212 95.6624C25.191 95.6219 24.929 95.3886 24.8835 95.0944L24.4507 92.3455C24.3368 91.5847 23.0954 91.5847 22.9815 92.3455L22.5487 95.1045C22.5031 95.3987 22.2412 95.6219 21.9223 95.6726L18.8244 96.0682C17.9702 96.1798 17.9816 97.2753 18.8358 97.3767L21.9223 97.7521C22.2526 97.7926 22.5145 98.0259 22.5601 98.3201L22.9929 101.069C23.1068 101.83 24.3482 101.83 24.4621 101.069L24.8948 98.31C24.9404 98.0056 25.191 97.7825 25.5212 97.7419Z" fill="#EE542F"/>
<path d="M50.3123 83.0016L53.0229 82.6567C53.7746 82.5654 53.7632 81.6018 53.0229 81.5105L50.3237 81.1859C50.039 81.1555 49.8112 80.9526 49.7656 80.6889L49.3898 78.2848C49.2873 77.6153 48.2053 77.6153 48.1028 78.2848L47.727 80.699C47.6928 80.9526 47.465 81.1555 47.1803 81.1961L44.4697 81.5409C43.718 81.6322 43.7294 82.5959 44.4697 82.6872L47.1689 83.0118C47.4536 83.0422 47.6814 83.2451 47.727 83.5088L48.1028 85.9129C48.2053 86.5823 49.2873 86.5823 49.3898 85.9129L49.7656 83.4987C49.7998 83.2451 50.0276 83.0422 50.3123 83.0016Z" fill="#70A3C4"/>
<path d="M351.781 142.883L345.688 142.112C344.014 141.899 344.014 139.738 345.699 139.535L351.77 138.805C352.419 138.724 352.931 138.278 353.022 137.689L353.865 132.283C354.093 130.781 356.53 130.781 356.758 132.283L357.601 137.71C357.692 138.288 358.193 138.734 358.842 138.815L364.936 139.586C366.61 139.799 366.61 141.96 364.924 142.163L358.854 142.893C358.205 142.974 357.692 143.42 357.601 144.009L356.758 149.415C356.53 150.917 354.093 150.917 353.865 149.415L353.022 143.988C352.931 143.42 352.43 142.964 351.781 142.883Z" fill="#2E4CB7"/>
<path d="M367.666 132.192L364.569 131.796C363.714 131.685 363.726 130.589 364.58 130.488L367.666 130.113C367.997 130.072 368.259 129.839 368.304 129.545L368.737 126.796C368.851 126.035 370.092 126.035 370.206 126.796L370.639 129.555C370.685 129.849 370.947 130.072 371.265 130.123L374.363 130.518C375.217 130.63 375.206 131.725 374.352 131.827L371.265 132.202C370.935 132.243 370.673 132.476 370.628 132.77L370.195 135.519C370.081 136.28 368.839 136.28 368.726 135.519L368.293 132.76C368.247 132.466 367.985 132.233 367.666 132.192Z" fill="#70A3C4"/>
<path d="M342.862 117.464L340.151 117.119C339.4 117.027 339.411 116.064 340.151 115.972L342.851 115.648C343.135 115.617 343.363 115.415 343.409 115.151L343.784 112.747C343.887 112.077 344.969 112.077 345.071 112.747L345.447 115.161C345.481 115.415 345.709 115.617 345.994 115.658L348.705 116.003C349.456 116.094 349.445 117.058 348.705 117.149L346.005 117.474C345.721 117.504 345.493 117.707 345.447 117.971L345.071 120.375C344.969 121.044 343.887 121.044 343.784 120.375L343.409 117.961C343.374 117.697 343.147 117.494 342.862 117.464Z" fill="#EE542F"/>
<path d="M140.878 71.8339C147.552 71.8339 152.962 67.0154 152.962 61.0715C152.962 55.1276 147.552 50.3091 140.878 50.3091C134.204 50.3091 128.794 55.1276 128.794 61.0715C128.794 67.0154 134.204 71.8339 140.878 71.8339Z" fill="#373737"/>
<path d="M128.591 79.0199C128.687 78.5081 128.299 78.0237 127.725 77.938C127.15 77.8522 126.606 78.1976 126.51 78.7094L126.328 79.6767C126.232 80.1886 126.619 80.673 127.194 80.7587C127.769 80.8445 128.313 80.4991 128.409 79.9872L128.591 79.0199Z" fill="#373737"/>
<path d="M140.267 81.3783C140.363 80.8665 139.976 80.3821 139.401 80.2964C138.826 80.2106 138.282 80.556 138.186 81.0678L138.004 82.0351C137.908 82.547 138.296 83.0314 138.87 83.1171C139.445 83.2029 139.989 82.8575 140.085 82.3456L140.267 81.3783Z" fill="#373737"/>
<path d="M130.957 90.0642C130.342 90.0642 129.772 89.9323 129.282 89.6686C127.779 88.8672 127.483 87.1631 127.471 87.0921C127.426 86.8385 127.62 86.6153 127.904 86.5748C128.189 86.5342 128.44 86.7066 128.485 86.9602C128.485 86.9805 128.736 88.3195 129.806 88.8875C130.467 89.2324 131.344 89.2425 132.392 88.8977C132.654 88.8064 132.95 88.9281 133.052 89.1715C133.155 89.4048 133.018 89.6686 132.745 89.7599C132.107 89.9627 131.503 90.0642 130.957 90.0642Z" fill="#373737"/>
<path d="M213.105 335.811V353.623H242.421C243.947 353.623 244.79 352.051 243.833 350.996L238.195 344.717V335.811H213.105Z" fill="#373737"/>
<path d="M129.702 335.811V353.623H159.017C160.544 353.623 161.386 352.051 160.43 350.996L154.792 344.717V335.811H129.702Z" fill="#373737"/>
<line x1="354.813" y1="353.089" x2="1.42145" y2="353.089" stroke="#373737" stroke-linecap="round"/>
</svg>
