<svg width="311" height="353" viewBox="0 0 311 353" fill="none" xmlns="http://www.w3.org/2000/svg">
<path d="M269.582 223.846H156.328C153.244 223.846 150.739 221.341 150.739 218.257V6.06205C150.739 2.97838 153.244 0.4729 156.328 0.4729H269.572C272.655 0.4729 275.161 2.97838 275.161 6.06205V218.257C275.161 221.341 272.655 223.846 269.582 223.846ZM156.328 1.38583C153.751 1.38583 151.652 3.48556 151.652 6.06205V218.257C151.652 220.833 153.751 222.933 156.328 222.933H269.572C272.148 222.933 274.248 220.833 274.248 218.257V6.06205C274.248 3.48556 272.148 1.38583 269.572 1.38583H156.328Z" fill="#373737"/>
<path d="M212.96 104.709C233.038 104.709 249.315 88.4323 249.315 68.3541C249.315 48.2759 233.038 31.9993 212.96 31.9993C192.882 31.9993 176.605 48.2759 176.605 68.3541C176.605 88.4323 192.882 104.709 212.96 104.709Z" fill="#70A3C4"/>
<path d="M61.5762 153.246L73.8804 334.543H105.772L100.031 153.246H61.5762Z" fill="#70A3C4"/>
<path d="M43.4892 153.246L11.8105 334.543H43.7022L81.9336 153.246H43.4892Z" fill="#70A3C4"/>
<path d="M63.3809 90.7926H62.539C53.5416 90.7926 46.1875 97.3454 45.9643 105.562L44.6558 153.257H101.754L100.03 104.375C100.03 96.8788 93.3757 90.8027 85.1695 90.8027H63.3809V90.7926Z" fill="#2E4CB7"/>
<path d="M81.0723 90.7925H92.3013C97.1601 90.7925 101.704 93.1661 104.474 97.1525L128.626 129.054L140.727 90.7925H162.424L144.064 156.696C140.798 168.432 125.39 171.161 118.289 161.26L84.3791 118.332L81.0723 90.7925Z" fill="#2E4CB7"/>
<path d="M67.1543 73.8322V90.7923C67.1543 95.9352 71.3233 100.114 76.4763 100.114C81.6191 100.114 85.7983 95.9453 85.7983 90.7923V79.046L67.1543 73.8322Z" fill="#FFDAB8"/>
<path d="M63.3008 66.7823V55.2591C63.3008 52.4392 65.5831 50.1569 68.403 50.1569H82.523V56.4155L63.3008 66.7823Z" fill="#373737"/>
<path d="M94.7957 61.6899C95.3324 58.383 93.0867 55.2671 89.7798 54.7305C86.4729 54.1938 83.3571 56.4395 82.8204 59.7464C82.2837 63.0532 84.5294 66.1691 87.8363 66.7058C91.1432 67.2425 94.259 64.9968 94.7957 61.6899Z" fill="#373737"/>
<path d="M78.4458 84.8063C71.325 84.8063 65.5532 79.0346 65.5532 71.9137V59.082H91.3384V71.9036C91.3384 79.0346 85.5666 84.8063 78.4458 84.8063Z" fill="#FFDAB8"/>
<path d="M68.1894 70.9003C70.2006 70.9003 71.831 67.8756 71.831 64.1446C71.831 60.4135 70.2006 57.3889 68.1894 57.3889C66.1782 57.3889 64.5479 60.4135 64.5479 64.1446C64.5479 67.8756 66.1782 70.9003 68.1894 70.9003Z" fill="#373737"/>
<path d="M79.1876 59.4888C79.7943 55.7506 77.2556 52.2283 73.5174 51.6216C69.7792 51.015 66.257 53.5536 65.6503 57.2918C65.0436 61.03 67.5822 64.5522 71.3204 65.1589C75.0586 65.7656 78.5809 63.227 79.1876 59.4888Z" fill="#373737"/>
<path d="M84.7443 61.6905C90.6883 61.6905 95.5067 56.872 95.5067 50.9281C95.5067 44.9841 90.6883 40.1656 84.7443 40.1656C78.8004 40.1656 73.9819 44.9841 73.9819 50.9281C73.9819 56.872 78.8004 61.6905 84.7443 61.6905Z" fill="#373737"/>
<path d="M66.6681 73.8318C69.1667 73.8318 71.1922 71.8108 71.1922 69.3179C71.1922 66.8249 69.1667 64.804 66.6681 64.804C64.1695 64.804 62.144 66.8249 62.144 69.3179C62.144 71.8108 64.1695 73.8318 66.6681 73.8318Z" fill="#FFDAB8"/>
<path d="M79.0833 70.1399C79.6883 70.1399 80.1788 69.6494 80.1788 69.0444C80.1788 68.4393 79.6883 67.9489 79.0833 67.9489C78.4783 67.9489 77.9878 68.4393 77.9878 69.0444C77.9878 69.6494 78.4783 70.1399 79.0833 70.1399Z" fill="#373737"/>
<path d="M88.0608 70.1399C88.6659 70.1399 89.1564 69.6494 89.1564 69.0444C89.1564 68.4393 88.6659 67.9489 88.0608 67.9489C87.4558 67.9489 86.9653 68.4393 86.9653 69.0444C86.9653 69.6494 87.4558 70.1399 88.0608 70.1399Z" fill="#373737"/>
<path d="M68.3925 71.1548C68.3012 71.1548 68.1998 71.1244 68.1186 71.0635L64.9944 68.7204C64.7915 68.5682 64.7509 68.2842 64.9031 68.0813C65.0552 67.8784 65.3393 67.8379 65.5421 67.99L68.6664 70.3332C68.8693 70.4853 68.9098 70.7694 68.7577 70.9722C68.6664 71.094 68.5345 71.1548 68.3925 71.1548Z" fill="#373737"/>
<path d="M82.27 77.9195C81.7223 77.9195 81.2151 77.7877 80.7789 77.5239C79.44 76.7226 79.1762 75.0184 79.1661 74.9474C79.1255 74.6938 79.2979 74.4707 79.5515 74.4301C79.8051 74.3895 80.0283 74.562 80.0689 74.8156C80.0689 74.8359 80.292 76.1748 81.2455 76.7429C81.8339 77.0877 82.6149 77.0979 83.5481 76.753C83.7814 76.6617 84.0452 76.7834 84.1365 77.0269C84.2278 77.2602 84.106 77.5239 83.8626 77.6152C83.2945 77.8181 82.7569 77.9195 82.27 77.9195Z" fill="#373737"/>
<path d="M85.789 82.5054C85.789 82.5054 80.8997 85.7006 75.27 84.4124C75.27 84.4124 79.8144 87.0903 85.789 84.808V82.5054Z" fill="#373737"/>
<path d="M64.0402 90.7925H52.4765C45.8425 90.7925 40.0099 95.1847 38.1841 101.565L24.48 149.362C22.7657 155.347 24.1554 161.798 28.1824 166.555L63.8678 202.728L82.2683 188.547L52.0301 151.492L64.0402 90.7925Z" fill="#2E4CB7"/>
<path d="M79.0532 334.545V352.357H105.163C106.522 352.357 107.273 350.785 106.421 349.73L101.4 343.451V334.545H79.0532Z" fill="#373737"/>
<path d="M41.0749 334.544L38.5998 352.356H12.4799C11.1308 352.356 10.3802 350.794 11.2221 349.739L16.2534 343.44L18.7284 334.534H41.0749V334.544Z" fill="#373737"/>
<path d="M101.268 140.172C101.035 140.172 100.832 139.989 100.812 139.756L98.022 109.071C98.0018 108.817 98.1843 108.594 98.4379 108.574C98.6915 108.554 98.9147 108.736 98.935 108.99L101.724 139.674C101.745 139.928 101.562 140.151 101.309 140.172C101.298 140.172 101.288 140.172 101.268 140.172Z" fill="#373737"/>
<path d="M53.015 153.155C52.9947 153.155 52.9643 153.155 52.944 153.145C52.6904 153.105 52.5281 152.871 52.5687 152.618L57.9245 119.357C57.9651 119.103 58.1984 118.941 58.452 118.981C58.7056 119.022 58.8679 119.255 58.8273 119.509L53.4715 152.77C53.4309 152.993 53.2382 153.155 53.015 153.155Z" fill="#373737"/>
<path d="M66.5162 226.859C66.4857 226.859 66.4553 226.859 66.4249 226.849C66.1814 226.798 66.0191 226.555 66.0698 226.311L68.9101 212.13C68.9608 211.887 69.2042 211.725 69.4477 211.775C69.6911 211.826 69.8534 212.069 69.8027 212.313L66.9625 226.494C66.9118 226.707 66.7292 226.859 66.5162 226.859Z" fill="#373737"/>
<path d="M80.0786 190.281L85.6981 197.96L82.8883 212.364C82.8883 212.364 81.5088 217 78.4454 212.364C78.4454 212.364 75.0879 217.091 73.6272 212.364C72.8157 213.835 70.5435 215.894 69.3466 212.212L70.5131 205.345L66.5063 200.729L80.0786 190.281Z" fill="#FFDAB8"/>
<path d="M73.6361 212.831C73.6057 212.831 73.5753 212.831 73.555 212.82C73.3115 212.77 73.1492 212.536 73.1898 212.283L74.5896 204.949C74.6404 204.705 74.8737 204.543 75.1272 204.584C75.3707 204.634 75.533 204.868 75.4924 205.121L74.0926 212.455C74.0419 212.678 73.8491 212.831 73.6361 212.831Z" fill="#373737"/>
<path d="M78.455 212.831C78.4246 212.831 78.3942 212.831 78.3536 212.821C78.1101 212.77 77.9478 212.526 77.9986 212.283L79.581 204.949C79.6317 204.706 79.8751 204.543 80.1186 204.594C80.362 204.645 80.5243 204.888 80.4736 205.132L78.8912 212.466C78.8506 212.679 78.6579 212.831 78.455 212.831Z" fill="#373737"/>
<path d="M142.318 90.7922L145.26 79.8878C145.666 78.6401 146.65 77.6562 147.897 77.2606L164.898 71.8642C166.004 71.5091 167.191 72.1381 167.525 73.2437C167.83 74.2581 167.322 75.3536 166.349 75.7695L157.889 79.3603C157.889 79.3603 161.257 78.4981 162.119 80.9022C162.119 80.9022 164.929 79.9791 165.355 83.2251L162.017 90.7922H142.318Z" fill="#FFDAB8"/>
<path d="M156.916 87.029C156.043 87.029 155.262 86.5726 154.836 85.8118C154.41 85.051 154.431 84.1482 154.887 83.3976L157.504 79.1373C157.636 78.9243 157.92 78.8533 158.133 78.9851C158.346 79.117 158.417 79.401 158.285 79.614L155.668 83.8744C155.384 84.341 155.374 84.8989 155.638 85.3655C155.901 85.8422 156.388 86.1161 156.926 86.1161C157.393 86.1161 157.829 85.8929 158.113 85.5278L161.765 80.6385C161.917 80.4357 162.201 80.3951 162.404 80.5472C162.606 80.6994 162.647 80.9834 162.495 81.1863L158.843 86.0755C158.387 86.674 157.666 87.029 156.916 87.029Z" fill="#373737"/>
<path d="M160.245 88.7733C159.515 88.7733 158.865 88.3878 158.47 87.7184C158.003 86.9373 157.983 85.9635 158.409 85.1622C158.531 84.939 158.805 84.8578 159.028 84.9796C159.251 85.1013 159.332 85.3752 159.21 85.5983C158.936 86.1157 158.947 86.7547 159.251 87.2517C159.484 87.6372 159.849 87.8604 160.245 87.8604C160.62 87.8604 160.985 87.6474 161.209 87.2923L164.394 82.4031C164.536 82.1901 164.81 82.1292 165.023 82.2712C165.236 82.4132 165.297 82.6871 165.155 82.9001L161.969 87.7894C161.574 88.4081 160.925 88.7733 160.245 88.7733Z" fill="#373737"/>
<path d="M153.326 86.5117C152.849 86.5117 152.382 86.39 151.966 86.1263C151.003 85.5278 150.272 84.1381 151.114 82.0181C151.124 81.9978 151.124 81.9877 151.135 81.9674L153.052 78.3664C153.173 78.1432 153.447 78.0621 153.67 78.1737C153.894 78.2954 153.975 78.5693 153.863 78.7924L151.956 82.3731C151.429 83.7222 151.621 84.8279 152.453 85.3452C153.072 85.7307 154.056 85.7104 154.756 84.9496C154.928 84.767 155.212 84.7467 155.405 84.9192C155.588 85.0916 155.608 85.3756 155.435 85.5684C154.867 86.1871 154.096 86.5117 153.326 86.5117Z" fill="#373737"/>
<path d="M100.029 153.246L59.3027 160.407L53.46 153.246H100.029Z" fill="#373737"/>
<path d="M85.2617 352.843C57.1334 352.843 28.9949 352.832 1.03898 352.812C0.785392 352.812 0.58252 352.609 0.58252 352.356C0.58252 352.102 0.785392 351.899 1.03898 351.899C56.9305 351.93 113.593 351.93 169.434 351.899C169.687 351.899 169.89 352.102 169.89 352.356C169.89 352.609 169.687 352.812 169.434 352.812C141.518 352.832 113.39 352.843 85.2617 352.843Z" fill="#373737"/>
<path d="M212.96 74.4715C223.316 74.4715 232.516 79.4216 238.329 87.0902C242.366 81.7547 244.76 75.1106 244.76 67.9086C244.76 50.35 230.518 36.1083 212.96 36.1083C195.401 36.1083 181.159 50.3398 181.159 67.9086C181.159 75.1106 183.553 81.7547 187.59 87.0902C193.392 79.4216 202.593 74.4715 212.96 74.4715Z" fill="white"/>
<path d="M274.704 16.3176H151.205C150.951 16.3176 150.749 16.1147 150.749 15.8611C150.749 15.6075 150.951 15.4047 151.205 15.4047H274.714C274.968 15.4047 275.171 15.6075 275.171 15.8611C275.16 16.1147 274.957 16.3176 274.704 16.3176Z" fill="#373737"/>
<path d="M262.978 200.464H162.921C162.667 200.464 162.464 200.261 162.464 200.008C162.464 199.754 162.667 199.551 162.921 199.551H262.978C263.231 199.551 263.434 199.754 263.434 200.008C263.434 200.261 263.231 200.464 262.978 200.464Z" fill="#373737"/>
<path d="M262.978 204.918H162.921C162.667 204.918 162.464 204.715 162.464 204.462C162.464 204.208 162.667 204.005 162.921 204.005H262.978C263.231 204.005 263.434 204.208 263.434 204.462C263.434 204.715 263.231 204.918 262.978 204.918Z" fill="#373737"/>
<path d="M160.914 12.5337C158.824 12.5337 157.12 10.8296 157.12 8.74001C157.12 6.65042 158.824 4.94629 160.914 4.94629C163.003 4.94629 164.708 6.65042 164.708 8.74001C164.708 10.8296 163.003 12.5337 160.914 12.5337ZM160.914 5.85922C159.321 5.85922 158.033 7.14746 158.033 8.74001C158.033 10.3326 159.321 11.6208 160.914 11.6208C162.506 11.6208 163.795 10.3326 163.795 8.74001C163.795 7.14746 162.506 5.85922 160.914 5.85922Z" fill="#373737"/>
<path d="M172.628 12.5337C170.539 12.5337 168.834 10.8296 168.834 8.74001C168.834 6.65042 170.539 4.94629 172.628 4.94629C174.718 4.94629 176.422 6.65042 176.422 8.74001C176.422 10.8296 174.718 12.5337 172.628 12.5337ZM172.628 5.85922C171.036 5.85922 169.747 7.14746 169.747 8.74001C169.747 10.3326 171.036 11.6208 172.628 11.6208C174.221 11.6208 175.509 10.3326 175.509 8.74001C175.509 7.14746 174.211 5.85922 172.628 5.85922Z" fill="#373737"/>
<path d="M184.346 12.5337C182.256 12.5337 180.552 10.8296 180.552 8.74001C180.552 6.65042 182.256 4.94629 184.346 4.94629C186.436 4.94629 188.14 6.65042 188.14 8.74001C188.14 10.8296 186.436 12.5337 184.346 12.5337ZM184.346 5.85922C182.753 5.85922 181.465 7.14746 181.465 8.74001C181.465 10.3326 182.753 11.6208 184.346 11.6208C185.939 11.6208 187.227 10.3326 187.227 8.74001C187.227 7.14746 185.928 5.85922 184.346 5.85922Z" fill="#373737"/>
<path d="M221.819 66.5073C226.715 61.6111 226.715 53.6728 221.819 48.7767C216.922 43.8805 208.984 43.8805 204.088 48.7767C199.192 53.6728 199.192 61.6111 204.088 66.5073C208.984 71.4034 216.922 71.4034 221.819 66.5073Z" fill="#70A3C4"/>
<path d="M250.219 127.087H175.085C170.967 127.087 167.62 123.75 167.62 119.621C167.62 115.503 170.957 112.155 175.085 112.155H250.219C254.338 112.155 257.685 115.493 257.685 119.621C257.685 123.739 254.348 127.087 250.219 127.087Z" fill="#2E4CB7"/>
<path d="M250.219 153.986H175.085C170.967 153.986 167.62 150.649 167.62 146.52C167.62 142.402 170.957 139.055 175.085 139.055H250.219C254.338 139.055 257.685 142.392 257.685 146.52C257.685 150.649 254.348 153.986 250.219 153.986Z" fill="#70A3C4"/>
<path d="M245.238 179.193H180.075C178.269 179.193 176.809 177.732 176.809 175.927V167.538C176.809 165.733 178.269 164.272 180.075 164.272H245.238C247.043 164.272 248.504 165.733 248.504 167.538V175.927C248.504 177.732 247.043 179.193 245.238 179.193Z" fill="#EE542F"/>
<path d="M189.326 122.957C191.169 122.957 192.663 121.463 192.663 119.62C192.663 117.777 191.169 116.282 189.326 116.282C187.483 116.282 185.989 117.777 185.989 119.62C185.989 121.463 187.483 122.957 189.326 122.957Z" fill="white"/>
<path d="M200.991 122.957C202.834 122.957 204.328 121.463 204.328 119.62C204.328 117.777 202.834 116.282 200.991 116.282C199.147 116.282 197.653 117.777 197.653 119.62C197.653 121.463 199.147 122.957 200.991 122.957Z" fill="white"/>
<path d="M212.655 122.957C214.498 122.957 215.992 121.463 215.992 119.62C215.992 117.777 214.498 116.282 212.655 116.282C210.812 116.282 209.318 117.777 209.318 119.62C209.318 121.463 210.812 122.957 212.655 122.957Z" fill="white"/>
<path d="M224.321 122.957C226.164 122.957 227.658 121.463 227.658 119.62C227.658 117.777 226.164 116.282 224.321 116.282C222.478 116.282 220.983 117.777 220.983 119.62C220.983 121.463 222.478 122.957 224.321 122.957Z" fill="white"/>
<path d="M235.987 122.957C237.83 122.957 239.324 121.463 239.324 119.62C239.324 117.777 237.83 116.282 235.987 116.282C234.144 116.282 232.649 117.777 232.649 119.62C232.649 121.463 234.144 122.957 235.987 122.957Z" fill="white"/>
<path d="M192.574 147.314C192.998 145.52 191.887 143.722 190.093 143.299C188.299 142.875 186.502 143.986 186.078 145.78C185.655 147.573 186.766 149.371 188.559 149.794C190.353 150.218 192.151 149.107 192.574 147.314Z" fill="white"/>
<path d="M202.276 149.613C203.979 148.908 204.787 146.955 204.082 145.252C203.377 143.55 201.424 142.741 199.721 143.446C198.019 144.152 197.21 146.104 197.915 147.807C198.621 149.51 200.573 150.318 202.276 149.613Z" fill="white"/>
<path d="M213.941 149.613C215.644 148.908 216.453 146.955 215.747 145.252C215.042 143.55 213.09 142.741 211.387 143.446C209.684 144.152 208.876 146.104 209.581 147.807C210.286 149.51 212.238 150.318 213.941 149.613Z" fill="white"/>
<path d="M226.679 148.892C227.983 147.588 227.983 145.475 226.679 144.172C225.376 142.869 223.263 142.869 221.96 144.172C220.657 145.475 220.657 147.588 221.96 148.892C223.263 150.195 225.376 150.195 226.679 148.892Z" fill="white"/>
<path d="M237.272 149.613C238.975 148.908 239.783 146.955 239.078 145.252C238.373 143.55 236.42 142.741 234.718 143.446C233.015 144.152 232.206 146.104 232.911 147.807C233.617 149.51 235.569 150.318 237.272 149.613Z" fill="white"/>
<path d="M133.332 207.069L138.758 206.298C140.249 206.085 140.249 203.925 138.748 203.722L133.342 202.991C132.763 202.91 132.307 202.464 132.226 201.876L131.475 196.469C131.272 194.968 129.102 194.968 128.899 196.469L128.148 201.896C128.067 202.474 127.621 202.92 127.042 203.001L121.616 203.772C120.124 203.985 120.124 206.146 121.626 206.349L127.032 207.079C127.611 207.16 128.067 207.607 128.148 208.195L128.899 213.602C129.102 215.103 131.272 215.103 131.475 213.602L132.226 208.175C132.307 207.607 132.753 207.15 133.332 207.069Z" fill="#2E4CB7"/>
<path d="M119.193 196.377L121.952 195.982C122.712 195.87 122.702 194.775 121.942 194.673L119.193 194.298C118.898 194.257 118.665 194.024 118.625 193.73L118.239 190.981C118.138 190.22 117.032 190.22 116.931 190.981L116.545 193.74C116.505 194.034 116.271 194.257 115.987 194.308L113.228 194.704C112.467 194.815 112.478 195.911 113.238 196.012L115.987 196.388C116.281 196.428 116.515 196.661 116.555 196.956L116.941 199.705C117.042 200.465 118.148 200.465 118.249 199.705L118.635 196.945C118.675 196.641 118.898 196.418 119.193 196.377Z" fill="#EE542F"/>
<path d="M141.273 181.637L143.687 181.292C144.356 181.201 144.346 180.237 143.687 180.146L141.283 179.821C141.029 179.791 140.826 179.588 140.786 179.324L140.451 176.92C140.36 176.251 139.396 176.251 139.305 176.92L138.97 179.335C138.94 179.588 138.737 179.791 138.483 179.832L136.069 180.176C135.4 180.268 135.41 181.231 136.069 181.323L138.473 181.647C138.727 181.678 138.93 181.881 138.97 182.144L139.305 184.548C139.396 185.218 140.36 185.218 140.451 184.548L140.786 182.134C140.816 181.881 141.019 181.678 141.273 181.637Z" fill="#70A3C4"/>
<path d="M289.739 67.8669L284.312 67.096C282.821 66.883 282.821 64.7224 284.322 64.5195L289.729 63.7892C290.307 63.708 290.763 63.2617 290.844 62.6734L291.595 57.2668C291.798 55.7656 293.969 55.7656 294.172 57.2668L294.922 62.6937C295.003 63.2719 295.45 63.7182 296.028 63.7993L301.455 64.5702C302.946 64.7833 302.946 66.9439 301.445 67.1467L296.038 67.8771C295.46 67.9582 295.003 68.4045 294.922 68.9929L294.172 74.3994C293.969 75.9007 291.798 75.9007 291.595 74.3994L290.844 68.9726C290.763 68.4045 290.317 67.9481 289.739 67.8669Z" fill="#2E4CB7"/>
<path d="M303.888 57.1762L301.129 56.7806C300.368 56.669 300.378 55.5735 301.139 55.4721L303.888 55.0968C304.182 55.0562 304.415 54.8229 304.456 54.5287L304.841 51.7798C304.943 51.019 306.048 51.019 306.15 51.7798L306.535 54.5389C306.576 54.833 306.809 55.0562 307.093 55.1069L309.852 55.5025C310.613 55.6141 310.603 56.7096 309.842 56.8111L307.093 57.1864C306.799 57.2269 306.566 57.4602 306.525 57.7544L306.139 60.5033C306.038 61.2641 304.932 61.2641 304.831 60.5033L304.445 57.7443C304.405 57.4501 304.172 57.2168 303.888 57.1762Z" fill="#70A3C4"/>
<path d="M281.796 42.4477L279.382 42.1028C278.712 42.0115 278.722 41.0478 279.382 40.9565L281.786 40.632C282.039 40.6015 282.242 40.3986 282.283 40.1349L282.617 37.7309C282.709 37.0614 283.672 37.0614 283.764 37.7309L284.098 40.1451C284.129 40.3986 284.332 40.6015 284.585 40.6421L286.999 40.987C287.669 41.0783 287.659 42.0419 286.999 42.1332L284.595 42.4578C284.342 42.4882 284.139 42.6911 284.098 42.9548L283.764 45.3589C283.672 46.0284 282.709 46.0284 282.617 45.3589L282.283 42.9447C282.252 42.681 282.049 42.4781 281.796 42.4477Z" fill="#EE542F"/>
<path d="M126.355 137.402C126.314 137.402 126.274 137.392 126.223 137.382C125.979 137.311 125.837 137.057 125.908 136.814L128.191 128.922C128.262 128.679 128.515 128.537 128.759 128.608C129.002 128.679 129.144 128.932 129.073 129.176L126.791 137.067C126.73 137.27 126.547 137.402 126.355 137.402Z" fill="#373737"/>
<path d="M53.0154 153.155C53.0052 153.155 52.9849 153.155 52.9748 153.155L42.8007 152.202C42.5471 152.181 42.3646 151.958 42.3848 151.705C42.4051 151.451 42.6283 151.268 42.8819 151.289L53.056 152.242C53.3095 152.262 53.4921 152.486 53.4718 152.739C53.4516 152.972 53.2487 153.155 53.0154 153.155Z" fill="#373737"/>
</svg>
