<svg width="311" height="353" viewBox="0 0 311 353" fill="none" xmlns="http://www.w3.org/2000/svg">
<path d="M269.582 223.372H156.328C153.244 223.372 150.739 220.867 150.739 217.783V5.58842C150.739 2.50475 153.244 -0.000732422 156.328 -0.000732422H269.572C272.655 -0.000732422 275.161 2.50475 275.161 5.58842V217.783C275.161 220.867 272.655 223.372 269.582 223.372ZM156.328 0.912196C153.751 0.912196 151.652 3.01193 151.652 5.58842V217.783C151.652 220.36 153.751 222.46 156.328 222.46H269.572C272.148 222.46 274.248 220.36 274.248 217.783V5.58842C274.248 3.01193 272.148 0.912196 269.572 0.912196H156.328Z" fill="#373737"/>
<path d="M212.96 104.235C233.038 104.235 249.315 87.9587 249.315 67.8805C249.315 47.8023 233.038 31.5257 212.96 31.5257C192.882 31.5257 176.605 47.8023 176.605 67.8805C176.605 87.9587 192.882 104.235 212.96 104.235Z" fill="#70A3C4"/>
<path d="M61.5762 152.772L73.8804 334.07H105.772L100.031 152.772H61.5762Z" fill="#70A3C4"/>
<path d="M43.4892 152.772L11.8105 334.07H43.7022L81.9336 152.772H43.4892Z" fill="#70A3C4"/>
<path d="M63.3809 90.3189H62.539C53.5416 90.3189 46.1875 96.8717 45.9643 105.088L44.6558 152.784H101.754L100.03 103.901C100.03 96.4051 93.3757 90.3291 85.1695 90.3291H63.3809V90.3189Z" fill="#2E4CB7"/>
<path d="M81.0723 90.3188H92.3013C97.1601 90.3188 101.704 92.6924 104.474 96.6789L128.626 128.581L140.727 90.3188H162.424L144.064 156.222C140.798 167.958 125.39 170.687 118.289 160.787L84.3791 117.859L81.0723 90.3188Z" fill="#2E4CB7"/>
<path d="M67.1543 73.3585V90.3187C67.1543 95.4615 71.3233 99.6407 76.4763 99.6407C81.6191 99.6407 85.7983 95.4717 85.7983 90.3187V78.5723L67.1543 73.3585Z" fill="#FFDAB8"/>
<path d="M63.3008 66.3086V54.7854C63.3008 51.9655 65.5831 49.6832 68.403 49.6832H82.523V55.9418L63.3008 66.3086Z" fill="#373737"/>
<path d="M94.7957 61.2161C95.3324 57.9092 93.0867 54.7934 89.7798 54.2567C86.4729 53.72 83.3571 55.9657 82.8204 59.2726C82.2837 62.5795 84.5294 65.6953 87.8363 66.232C91.1432 66.7687 94.259 64.523 94.7957 61.2161Z" fill="#373737"/>
<path d="M78.4458 84.3326C71.325 84.3326 65.5532 78.5609 65.5532 71.44V58.6083H91.3384V71.4299C91.3384 78.5609 85.5666 84.3326 78.4458 84.3326Z" fill="#FFDAB8"/>
<path d="M68.1894 70.4266C70.2006 70.4266 71.831 67.402 71.831 63.6709C71.831 59.9399 70.2006 56.9153 68.1894 56.9153C66.1782 56.9153 64.5479 59.9399 64.5479 63.6709C64.5479 67.402 66.1782 70.4266 68.1894 70.4266Z" fill="#373737"/>
<path d="M79.1876 59.0152C79.7943 55.277 77.2556 51.7548 73.5174 51.1481C69.7792 50.5414 66.257 53.08 65.6503 56.8182C65.0436 60.5564 67.5822 64.0787 71.3204 64.6854C75.0586 65.2921 78.5809 62.7534 79.1876 59.0152Z" fill="#373737"/>
<path d="M84.7443 61.2168C90.6883 61.2168 95.5067 56.3983 95.5067 50.4544C95.5067 44.5105 90.6883 39.692 84.7443 39.692C78.8004 39.692 73.9819 44.5105 73.9819 50.4544C73.9819 56.3983 78.8004 61.2168 84.7443 61.2168Z" fill="#373737"/>
<path d="M66.6681 73.3582C69.1667 73.3582 71.1922 71.3372 71.1922 68.8443C71.1922 66.3513 69.1667 64.3303 66.6681 64.3303C64.1695 64.3303 62.144 66.3513 62.144 68.8443C62.144 71.3372 64.1695 73.3582 66.6681 73.3582Z" fill="#FFDAB8"/>
<path d="M79.0833 69.6662C79.6883 69.6662 80.1788 69.1757 80.1788 68.5707C80.1788 67.9657 79.6883 67.4752 79.0833 67.4752C78.4783 67.4752 77.9878 67.9657 77.9878 68.5707C77.9878 69.1757 78.4783 69.6662 79.0833 69.6662Z" fill="#373737"/>
<path d="M88.0608 69.6662C88.6659 69.6662 89.1564 69.1757 89.1564 68.5707C89.1564 67.9657 88.6659 67.4752 88.0608 67.4752C87.4558 67.4752 86.9653 67.9657 86.9653 68.5707C86.9653 69.1757 87.4558 69.6662 88.0608 69.6662Z" fill="#373737"/>
<path d="M68.3925 70.6812C68.3012 70.6812 68.1998 70.6508 68.1186 70.5899L64.9944 68.2467C64.7915 68.0946 64.7509 67.8106 64.9031 67.6077C65.0552 67.4048 65.3393 67.3643 65.5421 67.5164L68.6664 69.8596C68.8693 70.0117 68.9098 70.2958 68.7577 70.4986C68.6664 70.6204 68.5345 70.6812 68.3925 70.6812Z" fill="#373737"/>
<path d="M82.27 77.4459C81.7223 77.4459 81.2151 77.314 80.7789 77.0503C79.44 76.2489 79.1762 74.5448 79.1661 74.4738C79.1255 74.2202 79.2979 73.997 79.5515 73.9565C79.8051 73.9159 80.0283 74.0883 80.0689 74.3419C80.0689 74.3622 80.292 75.7012 81.2455 76.2692C81.8339 76.6141 82.6149 76.6242 83.5481 76.2794C83.7814 76.1881 84.0452 76.3098 84.1365 76.5532C84.2278 76.7865 84.106 77.0503 83.8626 77.1416C83.2945 77.3444 82.7569 77.4459 82.27 77.4459Z" fill="#373737"/>
<path d="M85.789 82.0317C85.789 82.0317 80.8997 85.2269 75.27 83.9387C75.27 83.9387 79.8144 86.6166 85.789 84.3343V82.0317Z" fill="#373737"/>
<path d="M64.0402 90.3188H52.4765C45.8425 90.3188 40.0099 94.711 38.1841 101.091L24.48 148.888C22.7657 154.873 24.1554 161.324 28.1824 166.082L63.8678 202.254L82.2683 188.073L52.0301 151.018L64.0402 90.3188Z" fill="#2E4CB7"/>
<path d="M79.0532 334.071V351.883H105.163C106.522 351.883 107.273 350.311 106.421 349.256L101.4 342.977V334.071H79.0532Z" fill="#373737"/>
<path d="M41.0749 334.07L38.5998 351.882H12.4799C11.1308 351.882 10.3802 350.32 11.2221 349.265L16.2534 342.966L18.7284 334.06H41.0749V334.07Z" fill="#373737"/>
<path d="M101.268 139.698C101.035 139.698 100.832 139.515 100.812 139.282L98.022 108.597C98.0018 108.344 98.1843 108.121 98.4379 108.1C98.6915 108.08 98.9147 108.263 98.935 108.516L101.724 139.201C101.745 139.454 101.562 139.678 101.309 139.698C101.298 139.698 101.288 139.698 101.268 139.698Z" fill="#373737"/>
<path d="M53.015 152.682C52.9947 152.682 52.9643 152.682 52.944 152.672C52.6904 152.631 52.5281 152.398 52.5687 152.144L57.9245 118.883C57.9651 118.629 58.1984 118.467 58.452 118.508C58.7056 118.548 58.8679 118.782 58.8273 119.035L53.4715 152.296C53.4309 152.519 53.2382 152.682 53.015 152.682Z" fill="#373737"/>
<path d="M66.5162 226.385C66.4857 226.385 66.4553 226.385 66.4249 226.375C66.1814 226.324 66.0191 226.081 66.0698 225.837L68.9101 211.657C68.9608 211.413 69.2042 211.251 69.4477 211.302C69.6911 211.352 69.8534 211.596 69.8027 211.839L66.9625 226.02C66.9118 226.233 66.7292 226.385 66.5162 226.385Z" fill="#373737"/>
<path d="M80.0786 189.808L85.6981 197.486L82.8883 211.89C82.8883 211.89 81.5088 216.526 78.4454 211.89C78.4454 211.89 75.0879 216.617 73.6272 211.89C72.8157 213.361 70.5435 215.42 69.3466 211.738L70.5131 204.871L66.5063 200.256L80.0786 189.808Z" fill="#FFDAB8"/>
<path d="M73.6361 212.357C73.6057 212.357 73.5753 212.357 73.555 212.347C73.3115 212.296 73.1492 212.063 73.1898 211.809L74.5896 204.475C74.6404 204.232 74.8737 204.069 75.1272 204.11C75.3707 204.161 75.533 204.394 75.4924 204.648L74.0926 211.981C74.0419 212.205 73.8491 212.357 73.6361 212.357Z" fill="#373737"/>
<path d="M78.455 212.357C78.4246 212.357 78.3942 212.357 78.3536 212.347C78.1101 212.296 77.9478 212.053 77.9986 211.809L79.581 204.475C79.6317 204.232 79.8751 204.07 80.1186 204.12C80.362 204.171 80.5243 204.415 80.4736 204.658L78.8912 211.992C78.8506 212.205 78.6579 212.357 78.455 212.357Z" fill="#373737"/>
<path d="M142.318 90.3186L145.26 79.4142C145.666 78.1665 146.65 77.1826 147.897 76.787L164.898 71.3906C166.004 71.0355 167.191 71.6644 167.525 72.7701C167.83 73.7845 167.322 74.88 166.349 75.2959L157.889 78.8867C157.889 78.8867 161.257 78.0245 162.119 80.4285C162.119 80.4285 164.929 79.5055 165.355 82.7514L162.017 90.3186H142.318Z" fill="#FFDAB8"/>
<path d="M156.916 86.5553C156.043 86.5553 155.262 86.0989 154.836 85.3381C154.41 84.5773 154.431 83.6745 154.887 82.9239L157.504 78.6636C157.636 78.4506 157.92 78.3796 158.133 78.5114C158.346 78.6433 158.417 78.9273 158.285 79.1403L155.668 83.4007C155.384 83.8673 155.374 84.4252 155.638 84.8918C155.901 85.3685 156.388 85.6424 156.926 85.6424C157.393 85.6424 157.829 85.4193 158.113 85.0541L161.765 80.1648C161.917 79.962 162.201 79.9214 162.404 80.0736C162.606 80.2257 162.647 80.5097 162.495 80.7126L158.843 85.6018C158.387 86.2003 157.666 86.5553 156.916 86.5553Z" fill="#373737"/>
<path d="M160.245 88.2996C159.515 88.2996 158.865 87.9141 158.47 87.2446C158.003 86.4636 157.983 85.4898 158.409 84.6884C158.531 84.4653 158.805 84.3841 159.028 84.5059C159.251 84.6276 159.332 84.9015 159.21 85.1246C158.936 85.642 158.947 86.281 159.251 86.778C159.484 87.1635 159.849 87.3867 160.245 87.3867C160.62 87.3867 160.985 87.1736 161.209 86.8186L164.394 81.9294C164.536 81.7164 164.81 81.6555 165.023 81.7975C165.236 81.9395 165.297 82.2134 165.155 82.4264L161.969 87.3157C161.574 87.9344 160.925 88.2996 160.245 88.2996Z" fill="#373737"/>
<path d="M153.326 86.038C152.849 86.038 152.382 85.9163 151.966 85.6526C151.003 85.0541 150.272 83.6644 151.114 81.5444C151.124 81.5241 151.124 81.514 151.135 81.4937L153.052 77.8927C153.173 77.6695 153.447 77.5884 153.67 77.6999C153.894 77.8217 153.975 78.0955 153.863 78.3187L151.956 81.8994C151.429 83.2485 151.621 84.3542 152.453 84.8715C153.072 85.257 154.056 85.2367 154.756 84.4759C154.928 84.2933 155.212 84.273 155.405 84.4455C155.588 84.6179 155.608 84.9019 155.435 85.0947C154.867 85.7134 154.096 86.038 153.326 86.038Z" fill="#373737"/>
<path d="M100.029 152.772L59.3027 159.934L53.46 152.772H100.029Z" fill="#373737"/>
<path d="M85.2617 352.369C57.1334 352.369 28.9949 352.359 1.03898 352.339C0.785392 352.339 0.58252 352.136 0.58252 351.882C0.58252 351.628 0.785392 351.426 1.03898 351.426C56.9305 351.456 113.593 351.456 169.434 351.426C169.687 351.426 169.89 351.628 169.89 351.882C169.89 352.136 169.687 352.339 169.434 352.339C141.518 352.359 113.39 352.369 85.2617 352.369Z" fill="#373737"/>
<path d="M212.96 73.9979C223.316 73.9979 232.516 78.948 238.329 86.6166C242.366 81.2811 244.76 74.637 244.76 67.435C244.76 49.8763 230.518 35.6347 212.96 35.6347C195.401 35.6347 181.159 49.8662 181.159 67.435C181.159 74.637 183.553 81.2811 187.59 86.6166C193.392 78.948 202.593 73.9979 212.96 73.9979Z" fill="white"/>
<path d="M274.704 15.8439H151.205C150.951 15.8439 150.749 15.6411 150.749 15.3875C150.749 15.1339 150.951 14.931 151.205 14.931H274.714C274.968 14.931 275.171 15.1339 275.171 15.3875C275.16 15.6411 274.957 15.8439 274.704 15.8439Z" fill="#373737"/>
<path d="M262.978 199.991H162.921C162.667 199.991 162.464 199.788 162.464 199.534C162.464 199.281 162.667 199.078 162.921 199.078H262.978C263.231 199.078 263.434 199.281 263.434 199.534C263.434 199.788 263.231 199.991 262.978 199.991Z" fill="#373737"/>
<path d="M262.978 204.445H162.921C162.667 204.445 162.464 204.242 162.464 203.988C162.464 203.735 162.667 203.532 162.921 203.532H262.978C263.231 203.532 263.434 203.735 263.434 203.988C263.434 204.242 263.231 204.445 262.978 204.445Z" fill="#373737"/>
<path d="M160.914 12.0601C158.824 12.0601 157.12 10.356 157.12 8.26641C157.12 6.17682 158.824 4.47269 160.914 4.47269C163.003 4.47269 164.708 6.17682 164.708 8.26641C164.708 10.356 163.003 12.0601 160.914 12.0601ZM160.914 5.38561C159.321 5.38561 158.033 6.67386 158.033 8.26641C158.033 9.85896 159.321 11.1472 160.914 11.1472C162.506 11.1472 163.795 9.85896 163.795 8.26641C163.795 6.67386 162.506 5.38561 160.914 5.38561Z" fill="#373737"/>
<path d="M172.628 12.0601C170.539 12.0601 168.834 10.356 168.834 8.26641C168.834 6.17682 170.539 4.47269 172.628 4.47269C174.718 4.47269 176.422 6.17682 176.422 8.26641C176.422 10.356 174.718 12.0601 172.628 12.0601ZM172.628 5.38561C171.036 5.38561 169.747 6.67386 169.747 8.26641C169.747 9.85896 171.036 11.1472 172.628 11.1472C174.221 11.1472 175.509 9.85896 175.509 8.26641C175.509 6.67386 174.211 5.38561 172.628 5.38561Z" fill="#373737"/>
<path d="M184.346 12.0601C182.256 12.0601 180.552 10.356 180.552 8.26641C180.552 6.17682 182.256 4.47269 184.346 4.47269C186.436 4.47269 188.14 6.17682 188.14 8.26641C188.14 10.356 186.436 12.0601 184.346 12.0601ZM184.346 5.38561C182.753 5.38561 181.465 6.67386 181.465 8.26641C181.465 9.85896 182.753 11.1472 184.346 11.1472C185.939 11.1472 187.227 9.85896 187.227 8.26641C187.227 6.67386 185.928 5.38561 184.346 5.38561Z" fill="#373737"/>
<path d="M221.819 66.0336C226.715 61.1374 226.715 53.1992 221.819 48.303C216.922 43.4068 208.984 43.4068 204.088 48.303C199.192 53.1992 199.192 61.1374 204.088 66.0336C208.984 70.9298 216.922 70.9298 221.819 66.0336Z" fill="#70A3C4"/>
<path d="M250.219 126.613H175.085C170.967 126.613 167.62 123.276 167.62 119.148C167.62 115.029 170.957 111.682 175.085 111.682H250.219C254.338 111.682 257.685 115.019 257.685 119.148C257.685 123.266 254.348 126.613 250.219 126.613Z" fill="#2E4CB7"/>
<path d="M250.219 153.513H175.085C170.967 153.513 167.62 150.175 167.62 146.047C167.62 141.929 170.957 138.581 175.085 138.581H250.219C254.338 138.581 257.685 141.918 257.685 146.047C257.685 150.175 254.348 153.513 250.219 153.513Z" fill="#70A3C4"/>
<path d="M245.238 178.72H180.075C178.269 178.72 176.809 177.259 176.809 175.453V167.064C176.809 165.259 178.269 163.798 180.075 163.798H245.238C247.043 163.798 248.504 165.259 248.504 167.064V175.453C248.504 177.259 247.043 178.72 245.238 178.72Z" fill="#EE542F"/>
<path d="M189.326 122.483C191.169 122.483 192.663 120.989 192.663 119.146C192.663 117.303 191.169 115.809 189.326 115.809C187.483 115.809 185.989 117.303 185.989 119.146C185.989 120.989 187.483 122.483 189.326 122.483Z" fill="white"/>
<path d="M200.991 122.483C202.834 122.483 204.328 120.989 204.328 119.146C204.328 117.303 202.834 115.809 200.991 115.809C199.147 115.809 197.653 117.303 197.653 119.146C197.653 120.989 199.147 122.483 200.991 122.483Z" fill="white"/>
<path d="M212.655 122.483C214.498 122.483 215.992 120.989 215.992 119.146C215.992 117.303 214.498 115.809 212.655 115.809C210.812 115.809 209.318 117.303 209.318 119.146C209.318 120.989 210.812 122.483 212.655 122.483Z" fill="white"/>
<path d="M224.321 122.483C226.164 122.483 227.658 120.989 227.658 119.146C227.658 117.303 226.164 115.809 224.321 115.809C222.478 115.809 220.983 117.303 220.983 119.146C220.983 120.989 222.478 122.483 224.321 122.483Z" fill="white"/>
<path d="M235.987 122.483C237.83 122.483 239.324 120.989 239.324 119.146C239.324 117.303 237.83 115.809 235.987 115.809C234.144 115.809 232.649 117.303 232.649 119.146C232.649 120.989 234.144 122.483 235.987 122.483Z" fill="white"/>
<path d="M192.574 146.84C192.998 145.046 191.887 143.249 190.093 142.825C188.299 142.402 186.502 143.512 186.078 145.306C185.655 147.1 186.766 148.897 188.559 149.321C190.353 149.744 192.151 148.634 192.574 146.84Z" fill="white"/>
<path d="M202.276 149.139C203.979 148.434 204.787 146.482 204.082 144.779C203.377 143.076 201.424 142.267 199.721 142.973C198.019 143.678 197.21 145.63 197.915 147.333C198.621 149.036 200.573 149.845 202.276 149.139Z" fill="white"/>
<path d="M213.941 149.139C215.644 148.434 216.453 146.482 215.747 144.779C215.042 143.076 213.09 142.267 211.387 142.973C209.684 143.678 208.876 145.63 209.581 147.333C210.286 149.036 212.238 149.845 213.941 149.139Z" fill="white"/>
<path d="M226.679 148.418C227.983 147.115 227.983 145.002 226.679 143.699C225.376 142.395 223.263 142.395 221.96 143.699C220.657 145.002 220.657 147.115 221.96 148.418C223.263 149.721 225.376 149.721 226.679 148.418Z" fill="white"/>
<path d="M237.272 149.139C238.975 148.434 239.783 146.482 239.078 144.779C238.373 143.076 236.42 142.267 234.718 142.973C233.015 143.678 232.206 145.63 232.911 147.333C233.617 149.036 235.569 149.845 237.272 149.139Z" fill="white"/>
<path d="M133.332 206.595L138.758 205.825C140.249 205.611 140.249 203.451 138.748 203.248L133.342 202.518C132.763 202.437 132.307 201.99 132.226 201.402L131.475 195.995C131.272 194.494 129.102 194.494 128.899 195.995L128.148 201.422C128.067 202 127.621 202.447 127.042 202.528L121.616 203.299C120.124 203.512 120.124 205.672 121.626 205.875L127.032 206.606C127.611 206.687 128.067 207.133 128.148 207.721L128.899 213.128C129.102 214.629 131.272 214.629 131.475 213.128L132.226 207.701C132.307 207.133 132.753 206.677 133.332 206.595Z" fill="#2E4CB7"/>
<path d="M119.193 195.904L121.952 195.508C122.712 195.397 122.702 194.301 121.942 194.2L119.193 193.824C118.898 193.784 118.665 193.55 118.625 193.256L118.239 190.507C118.138 189.747 117.032 189.747 116.931 190.507L116.545 193.266C116.505 193.561 116.271 193.784 115.987 193.834L113.228 194.23C112.467 194.342 112.478 195.437 113.238 195.539L115.987 195.914C116.281 195.954 116.515 196.188 116.555 196.482L116.941 199.231C117.042 199.992 118.148 199.992 118.249 199.231L118.635 196.472C118.675 196.168 118.898 195.944 119.193 195.904Z" fill="#EE542F"/>
<path d="M141.273 181.163L143.687 180.819C144.356 180.727 144.346 179.764 143.687 179.672L141.283 179.348C141.029 179.317 140.826 179.114 140.786 178.851L140.451 176.447C140.36 175.777 139.396 175.777 139.305 176.447L138.97 178.861C138.94 179.114 138.737 179.317 138.483 179.358L136.069 179.703C135.4 179.794 135.41 180.758 136.069 180.849L138.473 181.174C138.727 181.204 138.93 181.407 138.97 181.671L139.305 184.075C139.396 184.744 140.36 184.744 140.451 184.075L140.786 181.661C140.816 181.407 141.019 181.204 141.273 181.163Z" fill="#70A3C4"/>
<path d="M289.739 67.3933L284.312 66.6224C282.821 66.4094 282.821 64.2488 284.322 64.0459L289.729 63.3155C290.307 63.2344 290.763 62.7881 290.844 62.1997L291.595 56.7932C291.798 55.2919 293.969 55.2919 294.172 56.7932L294.922 62.22C295.003 62.7982 295.45 63.2445 296.028 63.3257L301.455 64.0966C302.946 64.3096 302.946 66.4702 301.445 66.6731L296.038 67.4034C295.46 67.4846 295.003 67.9309 294.922 68.5192L294.172 73.9258C293.969 75.4271 291.798 75.4271 291.595 73.9258L290.844 68.499C290.763 67.9309 290.317 67.4744 289.739 67.3933Z" fill="#2E4CB7"/>
<path d="M303.888 56.7026L301.129 56.307C300.368 56.1954 300.378 55.0999 301.139 54.9985L303.888 54.6231C304.182 54.5826 304.415 54.3493 304.456 54.0551L304.841 51.3062C304.943 50.5454 306.048 50.5454 306.15 51.3062L306.535 54.0652C306.576 54.3594 306.809 54.5826 307.093 54.6333L309.852 55.0289C310.613 55.1405 310.603 56.236 309.842 56.3374L307.093 56.7127C306.799 56.7533 306.566 56.9866 306.525 57.2808L306.139 60.0297C306.038 60.7905 304.932 60.7905 304.831 60.0297L304.445 57.2706C304.405 56.9765 304.172 56.7432 303.888 56.7026Z" fill="#70A3C4"/>
<path d="M281.796 41.974L279.382 41.6291C278.712 41.5379 278.722 40.5742 279.382 40.4829L281.786 40.1583C282.039 40.1279 282.242 39.925 282.283 39.6613L282.617 37.2572C282.709 36.5878 283.672 36.5878 283.764 37.2572L284.098 39.6714C284.129 39.925 284.332 40.1279 284.585 40.1685L286.999 40.5133C287.669 40.6046 287.659 41.5683 286.999 41.6596L284.595 41.9842C284.342 42.0146 284.139 42.2175 284.098 42.4812L283.764 44.8853C283.672 45.5547 282.709 45.5547 282.617 44.8853L282.283 42.4711C282.252 42.2073 282.049 42.0045 281.796 41.974Z" fill="#EE542F"/>
<path d="M126.355 136.928C126.314 136.928 126.274 136.918 126.223 136.908C125.979 136.837 125.837 136.584 125.908 136.34L128.191 128.448C128.262 128.205 128.515 128.063 128.759 128.134C129.002 128.205 129.144 128.458 129.073 128.702L126.791 136.594C126.73 136.797 126.547 136.928 126.355 136.928Z" fill="#373737"/>
<path d="M53.0154 152.681C53.0052 152.681 52.9849 152.681 52.9748 152.681L42.8007 151.728C42.5471 151.708 42.3646 151.485 42.3848 151.231C42.4051 150.977 42.6283 150.795 42.8819 150.815L53.056 151.769C53.3095 151.789 53.4921 152.012 53.4718 152.266C53.4516 152.499 53.2487 152.681 53.0154 152.681Z" fill="#373737"/>
</svg>
