<svg width="1440" height="850" viewBox="0 0 1440 850" fill="none" xmlns="http://www.w3.org/2000/svg">
<g clip-path="url(#clip0_875_12222)">
<rect width="1740.05" height="1320.28" transform="translate(-150.025 -125)" fill="#F6F9FF"/>
<path d="M-29.8054 406.22C15.3746 417.74 8.40458 412.1 25.4446 416.61C42.4846 421.12 32.6146 409.84 48.8346 423.39C65.0546 436.94 48.5546 426.78 71.8346 443.72C95.1146 460.66 115.835 442.59 122.655 452.72C129.475 462.85 132.815 495.63 133.945 503.54C135.075 511.45 130.565 509.19 139.595 520.48C148.625 531.77 149.765 527.26 154.275 536.29C158.785 545.32 163.275 559.29 164.445 561.91C165.615 564.53 168.965 570.17 171.215 574.69C173.465 579.21 175.735 576.95 184.775 591.63C193.815 606.31 194.975 610.87 200.595 612C206.215 613.13 202.485 596.19 214.525 612C226.565 627.81 241.255 641.37 244.645 644.76C248.035 648.15 261.585 667.34 270.645 676.38C279.705 685.42 293.105 697.84 293.105 697.84H313.565L336.155 692.19L382.375 691.63" stroke="#F0F0F0" stroke-width="3" stroke-linecap="round" stroke-linejoin="round"/>
<path d="M139.605 520.52C124.925 531.81 136.215 525.04 119.275 539.72C102.335 554.4 102.335 557.08 100.075 562C97.8145 566.92 93.3045 562.36 111.375 578.17C129.445 593.98 139.605 604.17 139.605 604.17C139.605 604.17 150.905 623.37 154.285 629.01C157.665 634.65 164.455 635.79 158.805 642.57C153.155 649.35 146.385 653.79 142.975 657.18C139.565 660.57 136.195 664.52 136.195 664.52C136.195 664.52 147.495 675.25 149.195 675.81C150.895 676.37 157.105 682.59 157.105 682.59L149.195 691.06L148.635 702.36L139.635 722.12L129.455 741.32L97.8745 772.38L94.4245 802.87L98.4245 829.98L89.9545 857.08L76.3945 880.8" stroke="#F0F0F0" stroke-width="3" stroke-linecap="round" stroke-linejoin="round"/>
<path d="M94.4347 802.87L76.3547 806.83L52.6447 818.12L32.3147 823.2H10.2847L4.07472 834.14L-26.4153 825.46" stroke="#F0F0F0" stroke-width="3" stroke-linecap="round" stroke-linejoin="round"/>
<path d="M134.465 731.81L154.285 722.97L170.105 705.18L176.275 691.63L203.135 678.92L220.075 664.52L228.015 652.66L244.645 644.75L251.415 628.94L265.565 615.39L280.215 605.23L298.005 589.98L311.555 582.36L320.875 565.41L329.345 552.03L320.025 540.85L306.475 526.45L301.735 514.59V498.5L318.715 497.65L338.665 467.16L348.995 454.96L359.905 431.45L375.085 428.49L375.255 416.68" stroke="#F0F0F0" stroke-width="3" stroke-linecap="round" stroke-linejoin="round"/>
<path d="M139.86 731.81L161.439 737.37L187.487 731.81L228.31 715.34L245.962 711.11L276.531 705.18L297.367 697.84V669.6L306.559 655.2L292.707 637.41L276.531 625.55L268.167 615.39L263.04 601.84L256.746 588.28V572.19L248.658 565.41L231.568 561.95L221.686 542.54L213.991 536.33L192.008 528.43L176.724 520.52L162.341 532.38L150.05 536.33" stroke="#F0F0F0" stroke-width="3" stroke-linecap="round" stroke-linejoin="round"/>
<path d="M301.735 655.2L316.645 648.43L342.055 635.72L357.295 623.01L361.165 606.92L355.605 588.28L342.905 561.95L329.345 552.03" stroke="#F0F0F0" stroke-width="3" stroke-linecap="round" stroke-linejoin="round"/>
<path d="M254.805 572.19L265.565 554.28L278.525 538.31V524.76L301.735 514.59" stroke="#F0F0F0" stroke-width="3" stroke-linecap="round" stroke-linejoin="round"/>
<path d="M231.084 561.95L248.034 539.16L265.564 525.6L283.604 510.36L301.734 498.5" stroke="#F0F0F0" stroke-width="3" stroke-linecap="round" stroke-linejoin="round"/>
<path d="M273.615 518.8L271.745 514.59L265.565 501.88L249.725 495.22L231.085 490.03L223.215 475.63L214.525 459.73L207.385 441.63L186.495 419.145L177.068 389.819V367.825L181.782 353.685M214.525 326.978H207.385L186.495 339.546L181.782 353.685M181.782 353.685L158.216 339.546L136.222 326.978L103.753 295.557" stroke="#F0F0F0" stroke-width="3" stroke-linecap="round" stroke-linejoin="round"/>
<path d="M286.875 367.67L254.865 348.6L250.495 345.6L243.745 336.65L225.555 332.5L214.525 326.26L188.665 260.19L196.975 252.99L219.325 241.04L210.915 224.93L211.605 217.97" stroke="#F0F0F0" stroke-width="3" stroke-linecap="round" stroke-linejoin="round"/>
<path d="M201.435 292.82L247.905 300.8L299.345 303.61L318.225 307.03L330.005 339.25L334.675 346.47L321.685 343.41L314.755 376.66L321.685 380.3L314.755 392.33" stroke="#F0F0F0" stroke-width="3" stroke-linecap="round" stroke-linejoin="round"/>
<path d="M321.685 343.41L254.865 339.25L250.495 345.6" stroke="#F0F0F0" stroke-width="3" stroke-linecap="round" stroke-linejoin="round"/>
<path d="M462.435 379.64V373.55L469.775 371.21L466.105 365.23L477.055 342.57L473.935 336.13L456.755 342.57L436.005 354.32L411.585 352.24L394.955 350.16H375.255L334.675 346.47L355.545 335.09L366.895 322.79L392.875 320.72L375.255 313.79L334.675 307.03H318.225" stroke="#F0F0F0" stroke-width="3" stroke-linecap="round" stroke-linejoin="round"/>
<path d="M512.854 307.77L505.634 300.8L498.875 266.5L495.755 250.91L477.055 212.46L481.734 205.71L477.055 193.76L464.065 157.36L471.334 148.55L479.654 137.12L472.894 119.45L464.065 104.9L447.935 96.59L443.794 91.89L426.134 112.18L402.224 113.22L396.514 108.02L389.234 98.15L384.044 79.44L372.604 35.27V12.75" stroke="#F0F0F0" stroke-width="3" stroke-linecap="round" stroke-linejoin="round"/>
<path d="M412.625 -12.01L407.945 25.92V56.58V112.97" stroke="#F0F0F0" stroke-width="3" stroke-linecap="round" stroke-linejoin="round"/>
<path d="M455.745 -28.64L421.455 47.22L426.135 82.56L416.775 86.71V101.78L426.135 112.18L464.065 157.36" stroke="#F0F0F0" stroke-width="3" stroke-linecap="round" stroke-linejoin="round"/>
<path d="M559.154 -16.51L548.244 19.68V89.31L559.154 105.94L556.034 142.31L541.484 160.26L553.434 184.7L559.154 198.43V207.27L574.744 220.26L579.934 233.77L577.344 270.23L568.504 276.38L564.264 281.09C557.68 290.842 527.633 302.379 513.433 306.928L480.937 330.325L477.037 341.374L491.985 375.819L513.433 416.113L491.985 446.659V469.73M577.344 520.098L568.504 514.899L534.229 505.15H508.883L491.985 492.802V469.73M491.985 469.73L460.79 482.404L416.596 499.301L382.151 526.597L396.449 538.946L416.596 560.393V584.439L396.449 592.238L389.95 609.136L396.449 632.532L416.596 655.929L426.345 675.426H430.244M401.648 351.122L389.95 364.12V396.616L377.602 421.962" stroke="#F0F0F0" stroke-width="3" stroke-linecap="round" stroke-linejoin="round"/>
<path d="M614.805 268.75L639.235 270.23H656.855L674.095 260.23L699.845 244.72L707.845 229.82V218L699.845 219.56L698.845 219.75L684.235 222.63L661.235 218L643.235 219.48L648.235 208.83L661.165 193.83L668.595 175.83L681.595 193.83L699.715 199.56V209.72L697.715 220" stroke="#F0F0F0" stroke-width="3" stroke-linecap="round" stroke-linejoin="round"/>
<path d="M677.324 332.14V320.72L656.854 270.23" stroke="#F0F0F0" stroke-width="3" stroke-linecap="round" stroke-linejoin="round"/>
<path d="M707.805 383.3V363.53L713.345 356.76V343.34L718.425 336.43L725.205 320.72L729.155 307.03H717.295H699.845L686.805 307.77L677.325 320.72" stroke="#F0F0F0" stroke-width="3" stroke-linecap="round" stroke-linejoin="round"/>
<path d="M773.205 340.94L763.605 346.47L754.005 351.11H740.455L726.895 356.76H713.345" stroke="#F0F0F0" stroke-width="3" stroke-linecap="round" stroke-linejoin="round"/>
<path d="M403.015 351.17L392.875 320.72L382.345 303.61L372.605 289.56L358.715 268.75L361.165 252.85" stroke="#F0F0F0" stroke-width="3" stroke-linecap="round" stroke-linejoin="round"/>
<path d="M392.875 320.72L407.944 313.27L420.824 307.77L433.815 310.45L455.274 311.58L468.264 316.66L477.055 327.96L482.245 330.42" stroke="#F0F0F0" stroke-width="3" stroke-linecap="round" stroke-linejoin="round"/>
<path d="M433.815 310.45L430.995 301.19L437.565 292.82H455.275H467.705L477.055 281.09L498.875 266.5" stroke="#F0F0F0" stroke-width="3" stroke-linecap="round" stroke-linejoin="round"/>
<path d="M726.335 237.04L745.535 234.21L763.045 229.78L757.395 218.4L752.315 211.63L751.745 196.94L734.235 191.3L722.945 180.57V165.89L729.155 159.67L754.005 154.12L781.675 129.18L797.255 123.53L812.175 95.3L821.765 91.89L825.725 82.31L841.535 86.26L859.605 82.31L869.765 70.45L873.155 56.33L893.485 48.43L907.605 51.81L922.855 48.43L935.845 42.78L944.315 40.52H956.165L969.725 35.44L972.545 28.66L990.615 22.45L1017.72 26.97L1035.22 19.63L1042 12.64L1056.68 -8.60999" stroke="#F0F0F0" stroke-width="3" stroke-linecap="round" stroke-linejoin="round"/>
<path d="M1035.22 19.63L1031.84 29.23L1043.69 38.83V45.04L1047.08 64.24V74.97V87.96V101.51L1043.13 114.22L1047.08 146.12L1049.9 160.24V175.77L1059.51 184.7L1072.49 181.7L1095.65 167.01" stroke="#F0F0F0" stroke-width="3" stroke-linecap="round" stroke-linejoin="round"/>
<path d="M1250.97 -21.6L1236.85 19.63L1223.3 38.83C1223.3 38.83 1222.17 54.64 1220.48 54.64C1218.79 54.64 1206.92 60.85 1206.92 60.85L1197.92 87.39L1189.97 102.16L1155.53 116.76L1149.88 131.44L1123.88 142.73L1106.38 150.07H1097.91C1092.26 148.09 1086.78 145.635 1081.53 142.73L1063.74 142.17L1047.08 146.12L1040.87 150.07L1027.32 147.25L1017.72 154.12L996.265 181.12L987.265 198.06L982.185 213.31L968.595 223L949.395 229.78H935.275L919.465 245.51L896.315 250L869.765 256.77L840.405 253.39C840.405 253.39 822.895 251.13 821.205 252.26C819.515 253.39 794.665 245.48 794.665 245.48L778.285 234.19L768.125 229.75H763.045" stroke="#F0F0F0" stroke-linecap="round" stroke-linejoin="round"/>
<path d="M850.815 84.23L848.315 99.82L849.565 117.6L838.715 130.87L822.335 150.07V160.26L842.095 166.45L850.005 175.77L856.215 190.77L861.865 201.5L868.645 207.71L886.715 222.64L882.715 233.13L875.375 244.72L869.725 256.84L866.345 270.27L868.035 281.13L875.375 301.23L866.375 307.07L850.555 307.81L841.555 316.14L821.785 325.14L814.975 335.86L800.295 334.73L783.975 337.56L773.245 340.94L768.725 332.14V313.84L759.125 307.77H742.845L729.155 307V292.82C729.155 292.82 731.415 288.99 729.155 277.7L726.895 270.23L723.515 263L729.155 244.66L726.335 237L729.155 223L715.045 225.74L707.805 229.74" stroke="#F0F0F0" stroke-width="3" stroke-linecap="round" stroke-linejoin="round"/>
<path d="M805.395 163.63L822.335 150.07L805.395 163.63Z" stroke="#F0F0F0" stroke-width="3" stroke-linecap="round" stroke-linejoin="round"/>
<path d="M805.395 163.63L801.445 181.7L781.115 197.51L775.465 207.11V223L778.285 234.21" stroke="#F0F0F0" stroke-linecap="round" stroke-linejoin="round"/>
<path d="M969.725 35.4399L964.635 46.7299V60.2899V75.5299L967.185 91.8899L974.245 106.59L969.435 123.53L977.625 137.65L985.535 154.12L981.015 180.57L980.455 191.86L977.625 206.55L975.085 216.71" stroke="#F0F0F0" stroke-width="3" stroke-linecap="round" stroke-linejoin="round"/>
<path d="M6.91455 218C14.4446 224.79 13.8546 225.38 20.3546 226.56C26.8546 227.74 26.1046 227.56 33.9346 226.56C41.7646 225.56 39.6846 217.76 43.9346 229.47" stroke="#DAEAFF" stroke-width="8" stroke-miterlimit="10"/>
<path d="M49.0746 244.86C49.3046 253.11 45.1846 260.71 43.3846 266.56C42.8351 268.5 42.1294 270.393 41.2746 272.22C40.2746 274.14 39.2746 275.53 39.1546 277.22C38.8946 280.79 40.8946 284.38 42.9246 287.28C45.7946 291.41 49.3246 294.53 51.6846 299.17C52.8791 301.965 53.3566 305.014 53.0737 308.041C52.7908 311.067 51.7565 313.975 50.0646 316.5C47.6846 320.06 43.6646 322.5 39.9846 324.21C38.2957 324.887 36.7665 325.909 35.4946 327.21L34.7346 326.95C34.8846 322.82 38.7846 319.7 40.8946 316.65C44.2146 312.48 44.7146 308.78 44.5146 303.96C44.3746 300.61 42.0646 298.2 40.7946 294.96C39.1946 291.21 38.5246 287.17 37.5846 283.26C37.0793 281.272 36.7447 279.245 36.5846 277.2C36.4746 274.27 37.3746 271.33 36.9346 268.48C35.9346 261.25 40.7146 254.8 44.6046 249.24C45.7611 247.635 47.0029 246.092 48.3246 244.62L49.0846 244.89L49.0746 244.86Z" fill="#DAEAFF"/>
<path d="M330.195 16.52C349.675 12.64 346.385 12.64 361.195 12.64C376.005 12.64 381.905 13.98 385.295 7.20001C386.555 4.68001 388.525 1.45001 390.495 -1.60999H-12.1953V343.39C0.104688 341.17 23.3647 348.08 35.1147 345.58C48.9747 342.58 57.4447 339.35 60.8347 336.33C64.2247 333.31 65.0647 330.02 68.4547 322.77C71.8447 315.52 72.6147 304.17 72.6147 304.17C72.6147 304.17 92.9747 302 98.9747 296.9C104.975 291.8 119.305 291.83 120.155 285.9C121.005 279.97 122.695 271.53 120.155 270.24C117.615 268.95 104.055 259.64 102.365 252.01C100.675 244.38 100.675 229.79 100.675 229.79C100.675 229.79 106.605 219.52 113.375 217.98C120.145 216.44 129.475 227.22 127.775 229.45C126.075 231.68 136.245 228.06 145.565 229.45C154.885 230.84 166.745 232.53 174.365 237.61C181.985 242.69 180.295 247.61 187.075 244.74C193.855 241.87 199.775 229.74 199.775 229.74C199.775 229.74 205.705 220.32 211.635 217.93C217.565 215.54 224.345 219.17 231.115 217.78C237.885 216.39 259.415 225.42 265.595 217.09C271.775 208.76 276.015 209.61 286.175 205.38C296.335 201.15 292.795 197.75 301.765 196.9C310.735 196.05 314.135 188.43 316.675 196.9C319.215 205.37 340.385 213.15 339.545 223.66C338.705 234.17 333.665 239.95 339.545 244.66C345.425 249.37 358.255 262.1 361.165 252.78C364.075 243.46 359.855 232.05 364.935 229.71C370.015 227.37 383.565 250.24 388.655 253.63C393.745 257.02 392.835 261.53 403.025 260.12C413.215 258.71 427.615 258.12 430.155 260.12C432.695 262.12 437.785 267.46 438.625 260.12C439.465 252.78 434.395 248.39 431.855 244.66C429.315 240.93 418.265 241.77 416.165 234.15C414.065 226.53 408.985 239.23 414.065 226.52C419.145 213.81 398.785 211.27 416.165 209.58C433.545 207.89 442.165 202.8 438.725 199.42C435.285 196.04 432.725 190.17 429.305 184.63C425.885 179.09 414.065 169.77 409.825 172.31C405.585 174.85 397.975 177.45 394.575 172C391.175 166.55 384.405 172.43 381.865 163.11C379.325 153.79 381.865 150.41 375.085 148.71C368.305 147.01 357.305 150.41 353.915 144.48C350.525 138.55 343.745 127.25 342.055 123.58C340.365 119.91 336.125 119.07 338.665 113.14C341.205 107.21 338.665 102.97 342.055 96.14C345.445 89.31 341.205 91.06 342.895 85.14C344.585 79.22 350.525 91.07 348.825 76.67C347.125 62.27 342.055 60.58 342.055 55.5C342.055 50.42 346.285 54.65 342.895 45.33C339.505 36.01 336.125 51.26 326.805 40.25C317.485 29.24 315.805 28.39 317.485 25.85C319.165 23.31 310.715 20.4 330.195 16.52Z" fill="#F0F0F0" stroke="#595959" stroke-linecap="round" stroke-linejoin="round" stroke-dasharray="4 4"/>
<path d="M25.4446 841.37C23.0946 826.37 24.4446 825.91 25.4446 807.28C26.4446 788.65 27.7946 768.28 35.1146 751.37C42.4346 734.46 36.2646 729.37 35.1146 707.37C33.9646 685.37 43.0446 673.49 48.8346 649.77C54.6246 626.05 43.0446 620.92 43.9746 604C44.9046 587.08 56.5946 571.81 63.9746 551.49C71.3546 531.17 75.2046 543.01 87.0646 537.93C98.9246 532.85 100.625 524.38 109.065 514.21C117.505 504.04 112.455 483.72 109.065 469.6C105.675 455.48 75.1746 483.72 56.5446 478.6C37.9146 473.48 51.4646 470.13 35.0646 448.1C18.6646 426.07 32.7746 440.24 14.1946 438.66C-2.26536 437.25 -6.80536 440.89 -12.2454 441.66V848.39H25.5446C25.7689 846.053 25.7353 843.699 25.4446 841.37Z" fill="#DAEAFF"/>
<path d="M1440.03 -1.60999H1291.66L1293.95 8.78001V22.9C1293.95 25.9 1289.91 29.68 1288.25 34.2C1286.58 38.72 1281.98 46.05 1279.7 47.2C1277.41 48.35 1272.85 46.07 1253.44 47.2C1234.04 48.33 1250.03 53.98 1250.9 57.93C1251.77 61.88 1246.03 69.79 1249.45 98.03C1252.88 126.27 1249.45 102.54 1247.17 111.03C1244.89 119.52 1238.62 120.63 1223.8 125.14C1208.97 129.65 1207.26 123.45 1204.41 122.32C1201.56 121.19 1195.32 121.19 1187.3 122.32C1179.29 123.45 1173.62 136.44 1171.91 139.83C1170.19 143.22 1169.62 149.99 1166.78 156.77C1163.93 163.55 1161.65 163.54 1155.94 164.11C1150.24 164.68 1145.68 162.98 1135.41 164.11C1125.14 165.24 1119.45 166.93 1117.73 167.5C1116.02 168.07 1109.76 169.19 1104.61 174.27C1099.46 179.35 1101.75 178.27 1099.47 181.61C1097.18 184.95 1094.91 192.34 1093.2 197.43C1091.48 202.52 1085.22 200.81 1078.37 203.07C1071.53 205.33 1062.97 206.46 1059.55 213.8C1056.13 221.14 1049.86 223.97 1045.87 227.92C1041.88 231.87 1037.89 227.92 1021.35 227.92C1004.81 227.92 1027.06 238.65 997.978 237.04C968.897 235.43 976.308 250.51 971.179 257.28C966.049 264.05 967.756 276.48 960.344 299.64C952.933 322.8 945.511 297.38 925.559 299.64C905.606 301.9 904.465 301.33 895.337 309.8C886.209 318.27 862.308 325 850.898 330C839.488 335 837.216 344.76 833.793 352.8C830.37 360.84 812.144 360 792.737 365.68C773.33 371.36 769.927 371.89 762.515 378.44C755.104 384.99 731.152 397.87 730.022 395.04C728.891 392.21 720.328 387.7 713.017 390.52C705.707 393.34 700.901 408.03 690.672 410.29C680.443 412.55 682.119 395.04 682.119 382.05C682.119 369.06 673.567 370.19 663.298 375.63C653.029 381.07 657.603 383.18 657.603 383.18C657.603 383.18 643.345 392.18 634.793 383.61C626.24 375.04 623.393 386.01 610.973 384.31C598.553 382.61 607.418 383.18 602.026 395.04C596.634 406.9 604.046 410.85 602.026 422.71C600.007 434.57 604.571 423.84 607.994 438.71C611.417 453.58 607.994 438.71 610.973 455.5C613.951 472.29 610.276 458.88 602.026 472.44C593.777 486 593.171 487.68 588.031 489.12C582.892 490.56 578.338 496.12 570.361 502.48C562.384 508.84 561.273 510.27 562.374 514.22C563.474 518.17 572.067 522.7 578.338 531.17C584.608 539.64 571.502 543.02 568.644 553.17C565.787 563.32 552.115 557.69 548.116 569.17C544.118 580.65 551.539 576.87 555.649 588.73C559.758 600.59 542.987 620.91 534.05 631.08C525.114 641.25 507.07 637.85 491.641 632.77C476.212 627.69 462.56 649.71 450.585 663.27C438.609 676.83 450.585 671.74 435.186 681.9C419.788 692.06 411.245 688.68 384.356 698.84C357.466 709 347.944 707.31 341.108 712.4C334.272 717.49 298.336 737.81 266.387 749.67C234.439 761.53 234.994 759.83 214.89 780.16C194.786 800.49 205.954 800.49 197.402 824.21C188.849 847.93 187.143 841.36 178.731 841.36C176.762 841.36 174.763 844.13 172.865 848.36H1439.99L1440.03 -1.60999Z" fill="#DAEAFF"/>
<path d="M560.182 293.194C499.304 314.485 438.502 397.749 445.518 449.387" stroke="#EE542F" stroke-linecap="round" stroke-dasharray="8 8"/>
<path d="M1290.15 -16.51L1294.18 1.56001V15.67C1294.18 18.67 1290.15 22.45 1288.49 26.97C1286.83 31.49 1282.23 38.83 1279.95 39.97C1277.68 41.11 1273.12 38.84 1253.75 39.97C1234.39 41.1 1250.35 46.74 1251.21 50.7C1252.08 54.66 1246.36 62.55 1249.77 90.79C1253.19 119.03 1249.77 95.31 1247.5 103.79C1245.22 112.27 1238.96 113.39 1224.17 117.91C1209.38 122.43 1207.66 116.21 1204.82 115.08C1201.98 113.95 1195.75 113.95 1187.75 115.08C1179.75 116.21 1174.1 129.2 1172.38 132.59C1170.67 135.98 1170.11 142.75 1167.26 149.53C1164.42 156.31 1162.15 156.31 1156.45 156.87C1150.76 157.43 1146.21 155.74 1135.97 156.87C1125.72 158 1120.04 159.69 1118.32 160.26C1116.61 160.83 1110.36 161.95 1105.22 167.04C1100.08 172.13 1102.37 171.04 1100.09 174.38C1097.82 177.72 1095.55 185.11 1093.84 190.19C1092.12 195.27 1085.87 193.58 1079.04 195.84C1072.21 198.1 1063.68 199.22 1060.26 206.56C1056.84 213.9 1050.59 216.73 1046.61 220.68C1042.63 224.63 1038.65 220.68 1022.14 220.68C1005.63 220.68 1027.83 231.41 998.812 229.8C969.791 228.19 977.187 243.27 972.068 250.05C966.949 256.83 968.652 269.25 961.256 292.4C953.859 315.55 946.453 290.14 926.541 292.4C906.629 294.66 905.491 294.09 896.381 302.56C887.272 311.03 863.38 317.81 851.993 322.81C840.607 327.81 838.339 337.58 834.923 345.62C831.507 353.66 813.299 352.82 793.951 358.47C774.604 364.12 771.188 364.68 763.792 371.23C756.395 377.78 732.493 390.66 731.365 387.83C730.236 385 721.691 380.49 714.395 383.32C707.1 386.15 702.303 400.82 692.095 403.08C681.888 405.34 683.56 387.83 683.56 374.85C683.56 361.87 675.025 362.99 664.777 368.42C654.529 373.85 659.134 376 659.134 376C659.134 376 644.906 385 636.371 376.42C627.836 367.84 624.994 378.82 612.6 377.13C600.205 375.44 609.053 376 603.672 387.85C598.291 399.7 605.687 403.67 603.672 415.53C601.657 427.39 606.211 416.65 609.627 431.53C613.043 446.41 609.627 431.53 612.6 448.32C615.572 465.11 611.905 451.71 603.672 465.26C595.439 478.81 594.835 480.51 589.705 481.94C584.576 483.37 580.032 488.94 572.071 495.3C564.11 501.66 563.002 503.09 564.1 507.05C565.199 511.01 573.774 515.52 580.032 523.99C586.289 532.46 573.21 535.85 570.358 545.99C567.506 556.13 553.862 550.51 549.872 561.99C545.882 573.47 553.288 569.69 557.389 581.55C561.491 593.41 544.753 613.74 535.835 623.9C526.917 634.06 508.91 630.68 493.513 625.6C478.115 620.52 464.472 642.5 452.561 656.05C440.65 669.6 452.561 664.52 437.194 674.68C421.827 684.84 413.302 681.46 386.467 691.68C359.633 701.9 350.131 700.15 343.309 705.23C336.487 710.31 300.623 730.64 268.741 742.5C236.858 754.36 237.412 752.66 217.349 772.99C197.286 793.32 208.431 793.32 199.896 816.99C191.361 840.66 189.658 834.14 181.264 834.14C172.87 834.14 164.043 884.75 164.043 884.75L148.656 922L95.7328 957.57L58.1767 967.74L36.5318 945.74C36.5318 945.74 15.5016 916.94 15.5016 900C15.5016 883.06 29.1557 849.18 26.7876 834.14C24.4196 819.1 25.7799 818.68 26.7876 800.05C27.7953 781.42 29.1557 761.05 36.5318 744.14C43.908 727.23 37.6907 722.14 36.5318 700.14C35.373 678.14 44.5227 666.25 50.3571 642.54C56.1916 618.83 44.5227 613.74 45.4599 596.8C46.397 579.86 58.1767 564.61 65.6134 544.28C73.05 523.95 76.9296 535.81 88.8806 530.73C100.832 525.65 102.545 517.17 111.049 507.01C119.554 496.85 114.465 476.51 111.049 462.4C107.633 448.29 76.8993 476.51 58.1263 471.4C39.3533 466.29 53.0073 462.93 36.4815 440.91C19.9556 418.89 34.1739 433.04 15.4513 431.46C-13.0055 429.05 -6.17346 441.46 -28.9369 428.46L-51.7002 415.46L-90.395 459.7L-149.525 834.14L-138.139 1014.07L78.0884 1156.38L305.198 1194.78L603.621 1181.22L1056.84 1185.74L1521.18 944.05L1557.6 779.16C1557.6 779.16 1594.02 495.26 1598.57 480.22C1603.12 465.18 1605.39 215.98 1598.57 193.76C1591.75 171.54 1462 -86 1462 -86L1336.81 -124.37L1309.5 -31.76L1290.15 -16.51Z" stroke="#595959" stroke-miterlimit="10"/>
<ellipse opacity="0.3" cx="103.754" cy="795.955" rx="0.416667" ry="0.416666" fill="#EE542F"/>
<path fill-rule="evenodd" clip-rule="evenodd" d="M113.743 794.13C113.472 796.043 112.657 797.838 111.395 799.301L103.754 809.288L96.1129 799.301C94.8512 797.838 94.0362 796.043 93.7647 794.13C93.4932 792.217 93.7766 790.266 94.5814 788.509C95.3861 786.752 96.6783 785.264 98.3044 784.22C99.9304 783.177 101.822 782.622 103.754 782.622C105.686 782.622 107.578 783.177 109.204 784.22C110.83 785.264 112.122 786.752 112.927 788.509C113.731 790.266 114.015 792.217 113.743 794.13ZM109.566 792.723C109.566 795.933 106.964 798.535 103.754 798.535C100.544 798.535 97.942 795.933 97.942 792.723C97.942 789.513 100.544 786.91 103.754 786.91C106.964 786.91 109.566 789.513 109.566 792.723Z" fill="#EE542F"/>
<circle cx="103.754" cy="792.722" r="6" fill="white"/>
<ellipse opacity="0.3" cx="770.34" cy="339.867" rx="0.416667" ry="0.416666" fill="#EE542F"/>
<path fill-rule="evenodd" clip-rule="evenodd" d="M780.329 338.042C780.058 339.955 779.243 341.75 777.981 343.213L770.34 353.201L762.699 343.213C761.437 341.75 760.622 339.955 760.351 338.042C760.079 336.129 760.363 334.178 761.167 332.421C761.972 330.665 763.264 329.176 764.89 328.133C766.516 327.089 768.408 326.534 770.34 326.534C772.272 326.534 774.164 327.089 775.79 328.133C777.416 329.176 778.708 330.665 779.513 332.421C780.317 334.178 780.601 336.129 780.329 338.042ZM776.152 336.635C776.152 339.845 773.55 342.447 770.34 342.447C767.13 342.447 764.528 339.845 764.528 336.635C764.528 333.425 767.13 330.823 770.34 330.823C773.55 330.823 776.152 333.425 776.152 336.635Z" fill="#EE542F"/>
<circle cx="770.34" cy="336.634" r="6" fill="white"/>
<ellipse opacity="0.3" cx="687.676" cy="161.787" rx="0.416667" ry="0.416666" fill="#EE542F"/>
<path fill-rule="evenodd" clip-rule="evenodd" d="M697.665 159.962C697.394 161.875 696.579 163.67 695.317 165.133L687.676 175.12L680.035 165.133C678.773 163.67 677.958 161.875 677.687 159.962C677.415 158.049 677.699 156.098 678.503 154.341C679.308 152.585 680.6 151.096 682.226 150.052C683.852 149.009 685.744 148.454 687.676 148.454C689.608 148.454 691.499 149.009 693.125 150.052C694.752 151.096 696.044 152.585 696.848 154.341C697.653 156.098 697.937 158.049 697.665 159.962ZM693.488 158.555C693.488 161.765 690.886 164.367 687.676 164.367C684.466 164.367 681.864 161.765 681.864 158.555C681.864 155.345 684.466 152.742 687.676 152.742C690.886 152.742 693.488 155.345 693.488 158.555Z" fill="#EE542F"/>
<circle cx="687.676" cy="158.554" r="6" fill="white"/>
<ellipse opacity="0.3" cx="939.635" cy="152.554" rx="0.416667" ry="0.416666" fill="#EE542F"/>
<path fill-rule="evenodd" clip-rule="evenodd" d="M949.624 150.728C949.353 152.641 948.538 154.436 947.276 155.9L939.635 165.887L931.994 155.9C930.732 154.436 929.917 152.641 929.646 150.728C929.374 148.815 929.657 146.864 930.462 145.108C931.267 143.351 932.559 141.862 934.185 140.819C935.811 139.775 937.703 139.22 939.635 139.22C941.567 139.22 943.458 139.775 945.084 140.819C946.71 141.862 948.003 143.351 948.807 145.108C949.612 146.864 949.896 148.815 949.624 150.728ZM945.447 149.321C945.447 152.531 942.845 155.134 939.635 155.134C936.425 155.134 933.823 152.531 933.823 149.321C933.823 146.111 936.425 143.509 939.635 143.509C942.845 143.509 945.447 146.111 945.447 149.321Z" fill="#EE542F"/>
<circle cx="939.635" cy="149.32" r="6" fill="white"/>
<path d="M79.1528 771.115C78.2995 771.115 77.5048 770.976 76.7688 770.699C76.0435 770.411 75.4088 770.011 74.8648 769.499C74.3315 768.976 73.9155 768.363 73.6168 767.659C73.3182 766.955 73.1688 766.187 73.1688 765.355C73.1688 764.523 73.3182 763.755 73.6168 763.051C73.9155 762.347 74.3368 761.739 74.8808 761.227C75.4248 760.704 76.0595 760.304 76.7848 760.027C77.5102 759.739 78.3048 759.595 79.1688 759.595C80.0862 759.595 80.9235 759.755 81.6808 760.075C82.4382 760.384 83.0782 760.848 83.6008 761.467L82.2568 762.731C81.8515 762.294 81.3982 761.968 80.8968 761.755C80.3955 761.531 79.8515 761.419 79.2648 761.419C78.6782 761.419 78.1395 761.515 77.6488 761.707C77.1688 761.899 76.7475 762.171 76.3848 762.523C76.0328 762.875 75.7555 763.291 75.5528 763.771C75.3608 764.251 75.2648 764.779 75.2648 765.355C75.2648 765.931 75.3608 766.459 75.5528 766.939C75.7555 767.419 76.0328 767.835 76.3848 768.187C76.7475 768.539 77.1688 768.811 77.6488 769.003C78.1395 769.195 78.6782 769.291 79.2648 769.291C79.8515 769.291 80.3955 769.184 80.8968 768.971C81.3982 768.747 81.8515 768.411 82.2568 767.963L83.6008 769.243C83.0782 769.851 82.4382 770.315 81.6808 770.635C80.9235 770.955 80.0808 771.115 79.1528 771.115ZM90.5877 770.955V769.227L90.4757 768.859V765.835C90.4757 765.248 90.2997 764.795 89.9477 764.475C89.5957 764.144 89.0624 763.979 88.3477 763.979C87.8677 763.979 87.3931 764.054 86.9237 764.203C86.4651 764.352 86.0757 764.56 85.7557 764.827L84.9717 763.371C85.4304 763.019 85.9744 762.758 86.6037 762.587C87.2437 762.406 87.9051 762.315 88.5877 762.315C89.8251 762.315 90.7797 762.614 91.4517 763.211C92.1344 763.798 92.4757 764.71 92.4757 765.947V770.955H90.5877ZM87.8997 771.067C87.2597 771.067 86.6997 770.96 86.2197 770.747C85.7397 770.523 85.3664 770.219 85.0997 769.835C84.8437 769.44 84.7157 768.998 84.7157 768.507C84.7157 768.027 84.8277 767.595 85.0517 767.211C85.2864 766.827 85.6651 766.523 86.1877 766.299C86.7104 766.075 87.4037 765.963 88.2677 765.963H90.7477V767.291H88.4117C87.7291 767.291 87.2704 767.403 87.0357 767.627C86.8011 767.84 86.6837 768.107 86.6837 768.427C86.6837 768.79 86.8277 769.078 87.1157 769.291C87.4037 769.504 87.8037 769.611 88.3157 769.611C88.8064 769.611 89.2437 769.499 89.6277 769.275C90.0224 769.051 90.3051 768.72 90.4757 768.283L90.8117 769.483C90.6197 769.984 90.2731 770.374 89.7717 770.651C89.2811 770.928 88.6571 771.067 87.8997 771.067ZM88.3797 761.243L85.5957 759.051H87.9477L90.1077 761.243H88.3797ZM99.6563 770.955V759.755H101.368L106.264 767.931H105.368L110.184 759.755H111.896L111.912 770.955H109.944L109.928 762.843H110.344L106.248 769.675H105.32L101.16 762.843H101.64V770.955H99.6563ZM120.01 770.955V769.227L119.898 768.859V765.835C119.898 765.248 119.722 764.795 119.37 764.475C119.018 764.144 118.484 763.979 117.77 763.979C117.29 763.979 116.815 764.054 116.346 764.203C115.887 764.352 115.498 764.56 115.178 764.827L114.394 763.371C114.852 763.019 115.396 762.758 116.026 762.587C116.666 762.406 117.327 762.315 118.01 762.315C119.247 762.315 120.202 762.614 120.874 763.211C121.556 763.798 121.898 764.71 121.898 765.947V770.955H120.01ZM117.322 771.067C116.682 771.067 116.122 770.96 115.642 770.747C115.162 770.523 114.788 770.219 114.522 769.835C114.266 769.44 114.138 768.998 114.138 768.507C114.138 768.027 114.25 767.595 114.474 767.211C114.708 766.827 115.087 766.523 115.61 766.299C116.132 766.075 116.826 765.963 117.69 765.963H120.17V767.291H117.834C117.151 767.291 116.692 767.403 116.458 767.627C116.223 767.84 116.106 768.107 116.106 768.427C116.106 768.79 116.25 769.078 116.538 769.291C116.826 769.504 117.226 769.611 117.738 769.611C118.228 769.611 118.666 769.499 119.05 769.275C119.444 769.051 119.727 768.72 119.898 768.283L120.234 769.483C120.042 769.984 119.695 770.374 119.194 770.651C118.703 770.928 118.079 771.067 117.322 771.067ZM128.08 771.067C127.355 771.067 126.715 770.934 126.16 770.667C125.606 770.39 125.174 769.974 124.864 769.419C124.555 768.854 124.4 768.144 124.4 767.291V762.411H126.4V767.019C126.4 767.787 126.571 768.363 126.912 768.747C127.264 769.12 127.76 769.307 128.4 769.307C128.87 769.307 129.275 769.211 129.616 769.019C129.968 768.827 130.24 768.539 130.432 768.155C130.635 767.771 130.736 767.296 130.736 766.731V762.411H132.736V770.955H130.832V768.651L131.168 769.355C130.88 769.91 130.459 770.336 129.904 770.635C129.35 770.923 128.742 771.067 128.08 771.067Z" fill="#EE542F"/>
<ellipse opacity="0.3" cx="559.763" cy="288.867" rx="0.416667" ry="0.416666" fill="#EE542F"/>
<path fill-rule="evenodd" clip-rule="evenodd" d="M569.752 287.042C569.481 288.955 568.666 290.75 567.404 292.213L559.763 302.2L552.122 292.213C550.86 290.75 550.045 288.955 549.773 287.042C549.502 285.129 549.785 283.178 550.59 281.421C551.395 279.665 552.687 278.176 554.313 277.132C555.939 276.089 557.831 275.534 559.763 275.534C561.695 275.534 563.586 276.089 565.212 277.132C566.838 278.176 568.131 279.665 568.935 281.421C569.74 283.178 570.024 285.129 569.752 287.042ZM565.575 285.635C565.575 288.845 562.973 291.447 559.763 291.447C556.553 291.447 553.951 288.845 553.951 285.635C553.951 282.425 556.553 279.822 559.763 279.822C562.973 279.822 565.575 282.425 565.575 285.635Z" fill="#EE542F"/>
<circle cx="559.763" cy="285.634" r="6" fill="white"/>
<ellipse opacity="0.3" cx="177.487" cy="288.867" rx="0.416667" ry="0.416666" fill="#EE542F"/>
<path fill-rule="evenodd" clip-rule="evenodd" d="M187.477 287.042C187.205 288.955 186.39 290.75 185.128 292.213L177.487 302.2L169.846 292.213C168.585 290.75 167.77 288.955 167.498 287.042C167.227 285.129 167.51 283.178 168.315 281.421C169.12 279.665 170.412 278.176 172.038 277.132C173.664 276.089 175.555 275.534 177.487 275.534C179.419 275.534 181.311 276.089 182.937 277.132C184.563 278.176 185.855 279.665 186.66 281.421C187.465 283.178 187.748 285.129 187.477 287.042ZM183.299 285.635C183.299 288.845 180.697 291.447 177.487 291.447C174.277 291.447 171.675 288.845 171.675 285.635C171.675 282.425 174.277 279.822 177.487 279.822C180.697 279.822 183.299 282.425 183.299 285.635Z" fill="#EE542F"/>
<circle cx="177.487" cy="285.634" r="6" fill="white"/>
<ellipse opacity="0.3" cx="458" cy="133.554" rx="0.416667" ry="0.416666" fill="#EE542F"/>
<path fill-rule="evenodd" clip-rule="evenodd" d="M467.989 131.728C467.718 133.641 466.903 135.436 465.641 136.9L458 146.887L450.359 136.9C449.097 135.436 448.282 133.641 448.011 131.728C447.739 129.815 448.023 127.864 448.827 126.108C449.632 124.351 450.924 122.862 452.55 121.819C454.176 120.775 456.068 120.22 458 120.22C459.932 120.22 461.824 120.775 463.45 121.819C465.076 122.862 466.368 124.351 467.173 126.108C467.977 127.864 468.261 129.815 467.989 131.728ZM463.812 130.321C463.812 133.531 461.21 136.134 458 136.134C454.79 136.134 452.188 133.531 452.188 130.321C452.188 127.111 454.79 124.509 458 124.509C461.21 124.509 463.812 127.111 463.812 130.321Z" fill="#EE542F"/>
<circle cx="458" cy="130.32" r="6" fill="white"/>
<ellipse opacity="0.3" cx="443.652" cy="461.04" rx="0.416667" ry="0.416666" fill="#EE542F"/>
<path fill-rule="evenodd" clip-rule="evenodd" d="M453.642 459.214C453.37 461.127 452.555 462.922 451.293 464.385L443.652 474.373L436.011 464.385C434.75 462.922 433.935 461.127 433.663 459.214C433.392 457.301 433.675 455.35 434.48 453.594C435.285 451.837 436.577 450.348 438.203 449.305C439.829 448.261 441.72 447.706 443.652 447.706C445.585 447.706 447.476 448.261 449.102 449.305C450.728 450.348 452.02 451.837 452.825 453.594C453.63 455.35 453.913 457.301 453.642 459.214ZM449.464 457.807C449.464 461.017 446.862 463.619 443.652 463.619C440.443 463.619 437.84 461.017 437.84 457.807C437.84 454.597 440.443 451.995 443.652 451.995C446.862 451.995 449.464 454.597 449.464 457.807Z" fill="#EE542F"/>
<circle cx="443.652" cy="457.806" r="6" fill="white"/>
<path d="M526.049 310H528.129V321.2H526.049V310ZM520.257 321.2H518.177V310H520.257V321.2ZM526.209 316.4H520.081V314.624H526.209V316.4ZM534.778 321.312C533.903 321.312 533.125 321.126 532.442 320.752C531.759 320.368 531.221 319.846 530.826 319.184C530.431 318.523 530.234 317.771 530.234 316.928C530.234 316.075 530.431 315.323 530.826 314.672C531.221 314.011 531.759 313.494 532.442 313.12C533.125 312.747 533.903 312.56 534.778 312.56C535.663 312.56 536.447 312.747 537.13 313.12C537.823 313.494 538.362 314.006 538.746 314.656C539.141 315.307 539.338 316.064 539.338 316.928C539.338 317.771 539.141 318.523 538.746 319.184C538.362 319.846 537.823 320.368 537.13 320.752C536.447 321.126 535.663 321.312 534.778 321.312ZM534.778 319.6C535.269 319.6 535.706 319.494 536.09 319.28C536.474 319.067 536.773 318.758 536.986 318.352C537.21 317.947 537.322 317.472 537.322 316.928C537.322 316.374 537.21 315.899 536.986 315.504C536.773 315.099 536.474 314.79 536.09 314.576C535.706 314.363 535.274 314.256 534.794 314.256C534.303 314.256 533.866 314.363 533.482 314.576C533.109 314.79 532.81 315.099 532.586 315.504C532.362 315.899 532.25 316.374 532.25 316.928C532.25 317.472 532.362 317.947 532.586 318.352C532.81 318.758 533.109 319.067 533.482 319.28C533.866 319.494 534.298 319.6 534.778 319.6ZM531.706 311.488L533.866 309.776H535.658L537.818 311.488H536.154L534.01 310.128H535.514L533.37 311.488H531.706ZM537.45 310.016L535.018 308.144H537.162L538.986 310.016H537.45ZM551.048 321.36C550.195 321.36 549.4 321.222 548.664 320.944C547.939 320.656 547.304 320.256 546.76 319.744C546.227 319.222 545.811 318.608 545.512 317.904C545.214 317.2 545.064 316.432 545.064 315.6C545.064 314.768 545.214 314 545.512 313.296C545.811 312.592 546.232 311.984 546.776 311.472C547.32 310.95 547.955 310.55 548.68 310.272C549.406 309.984 550.2 309.84 551.064 309.84C551.982 309.84 552.819 310 553.576 310.32C554.334 310.63 554.974 311.094 555.496 311.712L554.152 312.976C553.747 312.539 553.294 312.214 552.792 312C552.291 311.776 551.747 311.664 551.16 311.664C550.574 311.664 550.035 311.76 549.544 311.952C549.064 312.144 548.643 312.416 548.28 312.768C547.928 313.12 547.651 313.536 547.448 314.016C547.256 314.496 547.16 315.024 547.16 315.6C547.16 316.176 547.256 316.704 547.448 317.184C547.651 317.664 547.928 318.08 548.28 318.432C548.643 318.784 549.064 319.056 549.544 319.248C550.035 319.44 550.574 319.536 551.16 319.536C551.747 319.536 552.291 319.43 552.792 319.216C553.294 318.992 553.747 318.656 554.152 318.208L555.496 319.488C554.974 320.096 554.334 320.56 553.576 320.88C552.819 321.2 551.976 321.36 551.048 321.36ZM562.145 312.56C562.828 312.56 563.436 312.694 563.969 312.96C564.513 313.227 564.94 313.638 565.249 314.192C565.559 314.736 565.713 315.44 565.713 316.304V321.2H563.713V316.56C563.713 315.803 563.532 315.238 563.169 314.864C562.817 314.491 562.321 314.304 561.681 314.304C561.212 314.304 560.796 314.4 560.433 314.592C560.071 314.784 559.788 315.072 559.585 315.456C559.393 315.83 559.297 316.304 559.297 316.88V321.2H557.297V309.328H559.297V314.96L558.865 314.256C559.164 313.712 559.596 313.296 560.161 313.008C560.737 312.71 561.399 312.56 562.145 312.56ZM568.25 321.2V312.656H570.25V321.2H568.25ZM567.914 311.488L570.074 309.296H572.426L569.642 311.488H567.914ZM577.489 321.2V310H579.201L584.097 318.176H583.201L588.017 310H589.729L589.745 321.2H587.777L587.761 313.088H588.177L584.081 319.92H583.153L578.993 313.088H579.473V321.2H577.489ZM592.579 321.2V312.656H594.579V321.2H592.579ZM593.587 311.248C593.213 311.248 592.904 311.131 592.659 310.896C592.424 310.662 592.307 310.379 592.307 310.048C592.307 309.707 592.424 309.424 592.659 309.2C592.904 308.966 593.213 308.848 593.587 308.848C593.96 308.848 594.264 308.96 594.499 309.184C594.744 309.398 594.867 309.67 594.867 310C594.867 310.352 594.749 310.651 594.515 310.896C594.28 311.131 593.971 311.248 593.587 311.248ZM602.052 312.56C602.734 312.56 603.342 312.694 603.876 312.96C604.42 313.227 604.846 313.638 605.156 314.192C605.465 314.736 605.62 315.44 605.62 316.304V321.2H603.62V316.56C603.62 315.803 603.438 315.238 603.076 314.864C602.724 314.491 602.228 314.304 601.588 314.304C601.118 314.304 600.702 314.4 600.34 314.592C599.977 314.784 599.694 315.072 599.492 315.456C599.3 315.83 599.204 316.304 599.204 316.88V321.2H597.204V312.656H599.108V314.96L598.772 314.256C599.07 313.712 599.502 313.296 600.068 313.008C600.644 312.71 601.305 312.56 602.052 312.56ZM613.005 312.56C613.687 312.56 614.295 312.694 614.829 312.96C615.373 313.227 615.799 313.638 616.109 314.192C616.418 314.736 616.573 315.44 616.573 316.304V321.2H614.573V316.56C614.573 315.803 614.391 315.238 614.029 314.864C613.677 314.491 613.181 314.304 612.541 314.304C612.071 314.304 611.655 314.4 611.293 314.592C610.93 314.784 610.647 315.072 610.445 315.456C610.253 315.83 610.157 316.304 610.157 316.88V321.2H608.157V309.328H610.157V314.96L609.725 314.256C610.023 313.712 610.455 313.296 611.021 313.008C611.597 312.71 612.258 312.56 613.005 312.56Z" fill="#EE542F"/>
<path d="M143.878 257.027C143.025 257.027 142.23 256.889 141.494 256.611C140.769 256.323 140.134 255.923 139.59 255.411C139.057 254.889 138.641 254.275 138.342 253.571C138.044 252.867 137.894 252.099 137.894 251.267C137.894 250.435 138.044 249.667 138.342 248.963C138.641 248.259 139.062 247.651 139.606 247.139C140.15 246.617 140.785 246.217 141.51 245.939C142.236 245.651 143.03 245.507 143.894 245.507C144.812 245.507 145.649 245.667 146.406 245.987C147.164 246.297 147.804 246.761 148.326 247.379L146.982 248.643C146.577 248.206 146.124 247.881 145.622 247.667C145.121 247.443 144.577 247.331 143.99 247.331C143.404 247.331 142.865 247.427 142.374 247.619C141.894 247.811 141.473 248.083 141.11 248.435C140.758 248.787 140.481 249.203 140.278 249.683C140.086 250.163 139.99 250.691 139.99 251.267C139.99 251.843 140.086 252.371 140.278 252.851C140.481 253.331 140.758 253.747 141.11 254.099C141.473 254.451 141.894 254.723 142.374 254.915C142.865 255.107 143.404 255.203 143.99 255.203C144.577 255.203 145.121 255.097 145.622 254.883C146.124 254.659 146.577 254.323 146.982 253.875L148.326 255.155C147.804 255.763 147.164 256.227 146.406 256.547C145.649 256.867 144.806 257.027 143.878 257.027ZM154.975 248.227C155.658 248.227 156.266 248.361 156.799 248.627C157.343 248.894 157.77 249.305 158.079 249.859C158.389 250.403 158.543 251.107 158.543 251.971V256.867H156.543V252.227C156.543 251.47 156.362 250.905 155.999 250.531C155.647 250.158 155.151 249.971 154.511 249.971C154.042 249.971 153.626 250.067 153.263 250.259C152.901 250.451 152.618 250.739 152.415 251.123C152.223 251.497 152.127 251.971 152.127 252.547V256.867H150.127V244.995H152.127V250.627L151.695 249.923C151.994 249.379 152.426 248.963 152.991 248.675C153.567 248.377 154.229 248.227 154.975 248.227ZM166.345 256.867V255.139L166.233 254.771V251.747C166.233 251.161 166.057 250.707 165.705 250.387C165.353 250.057 164.819 249.891 164.105 249.891C163.625 249.891 163.15 249.966 162.681 250.115C162.222 250.265 161.833 250.473 161.513 250.739L160.729 249.283C161.187 248.931 161.731 248.67 162.361 248.499C163.001 248.318 163.662 248.227 164.345 248.227C165.582 248.227 166.537 248.526 167.209 249.123C167.891 249.71 168.233 250.622 168.233 251.859V256.867H166.345ZM163.657 256.979C163.017 256.979 162.457 256.873 161.977 256.659C161.497 256.435 161.123 256.131 160.857 255.747C160.601 255.353 160.473 254.91 160.473 254.419C160.473 253.939 160.585 253.507 160.809 253.123C161.043 252.739 161.422 252.435 161.945 252.211C162.467 251.987 163.161 251.875 164.025 251.875H166.505V253.203H164.169C163.486 253.203 163.027 253.315 162.793 253.539C162.558 253.753 162.441 254.019 162.441 254.339C162.441 254.702 162.585 254.99 162.873 255.203C163.161 255.417 163.561 255.523 164.073 255.523C164.563 255.523 165.001 255.411 165.385 255.187C165.779 254.963 166.062 254.633 166.233 254.195L166.569 255.395C166.377 255.897 166.03 256.286 165.529 256.563C165.038 256.841 164.414 256.979 163.657 256.979ZM161.465 247.155L163.609 244.963H165.433L167.577 247.155H165.929L163.753 245.315H165.289L163.113 247.155H161.465ZM174.415 256.979C173.69 256.979 173.05 256.846 172.495 256.579C171.941 256.302 171.509 255.886 171.199 255.331C170.89 254.766 170.735 254.057 170.735 253.203V248.323H172.735V252.931C172.735 253.699 172.906 254.275 173.247 254.659C173.599 255.033 174.095 255.219 174.735 255.219C175.205 255.219 175.61 255.123 175.951 254.931C176.303 254.739 176.575 254.451 176.767 254.067C176.97 253.683 177.071 253.209 177.071 252.643V248.323H179.071V256.867H177.167V254.563L177.503 255.267C177.215 255.822 176.794 256.249 176.239 256.547C175.685 256.835 175.077 256.979 174.415 256.979ZM186.464 256.867V245.667H191.36C192.576 245.667 193.642 245.902 194.56 246.371C195.477 246.841 196.192 247.491 196.704 248.323C197.216 249.155 197.472 250.137 197.472 251.267C197.472 252.387 197.216 253.369 196.704 254.211C196.192 255.043 195.477 255.694 194.56 256.163C193.642 256.633 192.576 256.867 191.36 256.867H186.464ZM188.544 255.107H191.264C192.106 255.107 192.832 254.947 193.44 254.627C194.058 254.307 194.533 253.859 194.864 253.283C195.205 252.707 195.376 252.035 195.376 251.267C195.376 250.489 195.205 249.817 194.864 249.251C194.533 248.675 194.058 248.227 193.44 247.907C192.832 247.587 192.106 247.427 191.264 247.427H188.544V255.107ZM184.896 251.939V250.403H191.552V251.939H184.896ZM203.327 256.979C202.452 256.979 201.673 256.793 200.991 256.419C200.308 256.035 199.769 255.513 199.375 254.851C198.98 254.19 198.783 253.438 198.783 252.595C198.783 251.742 198.98 250.99 199.375 250.339C199.769 249.678 200.308 249.161 200.991 248.787C201.673 248.414 202.452 248.227 203.327 248.227C204.212 248.227 204.996 248.414 205.679 248.787C206.372 249.161 206.911 249.673 207.295 250.323C207.689 250.974 207.887 251.731 207.887 252.595C207.887 253.438 207.689 254.19 207.295 254.851C206.911 255.513 206.372 256.035 205.679 256.419C204.996 256.793 204.212 256.979 203.327 256.979ZM203.327 255.267C203.817 255.267 204.255 255.161 204.639 254.947C205.023 254.734 205.321 254.425 205.535 254.019C205.759 253.614 205.871 253.139 205.871 252.595C205.871 252.041 205.759 251.566 205.535 251.171C205.321 250.766 205.023 250.457 204.639 250.243C204.255 250.03 203.823 249.923 203.343 249.923C202.852 249.923 202.415 250.03 202.031 250.243C201.657 250.457 201.359 250.766 201.135 251.171C200.911 251.566 200.799 252.041 200.799 252.595C200.799 253.139 200.911 253.614 201.135 254.019C201.359 254.425 201.657 254.734 202.031 254.947C202.415 255.161 202.847 255.267 203.327 255.267ZM200.255 247.155L202.415 245.443H204.207L206.367 247.155H204.703L202.559 245.795H204.063L201.919 247.155H200.255ZM205.055 245.683L206.879 243.811H209.023L206.591 245.683H205.055ZM213.719 256.979C212.823 256.979 212.023 256.793 211.319 256.419C210.626 256.035 210.082 255.513 209.687 254.851C209.293 254.19 209.095 253.438 209.095 252.595C209.095 251.742 209.293 250.99 209.687 250.339C210.082 249.678 210.626 249.161 211.319 248.787C212.023 248.414 212.823 248.227 213.719 248.227C214.551 248.227 215.282 248.398 215.911 248.739C216.551 249.07 217.037 249.561 217.367 250.211L215.831 251.107C215.575 250.702 215.261 250.403 214.887 250.211C214.525 250.019 214.13 249.923 213.703 249.923C213.213 249.923 212.77 250.03 212.375 250.243C211.981 250.457 211.671 250.766 211.447 251.171C211.223 251.566 211.111 252.041 211.111 252.595C211.111 253.15 211.223 253.63 211.447 254.035C211.671 254.43 211.981 254.734 212.375 254.947C212.77 255.161 213.213 255.267 213.703 255.267C214.13 255.267 214.525 255.171 214.887 254.979C215.261 254.787 215.575 254.489 215.831 254.083L217.367 254.979C217.037 255.619 216.551 256.115 215.911 256.467C215.282 256.809 214.551 256.979 213.719 256.979Z" fill="#EE542F"/>
<path d="M425.331 101.554V92.1137H421.619V90.3537H431.123V92.1137H427.411V101.554H425.331ZM437.303 101.554V99.8257L437.191 99.4577V96.4337C437.191 95.847 437.015 95.3937 436.663 95.0737C436.311 94.743 435.777 94.5777 435.063 94.5777C434.583 94.5777 434.108 94.6524 433.639 94.8017C433.18 94.951 432.791 95.159 432.471 95.4257L431.687 93.9697C432.145 93.6177 432.689 93.3564 433.319 93.1857C433.959 93.0044 434.62 92.9137 435.303 92.9137C436.54 92.9137 437.495 93.2124 438.167 93.8097C438.849 94.3964 439.191 95.3084 439.191 96.5457V101.554H437.303ZM434.615 101.666C433.975 101.666 433.415 101.559 432.935 101.346C432.455 101.122 432.081 100.818 431.815 100.434C431.559 100.039 431.431 99.5964 431.431 99.1057C431.431 98.6257 431.543 98.1937 431.767 97.8097C432.001 97.4257 432.38 97.1217 432.903 96.8977C433.425 96.6737 434.119 96.5617 434.983 96.5617H437.463V97.8897H435.127C434.444 97.8897 433.985 98.0017 433.751 98.2257C433.516 98.439 433.399 98.7057 433.399 99.0257C433.399 99.3884 433.543 99.6764 433.831 99.8897C434.119 100.103 434.519 100.21 435.031 100.21C435.521 100.21 435.959 100.098 436.343 99.8737C436.737 99.6497 437.02 99.319 437.191 98.8817L437.527 100.082C437.335 100.583 436.988 100.972 436.487 101.25C435.996 101.527 435.372 101.666 434.615 101.666ZM432.423 91.8417L434.567 89.6497H436.391L438.535 91.8417H436.887L434.711 90.0017H436.247L434.071 91.8417H432.423ZM442.305 104.77C441.889 104.77 441.473 104.7 441.057 104.562C440.641 104.423 440.294 104.231 440.017 103.986L440.817 102.514C441.02 102.695 441.249 102.839 441.505 102.946C441.761 103.052 442.022 103.106 442.289 103.106C442.652 103.106 442.945 103.015 443.169 102.834C443.393 102.652 443.601 102.348 443.793 101.922L444.289 100.802L444.449 100.562L447.681 93.0097H449.601L445.601 102.242C445.334 102.882 445.036 103.388 444.705 103.762C444.385 104.135 444.022 104.396 443.617 104.546C443.222 104.695 442.785 104.77 442.305 104.77ZM444.065 101.858L440.209 93.0097H442.289L445.425 100.386L444.065 101.858ZM455.465 101.554V90.3537H457.177L464.201 98.9777H463.353V90.3537H465.417V101.554H463.705L456.681 92.9297H457.529V101.554H455.465ZM468.226 101.554V93.0097H470.226V101.554H468.226ZM469.234 91.6017C468.861 91.6017 468.551 91.4844 468.306 91.2497C468.071 91.015 467.954 90.7324 467.954 90.4017C467.954 90.0604 468.071 89.7777 468.306 89.5537C468.551 89.319 468.861 89.2017 469.234 89.2017C469.607 89.2017 469.911 89.3137 470.146 89.5377C470.391 89.751 470.514 90.023 470.514 90.3537C470.514 90.7057 470.397 91.0044 470.162 91.2497C469.927 91.4844 469.618 91.6017 469.234 91.6017ZM477.699 92.9137C478.382 92.9137 478.99 93.047 479.523 93.3137C480.067 93.5804 480.494 93.991 480.803 94.5457C481.112 95.0897 481.267 95.7937 481.267 96.6577V101.554H479.267V96.9137C479.267 96.1564 479.086 95.591 478.723 95.2177C478.371 94.8444 477.875 94.6577 477.235 94.6577C476.766 94.6577 476.35 94.7537 475.987 94.9457C475.624 95.1377 475.342 95.4257 475.139 95.8097C474.947 96.183 474.851 96.6577 474.851 97.2337V101.554H472.851V93.0097H474.755V95.3137L474.419 94.6097C474.718 94.0657 475.15 93.6497 475.715 93.3617C476.291 93.063 476.952 92.9137 477.699 92.9137ZM488.652 92.9137C489.335 92.9137 489.943 93.047 490.476 93.3137C491.02 93.5804 491.447 93.991 491.756 94.5457C492.066 95.0897 492.22 95.7937 492.22 96.6577V101.554H490.22V96.9137C490.22 96.1564 490.039 95.591 489.676 95.2177C489.324 94.8444 488.828 94.6577 488.188 94.6577C487.719 94.6577 487.303 94.7537 486.94 94.9457C486.578 95.1377 486.295 95.4257 486.092 95.8097C485.9 96.183 485.804 96.6577 485.804 97.2337V101.554H483.804V89.6817H485.804V95.3137L485.372 94.6097C485.671 94.0657 486.103 93.6497 486.668 93.3617C487.244 93.063 487.906 92.9137 488.652 92.9137Z" fill="#EE542F"/>
<path d="M405.976 429.04L401.08 417.84H403.336L407.704 427.968H406.408L410.824 417.84H412.904L408.024 429.04H405.976ZM414.613 429.04V420.496H416.613V429.04H414.613ZM416.629 419.328C416.383 419.328 416.165 419.28 415.973 419.184C415.791 419.077 415.626 418.954 415.477 418.816C415.338 418.666 415.21 418.538 415.093 418.432C414.975 418.325 414.853 418.272 414.725 418.272C414.554 418.272 414.426 418.357 414.341 418.528C414.255 418.688 414.213 418.922 414.213 419.232H413.157C413.157 418.538 413.285 418.01 413.541 417.648C413.797 417.274 414.154 417.088 414.613 417.088C414.869 417.088 415.087 417.141 415.269 417.248C415.45 417.354 415.61 417.477 415.749 417.616C415.898 417.754 416.031 417.877 416.149 417.984C416.266 418.09 416.389 418.144 416.517 418.144C416.687 418.144 416.815 418.064 416.901 417.904C416.986 417.733 417.029 417.509 417.029 417.232H418.085C418.085 417.904 417.957 418.421 417.701 418.784C417.445 419.146 417.087 419.328 416.629 419.328ZM424.086 420.4C424.768 420.4 425.376 420.533 425.91 420.8C426.454 421.066 426.88 421.477 427.19 422.032C427.499 422.576 427.654 423.28 427.654 424.144V429.04H425.654V424.4C425.654 423.642 425.472 423.077 425.11 422.704C424.758 422.33 424.262 422.144 423.622 422.144C423.152 422.144 422.736 422.24 422.374 422.432C422.011 422.624 421.728 422.912 421.526 423.296C421.334 423.669 421.238 424.144 421.238 424.72V429.04H419.238V420.496H421.142V422.8L420.806 422.096C421.104 421.552 421.536 421.136 422.102 420.848C422.678 420.549 423.339 420.4 424.086 420.4ZM435.039 420.4C435.722 420.4 436.33 420.533 436.863 420.8C437.407 421.066 437.834 421.477 438.143 422.032C438.452 422.576 438.607 423.28 438.607 424.144V429.04H436.607V424.4C436.607 423.642 436.426 423.077 436.063 422.704C435.711 422.33 435.215 422.144 434.575 422.144C434.106 422.144 433.69 422.24 433.327 422.432C432.964 422.624 432.682 422.912 432.479 423.296C432.287 423.669 432.191 424.144 432.191 424.72V429.04H430.191V417.168H432.191V422.8L431.759 422.096C432.058 421.552 432.49 421.136 433.055 420.848C433.631 420.549 434.292 420.4 435.039 420.4ZM445.758 429.04V417.84H447.838V427.28H453.694V429.04H445.758ZM458.906 429.152C458.031 429.152 457.253 428.965 456.57 428.592C455.887 428.208 455.349 427.685 454.954 427.024C454.559 426.362 454.362 425.61 454.362 424.768C454.362 423.914 454.559 423.162 454.954 422.512C455.349 421.85 455.887 421.333 456.57 420.96C457.253 420.586 458.031 420.4 458.906 420.4C459.791 420.4 460.575 420.586 461.258 420.96C461.951 421.333 462.49 421.845 462.874 422.496C463.269 423.146 463.466 423.904 463.466 424.768C463.466 425.61 463.269 426.362 462.874 427.024C462.49 427.685 461.951 428.208 461.258 428.592C460.575 428.965 459.791 429.152 458.906 429.152ZM458.906 427.44C459.397 427.44 459.834 427.333 460.218 427.12C460.602 426.906 460.901 426.597 461.114 426.192C461.338 425.786 461.45 425.312 461.45 424.768C461.45 424.213 461.338 423.738 461.114 423.344C460.901 422.938 460.602 422.629 460.218 422.416C459.834 422.202 459.402 422.096 458.922 422.096C458.431 422.096 457.994 422.202 457.61 422.416C457.237 422.629 456.938 422.938 456.714 423.344C456.49 423.738 456.378 424.213 456.378 424.768C456.378 425.312 456.49 425.786 456.714 426.192C456.938 426.597 457.237 426.906 457.61 427.12C457.994 427.333 458.426 427.44 458.906 427.44ZM470.226 420.4C470.909 420.4 471.517 420.533 472.05 420.8C472.594 421.066 473.021 421.477 473.33 422.032C473.64 422.576 473.794 423.28 473.794 424.144V429.04H471.794V424.4C471.794 423.642 471.613 423.077 471.25 422.704C470.898 422.33 470.402 422.144 469.762 422.144C469.293 422.144 468.877 422.24 468.514 422.432C468.152 422.624 467.869 422.912 467.666 423.296C467.474 423.669 467.378 424.144 467.378 424.72V429.04H465.378V420.496H467.282V422.8L466.946 422.096C467.245 421.552 467.677 421.136 468.242 420.848C468.818 420.549 469.48 420.4 470.226 420.4ZM480.219 432.256C479.43 432.256 478.656 432.149 477.899 431.936C477.152 431.733 476.539 431.434 476.059 431.04L476.955 429.536C477.328 429.845 477.798 430.09 478.363 430.272C478.939 430.464 479.52 430.56 480.107 430.56C481.046 430.56 481.734 430.341 482.171 429.904C482.608 429.477 482.827 428.832 482.827 427.968V426.448L482.987 424.512L482.923 422.576V420.496H484.827V427.744C484.827 429.29 484.432 430.426 483.643 431.152C482.854 431.888 481.712 432.256 480.219 432.256ZM479.963 428.656C479.152 428.656 478.416 428.485 477.755 428.144C477.104 427.792 476.587 427.306 476.203 426.688C475.83 426.069 475.643 425.344 475.643 424.512C475.643 423.69 475.83 422.97 476.203 422.352C476.587 421.733 477.104 421.253 477.755 420.912C478.416 420.57 479.152 420.4 479.963 420.4C480.688 420.4 481.339 420.544 481.915 420.832C482.491 421.12 482.95 421.568 483.291 422.176C483.643 422.784 483.819 423.562 483.819 424.512C483.819 425.461 483.643 426.245 483.291 426.864C482.95 427.472 482.491 427.925 481.915 428.224C481.339 428.512 480.688 428.656 479.963 428.656ZM480.267 426.96C480.768 426.96 481.216 426.858 481.611 426.656C482.006 426.442 482.31 426.154 482.523 425.792C482.747 425.418 482.859 424.992 482.859 424.512C482.859 424.032 482.747 423.61 482.523 423.248C482.31 422.874 482.006 422.592 481.611 422.4C481.216 422.197 480.768 422.096 480.267 422.096C479.766 422.096 479.312 422.197 478.907 422.4C478.512 422.592 478.203 422.874 477.979 423.248C477.766 423.61 477.659 424.032 477.659 424.512C477.659 424.992 477.766 425.418 477.979 425.792C478.203 426.154 478.512 426.442 478.907 426.656C479.312 426.858 479.766 426.96 480.267 426.96Z" fill="#EE542F"/>
<path d="M727.047 307.867V296.667H731.655C732.647 296.667 733.495 296.827 734.199 297.147C734.914 297.467 735.463 297.926 735.847 298.523C736.231 299.121 736.423 299.83 736.423 300.651C736.423 301.473 736.231 302.182 735.847 302.779C735.463 303.377 734.914 303.835 734.199 304.155C733.495 304.475 732.647 304.635 731.655 304.635H728.199L729.127 303.659V307.867H727.047ZM729.127 303.883L728.199 302.875H731.559C732.476 302.875 733.164 302.683 733.623 302.299C734.092 301.905 734.327 301.355 734.327 300.651C734.327 299.937 734.092 299.387 733.623 299.003C733.164 298.619 732.476 298.427 731.559 298.427H728.199L729.127 297.403V303.883ZM743.312 299.227C743.995 299.227 744.603 299.361 745.136 299.627C745.68 299.894 746.107 300.305 746.416 300.859C746.726 301.403 746.88 302.107 746.88 302.971V307.867H744.88V303.227C744.88 302.47 744.699 301.905 744.336 301.531C743.984 301.158 743.488 300.971 742.848 300.971C742.379 300.971 741.963 301.067 741.6 301.259C741.238 301.451 740.955 301.739 740.752 302.123C740.56 302.497 740.464 302.971 740.464 303.547V307.867H738.464V295.995H740.464V301.627L740.032 300.923C740.331 300.379 740.763 299.963 741.328 299.675C741.904 299.377 742.566 299.227 743.312 299.227ZM754.681 307.867V306.139L754.569 305.771V302.747C754.569 302.161 754.393 301.707 754.041 301.387C753.689 301.057 753.156 300.891 752.441 300.891C751.961 300.891 751.487 300.966 751.017 301.115C750.559 301.265 750.169 301.473 749.849 301.739L749.065 300.283C749.524 299.931 750.068 299.67 750.697 299.499C751.337 299.318 751.999 299.227 752.681 299.227C753.919 299.227 754.873 299.526 755.545 300.123C756.228 300.71 756.569 301.622 756.569 302.859V307.867H754.681ZM751.993 307.979C751.353 307.979 750.793 307.873 750.313 307.659C749.833 307.435 749.46 307.131 749.193 306.747C748.937 306.353 748.809 305.91 748.809 305.419C748.809 304.939 748.921 304.507 749.145 304.123C749.38 303.739 749.759 303.435 750.281 303.211C750.804 302.987 751.497 302.875 752.361 302.875H754.841V304.203H752.505C751.823 304.203 751.364 304.315 751.129 304.539C750.895 304.753 750.777 305.019 750.777 305.339C750.777 305.702 750.921 305.99 751.209 306.203C751.497 306.417 751.897 306.523 752.409 306.523C752.9 306.523 753.337 306.411 753.721 306.187C754.116 305.963 754.399 305.633 754.569 305.195L754.905 306.395C754.713 306.897 754.367 307.286 753.865 307.563C753.375 307.841 752.751 307.979 751.993 307.979ZM763.984 299.227C764.667 299.227 765.275 299.361 765.808 299.627C766.352 299.894 766.779 300.305 767.088 300.859C767.398 301.403 767.552 302.107 767.552 302.971V307.867H765.552V303.227C765.552 302.47 765.371 301.905 765.008 301.531C764.656 301.158 764.16 300.971 763.52 300.971C763.051 300.971 762.635 301.067 762.272 301.259C761.91 301.451 761.627 301.739 761.424 302.123C761.232 302.497 761.136 302.971 761.136 303.547V307.867H759.136V299.323H761.04V301.627L760.704 300.923C761.003 300.379 761.435 299.963 762 299.675C762.576 299.377 763.238 299.227 763.984 299.227ZM776.975 307.867V298.427H773.263V296.667H782.767V298.427H779.055V307.867H776.975ZM788.984 299.227C789.667 299.227 790.275 299.361 790.808 299.627C791.352 299.894 791.779 300.305 792.088 300.859C792.398 301.403 792.552 302.107 792.552 302.971V307.867H790.552V303.227C790.552 302.47 790.371 301.905 790.008 301.531C789.656 301.158 789.16 300.971 788.52 300.971C788.051 300.971 787.635 301.067 787.272 301.259C786.91 301.451 786.627 301.739 786.424 302.123C786.232 302.497 786.136 302.971 786.136 303.547V307.867H784.136V295.995H786.136V301.627L785.704 300.923C786.003 300.379 786.435 299.963 787 299.675C787.576 299.377 788.238 299.227 788.984 299.227ZM795.089 307.867V299.323H797.089V307.867H795.089ZM796.097 297.915C795.724 297.915 795.415 297.798 795.169 297.563C794.935 297.329 794.817 297.046 794.817 296.715C794.817 296.374 794.935 296.091 795.169 295.867C795.415 295.633 795.724 295.515 796.097 295.515C796.471 295.515 796.775 295.627 797.009 295.851C797.255 296.065 797.377 296.337 797.377 296.667C797.377 297.019 797.26 297.318 797.025 297.563C796.791 297.798 796.481 297.915 796.097 297.915ZM803.73 307.979C802.781 307.979 801.949 307.793 801.234 307.419C800.53 307.035 799.981 306.513 799.586 305.851C799.202 305.19 799.01 304.438 799.01 303.595C799.01 302.742 799.197 301.99 799.57 301.339C799.954 300.678 800.477 300.161 801.138 299.787C801.81 299.414 802.573 299.227 803.426 299.227C804.258 299.227 805 299.409 805.65 299.771C806.301 300.134 806.813 300.646 807.186 301.307C807.56 301.969 807.746 302.747 807.746 303.643C807.746 303.729 807.741 303.825 807.73 303.931C807.73 304.038 807.725 304.139 807.714 304.235H800.594V302.907H806.658L805.874 303.323C805.885 302.833 805.784 302.401 805.57 302.027C805.357 301.654 805.064 301.361 804.69 301.147C804.328 300.934 803.906 300.827 803.426 300.827C802.936 300.827 802.504 300.934 802.13 301.147C801.768 301.361 801.48 301.659 801.266 302.043C801.064 302.417 800.962 302.859 800.962 303.371V303.691C800.962 304.203 801.08 304.657 801.314 305.051C801.549 305.446 801.88 305.75 802.306 305.963C802.733 306.177 803.224 306.283 803.778 306.283C804.258 306.283 804.69 306.209 805.074 306.059C805.458 305.91 805.8 305.675 806.098 305.355L807.17 306.587C806.786 307.035 806.301 307.382 805.714 307.627C805.138 307.862 804.477 307.979 803.73 307.979ZM800.322 298.155L802.482 296.443H804.274L806.434 298.155H804.77L802.626 296.795H804.13L801.986 298.155H800.322ZM805.122 296.683L806.946 294.811H809.09L806.658 296.683H805.122ZM812.883 307.979C811.945 307.979 811.219 307.739 810.707 307.259C810.195 306.769 809.939 306.049 809.939 305.099V297.435H811.939V305.051C811.939 305.457 812.041 305.771 812.243 305.995C812.457 306.219 812.75 306.331 813.123 306.331C813.571 306.331 813.945 306.214 814.243 305.979L814.803 307.403C814.569 307.595 814.281 307.739 813.939 307.835C813.598 307.931 813.246 307.979 812.883 307.979ZM808.531 300.987V299.387H814.227V300.987H808.531Z" fill="#EE542F"/>
<path d="M178.04 294.068C257.833 195.916 507.635 214.057 551.258 283.126" stroke="#EE542F" stroke-linecap="round" stroke-dasharray="8 8"/>
<path d="M686.27 166.784C614.503 174.959 575.836 204.647 560.343 275.859" stroke="#EE542F" stroke-linecap="round" stroke-dasharray="8 8"/>
<path d="M650.34 129.787V118.587H655.236C656.452 118.587 657.518 118.822 658.436 119.291C659.353 119.76 660.068 120.411 660.58 121.243C661.092 122.075 661.348 123.056 661.348 124.187C661.348 125.307 661.092 126.288 660.58 127.131C660.068 127.963 659.353 128.614 658.436 129.083C657.518 129.552 656.452 129.787 655.236 129.787H650.34ZM652.42 128.027H655.14C655.982 128.027 656.708 127.867 657.316 127.547C657.934 127.227 658.409 126.779 658.74 126.203C659.081 125.627 659.252 124.955 659.252 124.187C659.252 123.408 659.081 122.736 658.74 122.171C658.409 121.595 657.934 121.147 657.316 120.827C656.708 120.507 655.982 120.347 655.14 120.347H652.42V128.027ZM648.772 124.859V123.323H655.428V124.859H648.772ZM667.203 129.899C666.328 129.899 665.549 129.712 664.867 129.339C664.184 128.955 663.645 128.432 663.251 127.771C662.856 127.11 662.659 126.358 662.659 125.515C662.659 124.662 662.856 123.91 663.251 123.259C663.645 122.598 664.184 122.08 664.867 121.707C665.549 121.334 666.328 121.147 667.203 121.147C668.088 121.147 668.872 121.334 669.555 121.707C670.248 122.08 670.787 122.592 671.171 123.243C671.565 123.894 671.763 124.651 671.763 125.515C671.763 126.358 671.565 127.11 671.171 127.771C670.787 128.432 670.248 128.955 669.555 129.339C668.872 129.712 668.088 129.899 667.203 129.899ZM667.203 128.187C667.693 128.187 668.131 128.08 668.515 127.867C668.899 127.654 669.197 127.344 669.411 126.939C669.635 126.534 669.747 126.059 669.747 125.515C669.747 124.96 669.635 124.486 669.411 124.091C669.197 123.686 668.899 123.376 668.515 123.163C668.131 122.95 667.699 122.843 667.219 122.843C666.728 122.843 666.291 122.95 665.907 123.163C665.533 123.376 665.235 123.686 665.011 124.091C664.787 124.486 664.675 124.96 664.675 125.515C664.675 126.059 664.787 126.534 665.011 126.939C665.235 127.344 665.533 127.654 665.907 127.867C666.291 128.08 666.723 128.187 667.203 128.187ZM664.131 120.075L666.291 118.363H668.083L670.243 120.075H668.579L666.435 118.715H667.939L665.795 120.075H664.131ZM669.875 118.603L667.443 116.731H669.587L671.411 118.603H669.875ZM678.523 121.147C679.206 121.147 679.814 121.28 680.347 121.547C680.891 121.814 681.318 122.224 681.627 122.779C681.937 123.323 682.091 124.027 682.091 124.891V129.787H680.091V125.147C680.091 124.39 679.91 123.824 679.547 123.451C679.195 123.078 678.699 122.891 678.059 122.891C677.59 122.891 677.174 122.987 676.811 123.179C676.449 123.371 676.166 123.659 675.963 124.043C675.771 124.416 675.675 124.891 675.675 125.467V129.787H673.675V121.243H675.579V123.547L675.243 122.843C675.542 122.299 675.974 121.883 676.539 121.595C677.115 121.296 677.777 121.147 678.523 121.147ZM688.516 133.003C687.727 133.003 686.953 132.896 686.196 132.683C685.449 132.48 684.836 132.182 684.356 131.787L685.252 130.283C685.625 130.592 686.095 130.838 686.66 131.019C687.236 131.211 687.817 131.307 688.404 131.307C689.343 131.307 690.031 131.088 690.468 130.651C690.905 130.224 691.124 129.579 691.124 128.715V127.195L691.284 125.259L691.22 123.323V121.243H693.124V128.491C693.124 130.038 692.729 131.174 691.94 131.899C691.151 132.635 690.009 133.003 688.516 133.003ZM688.26 129.403C687.449 129.403 686.713 129.232 686.052 128.891C685.401 128.539 684.884 128.054 684.5 127.435C684.127 126.816 683.94 126.091 683.94 125.259C683.94 124.438 684.127 123.718 684.5 123.099C684.884 122.48 685.401 122 686.052 121.659C686.713 121.318 687.449 121.147 688.26 121.147C688.985 121.147 689.636 121.291 690.212 121.579C690.788 121.867 691.247 122.315 691.588 122.923C691.94 123.531 692.116 124.31 692.116 125.259C692.116 126.208 691.94 126.992 691.588 127.611C691.247 128.219 690.788 128.672 690.212 128.971C689.636 129.259 688.985 129.403 688.26 129.403ZM688.564 127.707C689.065 127.707 689.513 127.606 689.908 127.403C690.303 127.19 690.607 126.902 690.82 126.539C691.044 126.166 691.156 125.739 691.156 125.259C691.156 124.779 691.044 124.358 690.82 123.995C690.607 123.622 690.303 123.339 689.908 123.147C689.513 122.944 689.065 122.843 688.564 122.843C688.063 122.843 687.609 122.944 687.204 123.147C686.809 123.339 686.5 123.622 686.276 123.995C686.063 124.358 685.956 124.779 685.956 125.259C685.956 125.739 686.063 126.166 686.276 126.539C686.5 126.902 686.809 127.19 687.204 127.403C687.609 127.606 688.063 127.707 688.564 127.707ZM700.367 129.787V118.587H702.079L709.103 127.211H708.255V118.587H710.319V129.787H708.607L701.583 121.163H702.431V129.787H700.367ZM718.392 129.787V128.059L718.28 127.691V124.667C718.28 124.08 718.104 123.627 717.752 123.307C717.4 122.976 716.867 122.811 716.152 122.811C715.672 122.811 715.198 122.886 714.728 123.035C714.27 123.184 713.88 123.392 713.56 123.659L712.776 122.203C713.235 121.851 713.779 121.59 714.408 121.419C715.048 121.238 715.71 121.147 716.392 121.147C717.63 121.147 718.584 121.446 719.256 122.043C719.939 122.63 720.28 123.542 720.28 124.779V129.787H718.392ZM715.704 129.899C715.064 129.899 714.504 129.792 714.024 129.579C713.544 129.355 713.171 129.051 712.904 128.667C712.648 128.272 712.52 127.83 712.52 127.339C712.52 126.859 712.632 126.427 712.856 126.043C713.091 125.659 713.47 125.355 713.992 125.131C714.515 124.907 715.208 124.795 716.072 124.795H718.552V126.123H716.216C715.534 126.123 715.075 126.235 714.84 126.459C714.606 126.672 714.488 126.939 714.488 127.259C714.488 127.622 714.632 127.91 714.92 128.123C715.208 128.336 715.608 128.443 716.12 128.443C716.611 128.443 717.048 128.331 717.432 128.107C717.827 127.883 718.11 127.552 718.28 127.115L718.616 128.315C718.424 128.816 718.078 129.206 717.576 129.483C717.086 129.76 716.462 129.899 715.704 129.899ZM722.847 129.787V121.243H724.847V129.787H722.847ZM723.855 119.835C723.482 119.835 723.172 119.718 722.927 119.483C722.692 119.248 722.575 118.966 722.575 118.635C722.575 118.294 722.692 118.011 722.927 117.787C723.172 117.552 723.482 117.435 723.855 117.435C724.228 117.435 724.532 117.547 724.767 117.771C725.012 117.984 725.135 118.256 725.135 118.587C725.135 118.939 725.018 119.238 724.783 119.483C724.548 119.718 724.239 119.835 723.855 119.835Z" fill="#EE542F"/>
<path d="M930.976 152.059C842.629 134.53 623.514 174.847 564.885 280.401" stroke="#EE542F" stroke-linecap="round" stroke-dasharray="8 8"/>
<path d="M907.723 123.787V112.587H912.971C914.315 112.587 915.339 112.854 916.043 113.387C916.747 113.91 917.099 114.614 917.099 115.499C917.099 116.096 916.96 116.608 916.683 117.035C916.405 117.451 916.032 117.776 915.563 118.011C915.104 118.235 914.603 118.347 914.059 118.347L914.347 117.771C914.976 117.771 915.541 117.888 916.043 118.123C916.544 118.347 916.939 118.678 917.227 119.115C917.525 119.552 917.675 120.096 917.675 120.747C917.675 121.707 917.307 122.454 916.571 122.987C915.835 123.52 914.741 123.787 913.291 123.787H907.723ZM909.803 122.155H913.163C913.941 122.155 914.539 122.027 914.955 121.771C915.371 121.515 915.579 121.104 915.579 120.539C915.579 119.984 915.371 119.579 914.955 119.323C914.539 119.056 913.941 118.923 913.163 118.923H909.643V117.307H912.747C913.472 117.307 914.027 117.179 914.411 116.923C914.805 116.667 915.003 116.283 915.003 115.771C915.003 115.248 914.805 114.859 914.411 114.603C914.027 114.347 913.472 114.219 912.747 114.219H909.803V122.155ZM924.967 123.787V122.059L924.855 121.691V118.667C924.855 118.08 924.679 117.627 924.327 117.307C923.975 116.976 923.441 116.811 922.727 116.811C922.247 116.811 921.772 116.886 921.303 117.035C920.844 117.184 920.455 117.392 920.135 117.659L919.351 116.203C919.809 115.851 920.353 115.59 920.983 115.419C921.623 115.238 922.284 115.147 922.967 115.147C924.204 115.147 925.159 115.446 925.831 116.043C926.513 116.63 926.855 117.542 926.855 118.779V123.787H924.967ZM922.279 123.899C921.639 123.899 921.079 123.792 920.599 123.579C920.119 123.355 919.745 123.051 919.479 122.667C919.223 122.272 919.095 121.83 919.095 121.339C919.095 120.859 919.207 120.427 919.431 120.043C919.665 119.659 920.044 119.355 920.567 119.131C921.089 118.907 921.783 118.795 922.647 118.795H925.127V120.123H922.791C922.108 120.123 921.649 120.235 921.415 120.459C921.18 120.672 921.063 120.939 921.063 121.259C921.063 121.622 921.207 121.91 921.495 122.123C921.783 122.336 922.183 122.443 922.695 122.443C923.185 122.443 923.623 122.331 924.007 122.107C924.401 121.883 924.684 121.552 924.855 121.115L925.191 122.315C924.999 122.816 924.652 123.206 924.151 123.483C923.66 123.76 923.036 123.899 922.279 123.899ZM923.543 114.235L922.887 113.499C923.196 113.35 923.415 113.195 923.543 113.035C923.681 112.864 923.751 112.678 923.751 112.475C923.751 112.262 923.676 112.091 923.527 111.963C923.377 111.835 923.185 111.771 922.951 111.771C922.62 111.771 922.3 111.872 921.991 112.075L921.559 111.195C921.783 111.035 922.033 110.912 922.311 110.827C922.588 110.742 922.871 110.699 923.159 110.699C923.681 110.699 924.103 110.848 924.423 111.147C924.753 111.435 924.919 111.819 924.919 112.299C924.919 112.736 924.807 113.115 924.583 113.435C924.359 113.755 924.012 114.022 923.543 114.235ZM933.277 123.899C932.402 123.899 931.624 123.712 930.941 123.339C930.258 122.955 929.72 122.432 929.325 121.771C928.93 121.11 928.733 120.358 928.733 119.515C928.733 118.662 928.93 117.91 929.325 117.259C929.72 116.598 930.258 116.08 930.941 115.707C931.624 115.334 932.402 115.147 933.277 115.147C934.162 115.147 934.946 115.334 935.629 115.707C936.322 116.08 936.861 116.592 937.245 117.243C937.64 117.894 937.837 118.651 937.837 119.515C937.837 120.358 937.64 121.11 937.245 121.771C936.861 122.432 936.322 122.955 935.629 123.339C934.946 123.712 934.162 123.899 933.277 123.899ZM933.277 122.187C933.768 122.187 934.205 122.08 934.589 121.867C934.973 121.654 935.272 121.344 935.485 120.939C935.709 120.534 935.821 120.059 935.821 119.515C935.821 118.96 935.709 118.486 935.485 118.091C935.272 117.686 934.973 117.376 934.589 117.163C934.205 116.95 933.773 116.843 933.293 116.843C932.802 116.843 932.365 116.95 931.981 117.163C931.608 117.376 931.309 117.686 931.085 118.091C930.861 118.486 930.749 118.96 930.749 119.515C930.749 120.059 930.861 120.534 931.085 120.939C931.309 121.344 931.608 121.654 931.981 121.867C932.365 122.08 932.797 122.187 933.277 122.187ZM944.363 123.787V112.587H946.443V122.027H952.299V123.787H944.363ZM957.511 123.899C956.637 123.899 955.858 123.712 955.175 123.339C954.493 122.955 953.954 122.432 953.559 121.771C953.165 121.11 952.967 120.358 952.967 119.515C952.967 118.662 953.165 117.91 953.559 117.259C953.954 116.598 954.493 116.08 955.175 115.707C955.858 115.334 956.637 115.147 957.511 115.147C958.397 115.147 959.181 115.334 959.863 115.707C960.557 116.08 961.095 116.592 961.479 117.243C961.874 117.894 962.071 118.651 962.071 119.515C962.071 120.358 961.874 121.11 961.479 121.771C961.095 122.432 960.557 122.955 959.863 123.339C959.181 123.712 958.397 123.899 957.511 123.899ZM957.511 122.187C958.002 122.187 958.439 122.08 958.823 121.867C959.207 121.654 959.506 121.344 959.719 120.939C959.943 120.534 960.055 120.059 960.055 119.515C960.055 118.96 959.943 118.486 959.719 118.091C959.506 117.686 959.207 117.376 958.823 117.163C958.439 116.95 958.007 116.843 957.527 116.843C957.037 116.843 956.599 116.95 956.215 117.163C955.842 117.376 955.543 117.686 955.319 118.091C955.095 118.486 954.983 118.96 954.983 119.515C954.983 120.059 955.095 120.534 955.319 120.939C955.543 121.344 955.842 121.654 956.215 121.867C956.599 122.08 957.031 122.187 957.511 122.187ZM957.495 127.035C957.229 127.035 956.999 126.95 956.807 126.779C956.626 126.608 956.535 126.379 956.535 126.091C956.535 125.803 956.626 125.568 956.807 125.387C956.999 125.206 957.229 125.115 957.495 125.115C957.762 125.115 957.986 125.206 958.167 125.387C958.359 125.568 958.455 125.803 958.455 126.091C958.455 126.379 958.359 126.608 958.167 126.779C957.986 126.95 957.762 127.035 957.495 127.035ZM954.439 114.075L956.583 111.883H958.407L960.551 114.075H958.903L956.727 112.235H958.263L956.087 114.075H954.439ZM967.904 123.899C967.008 123.899 966.208 123.712 965.504 123.339C964.811 122.955 964.267 122.432 963.872 121.771C963.477 121.11 963.28 120.358 963.28 119.515C963.28 118.662 963.477 117.91 963.872 117.259C964.267 116.598 964.811 116.08 965.504 115.707C966.208 115.334 967.008 115.147 967.904 115.147C968.736 115.147 969.467 115.318 970.096 115.659C970.736 115.99 971.221 116.48 971.552 117.131L970.016 118.027C969.76 117.622 969.445 117.323 969.072 117.131C968.709 116.939 968.315 116.843 967.888 116.843C967.397 116.843 966.955 116.95 966.56 117.163C966.165 117.376 965.856 117.686 965.632 118.091C965.408 118.486 965.296 118.96 965.296 119.515C965.296 120.07 965.408 120.55 965.632 120.955C965.856 121.35 966.165 121.654 966.56 121.867C966.955 122.08 967.397 122.187 967.888 122.187C968.315 122.187 968.709 122.091 969.072 121.899C969.445 121.707 969.76 121.408 970.016 121.003L971.552 121.899C971.221 122.539 970.736 123.035 970.096 123.387C969.467 123.728 968.736 123.899 967.904 123.899Z" fill="#EE542F"/>
<path d="M559.818 292.961C295.61 348.143 69.5237 651.003 103.699 784.466" stroke="#EE542F" stroke-linecap="round" stroke-dasharray="8 8"/>
<path d="M562.057 292.63C561.786 292.686 561.613 292.951 561.67 293.222C561.726 293.492 561.991 293.665 562.262 293.609L562.057 292.63ZM763.421 342.458C763.577 342.686 763.889 342.743 764.116 342.587C764.344 342.43 764.401 342.119 764.245 341.892L763.421 342.458ZM566.236 292.947C566.51 292.911 566.703 292.66 566.667 292.386C566.631 292.113 566.38 291.92 566.107 291.955L566.236 292.947ZM574.218 291.3C573.942 291.311 573.728 291.544 573.739 291.82C573.75 292.096 573.983 292.31 574.259 292.299L574.218 291.3ZM582.387 292.198C582.663 292.201 582.89 291.98 582.893 291.704C582.896 291.428 582.675 291.201 582.399 291.198L582.387 292.198ZM590.541 291.453C590.265 291.44 590.03 291.653 590.017 291.928C590.004 292.204 590.216 292.439 590.492 292.452L590.541 291.453ZM598.62 292.968C598.895 292.989 599.135 292.783 599.156 292.508C599.178 292.232 598.972 291.992 598.696 291.971L598.62 292.968ZM606.837 292.694C606.563 292.666 606.318 292.867 606.29 293.142C606.263 293.416 606.463 293.661 606.738 293.689L606.837 292.694ZM614.828 294.579C615.102 294.612 615.351 294.416 615.384 294.142C615.416 293.868 615.221 293.619 614.947 293.586L614.828 294.579ZM623.025 294.624C622.751 294.587 622.499 294.778 622.462 295.052C622.424 295.325 622.615 295.577 622.889 295.615L623.025 294.624ZM630.937 296.783C631.21 296.825 631.466 296.638 631.507 296.365C631.549 296.092 631.362 295.837 631.089 295.795L630.937 296.783ZM639.136 297.088C638.863 297.042 638.606 297.226 638.56 297.498C638.514 297.77 638.698 298.028 638.97 298.074L639.136 297.088ZM646.984 299.48C647.256 299.53 647.516 299.35 647.566 299.078C647.616 298.806 647.436 298.546 647.164 298.496L646.984 299.48ZM655.172 300.016C654.901 299.963 654.638 300.139 654.584 300.41C654.531 300.681 654.707 300.944 654.978 300.997L655.172 300.016ZM662.951 302.624C663.221 302.681 663.486 302.508 663.543 302.238C663.6 301.968 663.428 301.703 663.157 301.646L662.951 302.624ZM671.12 303.385C670.85 303.325 670.583 303.494 670.522 303.763C670.461 304.032 670.63 304.3 670.899 304.361L671.12 303.385ZM678.822 306.21C679.09 306.275 679.36 306.11 679.425 305.841C679.49 305.573 679.324 305.303 679.056 305.238L678.822 306.21ZM686.965 307.209C686.697 307.14 686.424 307.301 686.356 307.568C686.287 307.836 686.448 308.108 686.715 308.177L686.965 307.209ZM694.577 310.269C694.843 310.342 695.118 310.186 695.192 309.92C695.265 309.654 695.108 309.378 694.842 309.305L694.577 310.269ZM702.685 311.538C702.42 311.46 702.142 311.611 702.064 311.876C701.986 312.141 702.138 312.419 702.402 312.497L702.685 311.538ZM710.185 314.875C710.449 314.958 710.73 314.813 710.813 314.549C710.896 314.286 710.751 314.005 710.487 313.922L710.185 314.875ZM718.24 316.478C717.979 316.388 717.694 316.527 717.605 316.788C717.515 317.05 717.654 317.334 717.915 317.424L718.24 316.478ZM725.575 320.17C725.834 320.267 726.122 320.136 726.219 319.877C726.316 319.619 726.185 319.331 725.926 319.234L725.575 320.17ZM733.518 322.227C733.263 322.121 732.97 322.242 732.864 322.497C732.758 322.752 732.879 323.045 733.134 323.151L733.518 322.227ZM740.536 326.416C740.786 326.534 741.084 326.427 741.201 326.177C741.319 325.927 741.211 325.629 740.961 325.512L740.536 326.416ZM748.282 329.228C748.04 329.094 747.736 329.182 747.603 329.424C747.469 329.666 747.557 329.97 747.799 330.103L748.282 329.228ZM754.662 334.312C754.889 334.469 755.201 334.412 755.358 334.185C755.515 333.957 755.458 333.646 755.231 333.489L754.662 334.312ZM761.598 338.724C761.405 338.527 761.088 338.524 760.891 338.717C760.694 338.911 760.691 339.227 760.884 339.424L761.598 338.724ZM562.262 293.609C563.483 293.353 564.81 293.133 566.236 292.947L566.107 291.955C564.66 292.144 563.307 292.368 562.057 292.63L562.262 293.609ZM574.259 292.299C576.794 292.196 579.511 292.163 582.387 292.198L582.399 291.198C579.508 291.163 576.774 291.196 574.218 291.3L574.259 292.299ZM590.492 292.452C593.11 292.58 595.823 292.753 598.62 292.968L598.696 291.971C595.891 291.755 593.168 291.582 590.541 291.453L590.492 292.452ZM606.738 293.689C609.381 293.953 612.08 294.25 614.828 294.579L614.947 293.586C612.193 293.257 609.487 292.959 606.837 292.694L606.738 293.689ZM622.889 295.615C625.54 295.978 628.226 296.368 630.937 296.783L631.089 295.795C628.372 295.379 625.682 294.988 623.025 294.624L622.889 295.615ZM638.97 298.074C641.626 298.521 644.3 298.99 646.984 299.48L647.164 298.496C644.475 298.005 641.797 297.535 639.136 297.088L638.97 298.074ZM654.978 300.997C657.635 301.52 660.294 302.063 662.951 302.624L663.157 301.646C660.496 301.083 657.832 300.54 655.172 300.016L654.978 300.997ZM670.899 304.361C673.552 304.96 676.195 305.577 678.822 306.21L679.056 305.238C676.425 304.604 673.777 303.986 671.12 303.385L670.899 304.361ZM686.715 308.177C689.363 308.859 691.986 309.556 694.577 310.269L694.842 309.305C692.245 308.591 689.617 307.892 686.965 307.209L686.715 308.177ZM702.402 312.497C705.042 313.275 707.639 314.068 710.185 314.875L710.487 313.922C707.934 313.112 705.331 312.317 702.685 311.538L702.402 312.497ZM717.915 317.424C720.541 318.325 723.098 319.241 725.575 320.17L725.926 319.234C723.44 318.301 720.874 317.382 718.24 316.478L717.915 317.424ZM733.134 323.151C735.721 324.226 738.193 325.315 740.536 326.416L740.961 325.512C738.604 324.403 736.118 323.308 733.518 322.227L733.134 323.151ZM747.799 330.103C750.321 331.495 752.618 332.899 754.662 334.312L755.231 333.489C753.154 332.054 750.828 330.632 748.282 329.228L747.799 330.103ZM760.884 339.424C761.88 340.439 762.728 341.451 763.421 342.458L764.245 341.892C763.514 340.828 762.627 339.772 761.598 338.724L760.884 339.424Z" fill="#EE542F"/>
<path d="M458.598 138.24C523.603 169.277 545.857 206.171 559.859 276.928" stroke="#EE542F" stroke-linecap="round" stroke-dasharray="8 8"/>
</g>
<defs>
<clipPath id="clip0_875_12222">
<rect width="1740.05" height="1320.28" fill="white" transform="translate(-150.025 -125)"/>
</clipPath>
</defs>
</svg>
